G04 #@! TF.GenerationSoftware,KiCad,Pcbnew,8.0.5+1*
G04 #@! TF.CreationDate,2024-12-31T01:26:13+00:00*
G04 #@! TF.ProjectId,RIDE,52494445-2e6b-4696-9361-645f70636258,rev?*
G04 #@! TF.SameCoordinates,Original*
G04 #@! TF.FileFunction,Legend,Top*
G04 #@! TF.FilePolarity,Positive*
%FSLAX46Y46*%
G04 Gerber Fmt 4.6, Leading zero omitted, Abs format (unit mm)*
G04 Created by KiCad (PCBNEW 8.0.5+1) date 2024-12-31 01:26:13*
%MOMM*%
%LPD*%
G01*
G04 APERTURE LIST*
%ADD10C,0.150000*%
%ADD11C,0.149860*%
%ADD12C,0.120000*%
%ADD13C,0.100000*%
%ADD14C,1.700000*%
%ADD15R,0.458000X1.510000*%
%ADD16R,1.503000X1.300000*%
%ADD17O,2.997200X1.676400*%
%ADD18R,1.700000X1.700000*%
%ADD19O,1.700000X1.700000*%
%ADD20R,1.300000X0.900000*%
G04 APERTURE END LIST*
D10*
X7345600Y28793200D02*
X7345600Y33238200D01*
X4170600Y33873200D02*
X12425600Y33873200D01*
X7345600Y28793200D02*
X7345600Y36413200D01*
X7345600Y36413200D02*
X4170600Y36413200D01*
X12425600Y28793200D02*
X7345600Y28793200D01*
X7345600Y36413200D02*
X7345600Y33873200D01*
X716905Y14824625D02*
X1224905Y14316625D01*
X1478905Y13681625D01*
X1351905Y13173625D01*
X970905Y12538625D01*
X462905Y12284625D01*
X81905Y12157625D01*
X81905Y14997431D01*
X716905Y14824625D01*
G36*
X716905Y14824625D02*
G01*
X1224905Y14316625D01*
X1478905Y13681625D01*
X1351905Y13173625D01*
X970905Y12538625D01*
X462905Y12284625D01*
X81905Y12157625D01*
X81905Y14997431D01*
X716905Y14824625D01*
G37*
X4170600Y36413200D02*
X4170600Y28793200D01*
X12425600Y36413200D02*
X12425600Y28793200D01*
X4170600Y28793200D02*
X7345600Y28793200D01*
X7345600Y36413200D02*
X12425600Y36413200D01*
X73901Y15008903D02*
G75*
G02*
X73901Y12169109I13J-1419897D01*
G01*
D11*
X4968885Y35411866D02*
X4968885Y36173866D01*
X5331742Y35411866D02*
X5331742Y36173866D01*
X5331742Y36173866D02*
X5513171Y36173866D01*
X5513171Y36173866D02*
X5622028Y36137580D01*
X5622028Y36137580D02*
X5694599Y36065009D01*
X5694599Y36065009D02*
X5730885Y35992437D01*
X5730885Y35992437D02*
X5767171Y35847294D01*
X5767171Y35847294D02*
X5767171Y35738437D01*
X5767171Y35738437D02*
X5730885Y35593294D01*
X5730885Y35593294D02*
X5694599Y35520723D01*
X5694599Y35520723D02*
X5622028Y35448151D01*
X5622028Y35448151D02*
X5513171Y35411866D01*
X5513171Y35411866D02*
X5331742Y35411866D01*
X6093742Y35811009D02*
X6347742Y35811009D01*
X6456599Y35411866D02*
X6093742Y35411866D01*
X6093742Y35411866D02*
X6093742Y36173866D01*
X6093742Y36173866D02*
X6456599Y36173866D01*
X4968885Y34947089D02*
X5114028Y34947089D01*
X5114028Y34947089D02*
X5186599Y34910803D01*
X5186599Y34910803D02*
X5259171Y34838232D01*
X5259171Y34838232D02*
X5295456Y34693089D01*
X5295456Y34693089D02*
X5295456Y34439089D01*
X5295456Y34439089D02*
X5259171Y34293946D01*
X5259171Y34293946D02*
X5186599Y34221374D01*
X5186599Y34221374D02*
X5114028Y34185089D01*
X5114028Y34185089D02*
X4968885Y34185089D01*
X4968885Y34185089D02*
X4896314Y34221374D01*
X4896314Y34221374D02*
X4823742Y34293946D01*
X4823742Y34293946D02*
X4787456Y34439089D01*
X4787456Y34439089D02*
X4787456Y34693089D01*
X4787456Y34693089D02*
X4823742Y34838232D01*
X4823742Y34838232D02*
X4896314Y34910803D01*
X4896314Y34910803D02*
X4968885Y34947089D01*
X5876028Y34584232D02*
X5622028Y34584232D01*
X5622028Y34185089D02*
X5622028Y34947089D01*
X5622028Y34947089D02*
X5984885Y34947089D01*
X6529171Y34584232D02*
X6275171Y34584232D01*
X6275171Y34185089D02*
X6275171Y34947089D01*
X6275171Y34947089D02*
X6638028Y34947089D01*
X75621371Y22205381D02*
X76056800Y22205381D01*
X75839085Y21443381D02*
X75839085Y22205381D01*
X76310799Y21443381D02*
X76310799Y22205381D01*
X76310799Y22205381D02*
X76492228Y22205381D01*
X76492228Y22205381D02*
X76601085Y22169095D01*
X76601085Y22169095D02*
X76673656Y22096524D01*
X76673656Y22096524D02*
X76709942Y22023952D01*
X76709942Y22023952D02*
X76746228Y21878809D01*
X76746228Y21878809D02*
X76746228Y21769952D01*
X76746228Y21769952D02*
X76709942Y21624809D01*
X76709942Y21624809D02*
X76673656Y21552238D01*
X76673656Y21552238D02*
X76601085Y21479666D01*
X76601085Y21479666D02*
X76492228Y21443381D01*
X76492228Y21443381D02*
X76310799Y21443381D01*
X77072799Y21443381D02*
X77072799Y22205381D01*
X77310351Y7125290D02*
X77346637Y7089004D01*
X77346637Y7089004D02*
X77382922Y6980147D01*
X77382922Y6980147D02*
X77382922Y6907575D01*
X77382922Y6907575D02*
X77346637Y6798718D01*
X77346637Y6798718D02*
X77274065Y6726147D01*
X77274065Y6726147D02*
X77201494Y6689861D01*
X77201494Y6689861D02*
X77056351Y6653575D01*
X77056351Y6653575D02*
X76947494Y6653575D01*
X76947494Y6653575D02*
X76802351Y6689861D01*
X76802351Y6689861D02*
X76729779Y6726147D01*
X76729779Y6726147D02*
X76657208Y6798718D01*
X76657208Y6798718D02*
X76620922Y6907575D01*
X76620922Y6907575D02*
X76620922Y6980147D01*
X76620922Y6980147D02*
X76657208Y7089004D01*
X76657208Y7089004D02*
X76693494Y7125290D01*
X76983779Y7705861D02*
X76983779Y7451861D01*
X77382922Y7451861D02*
X76620922Y7451861D01*
X76620922Y7451861D02*
X76620922Y7814718D01*
X76657208Y8504147D02*
X76620922Y8431575D01*
X76620922Y8431575D02*
X76620922Y8322718D01*
X76620922Y8322718D02*
X76657208Y8213861D01*
X76657208Y8213861D02*
X76729779Y8141290D01*
X76729779Y8141290D02*
X76802351Y8105004D01*
X76802351Y8105004D02*
X76947494Y8068718D01*
X76947494Y8068718D02*
X77056351Y8068718D01*
X77056351Y8068718D02*
X77201494Y8105004D01*
X77201494Y8105004D02*
X77274065Y8141290D01*
X77274065Y8141290D02*
X77346637Y8213861D01*
X77346637Y8213861D02*
X77382922Y8322718D01*
X77382922Y8322718D02*
X77382922Y8395290D01*
X77382922Y8395290D02*
X77346637Y8504147D01*
X77346637Y8504147D02*
X77310351Y8540433D01*
X77310351Y8540433D02*
X77056351Y8540433D01*
X77056351Y8540433D02*
X77056351Y8395290D01*
X72863657Y22205381D02*
X73299086Y22205381D01*
X73081371Y21443381D02*
X73081371Y22205381D01*
X73553085Y21443381D02*
X73553085Y22205381D01*
X73553085Y22205381D02*
X73734514Y22205381D01*
X73734514Y22205381D02*
X73843371Y22169095D01*
X73843371Y22169095D02*
X73915942Y22096524D01*
X73915942Y22096524D02*
X73952228Y22023952D01*
X73952228Y22023952D02*
X73988514Y21878809D01*
X73988514Y21878809D02*
X73988514Y21769952D01*
X73988514Y21769952D02*
X73952228Y21624809D01*
X73952228Y21624809D02*
X73915942Y21552238D01*
X73915942Y21552238D02*
X73843371Y21479666D01*
X73843371Y21479666D02*
X73734514Y21443381D01*
X73734514Y21443381D02*
X73553085Y21443381D01*
X74460228Y22205381D02*
X74605371Y22205381D01*
X74605371Y22205381D02*
X74677942Y22169095D01*
X74677942Y22169095D02*
X74750514Y22096524D01*
X74750514Y22096524D02*
X74786799Y21951381D01*
X74786799Y21951381D02*
X74786799Y21697381D01*
X74786799Y21697381D02*
X74750514Y21552238D01*
X74750514Y21552238D02*
X74677942Y21479666D01*
X74677942Y21479666D02*
X74605371Y21443381D01*
X74605371Y21443381D02*
X74460228Y21443381D01*
X74460228Y21443381D02*
X74387657Y21479666D01*
X74387657Y21479666D02*
X74315085Y21552238D01*
X74315085Y21552238D02*
X74278799Y21697381D01*
X74278799Y21697381D02*
X74278799Y21951381D01*
X74278799Y21951381D02*
X74315085Y22096524D01*
X74315085Y22096524D02*
X74387657Y22169095D01*
X74387657Y22169095D02*
X74460228Y22205381D01*
X78652922Y5925458D02*
X77890922Y5925458D01*
X78652922Y6288315D02*
X77890922Y6288315D01*
X77890922Y6288315D02*
X78652922Y6723744D01*
X78652922Y6723744D02*
X77890922Y6723744D01*
X70341800Y22205381D02*
X70777229Y22205381D01*
X70559514Y21443381D02*
X70559514Y22205381D01*
X71466657Y21515952D02*
X71430371Y21479666D01*
X71430371Y21479666D02*
X71321514Y21443381D01*
X71321514Y21443381D02*
X71248942Y21443381D01*
X71248942Y21443381D02*
X71140085Y21479666D01*
X71140085Y21479666D02*
X71067514Y21552238D01*
X71067514Y21552238D02*
X71031228Y21624809D01*
X71031228Y21624809D02*
X70994942Y21769952D01*
X70994942Y21769952D02*
X70994942Y21878809D01*
X70994942Y21878809D02*
X71031228Y22023952D01*
X71031228Y22023952D02*
X71067514Y22096524D01*
X71067514Y22096524D02*
X71140085Y22169095D01*
X71140085Y22169095D02*
X71248942Y22205381D01*
X71248942Y22205381D02*
X71321514Y22205381D01*
X71321514Y22205381D02*
X71430371Y22169095D01*
X71430371Y22169095D02*
X71466657Y22132809D01*
X71793228Y21443381D02*
X71793228Y22205381D01*
X72228657Y21443381D02*
X71902085Y21878809D01*
X72228657Y22205381D02*
X71793228Y21769952D01*
X65044085Y21733666D02*
X65624657Y21733666D01*
X65334371Y21443381D02*
X65334371Y22023952D01*
X65914943Y22205381D02*
X66386657Y22205381D01*
X66386657Y22205381D02*
X66132657Y21915095D01*
X66132657Y21915095D02*
X66241514Y21915095D01*
X66241514Y21915095D02*
X66314086Y21878809D01*
X66314086Y21878809D02*
X66350371Y21842524D01*
X66350371Y21842524D02*
X66386657Y21769952D01*
X66386657Y21769952D02*
X66386657Y21588524D01*
X66386657Y21588524D02*
X66350371Y21515952D01*
X66350371Y21515952D02*
X66314086Y21479666D01*
X66314086Y21479666D02*
X66241514Y21443381D01*
X66241514Y21443381D02*
X66023800Y21443381D01*
X66023800Y21443381D02*
X65951228Y21479666D01*
X65951228Y21479666D02*
X65914943Y21515952D01*
X66713228Y21515952D02*
X66749514Y21479666D01*
X66749514Y21479666D02*
X66713228Y21443381D01*
X66713228Y21443381D02*
X66676942Y21479666D01*
X66676942Y21479666D02*
X66713228Y21515952D01*
X66713228Y21515952D02*
X66713228Y21443381D01*
X67003514Y22205381D02*
X67475228Y22205381D01*
X67475228Y22205381D02*
X67221228Y21915095D01*
X67221228Y21915095D02*
X67330085Y21915095D01*
X67330085Y21915095D02*
X67402657Y21878809D01*
X67402657Y21878809D02*
X67438942Y21842524D01*
X67438942Y21842524D02*
X67475228Y21769952D01*
X67475228Y21769952D02*
X67475228Y21588524D01*
X67475228Y21588524D02*
X67438942Y21515952D01*
X67438942Y21515952D02*
X67402657Y21479666D01*
X67402657Y21479666D02*
X67330085Y21443381D01*
X67330085Y21443381D02*
X67112371Y21443381D01*
X67112371Y21443381D02*
X67039799Y21479666D01*
X67039799Y21479666D02*
X67003514Y21515952D01*
X78052514Y22205381D02*
X78487943Y22205381D01*
X78270228Y21443381D02*
X78270228Y22205381D01*
X78741942Y21443381D02*
X78741942Y22205381D01*
X78741942Y22205381D02*
X78995942Y21661095D01*
X78995942Y21661095D02*
X79249942Y22205381D01*
X79249942Y22205381D02*
X79249942Y21443381D01*
X79576513Y21479666D02*
X79685371Y21443381D01*
X79685371Y21443381D02*
X79866799Y21443381D01*
X79866799Y21443381D02*
X79939371Y21479666D01*
X79939371Y21479666D02*
X79975656Y21515952D01*
X79975656Y21515952D02*
X80011942Y21588524D01*
X80011942Y21588524D02*
X80011942Y21661095D01*
X80011942Y21661095D02*
X79975656Y21733666D01*
X79975656Y21733666D02*
X79939371Y21769952D01*
X79939371Y21769952D02*
X79866799Y21806238D01*
X79866799Y21806238D02*
X79721656Y21842524D01*
X79721656Y21842524D02*
X79649085Y21878809D01*
X79649085Y21878809D02*
X79612799Y21915095D01*
X79612799Y21915095D02*
X79576513Y21987666D01*
X79576513Y21987666D02*
X79576513Y22060238D01*
X79576513Y22060238D02*
X79612799Y22132809D01*
X79612799Y22132809D02*
X79649085Y22169095D01*
X79649085Y22169095D02*
X79721656Y22205381D01*
X79721656Y22205381D02*
X79903085Y22205381D01*
X79903085Y22205381D02*
X80011942Y22169095D01*
X6365885Y30407906D02*
X6402171Y30444192D01*
X6402171Y30444192D02*
X6474743Y30480478D01*
X6474743Y30480478D02*
X6656171Y30480478D01*
X6656171Y30480478D02*
X6728743Y30444192D01*
X6728743Y30444192D02*
X6765028Y30407906D01*
X6765028Y30407906D02*
X6801314Y30335335D01*
X6801314Y30335335D02*
X6801314Y30262763D01*
X6801314Y30262763D02*
X6765028Y30153906D01*
X6765028Y30153906D02*
X6329600Y29718478D01*
X6329600Y29718478D02*
X6801314Y29718478D01*
X6801314Y32258478D02*
X6365885Y32258478D01*
X6583600Y32258478D02*
X6583600Y33020478D01*
X6583600Y33020478D02*
X6511028Y32911621D01*
X6511028Y32911621D02*
X6438457Y32839049D01*
X6438457Y32839049D02*
X6365885Y32802763D01*
X68200942Y22169095D02*
X68128371Y22205381D01*
X68128371Y22205381D02*
X68019513Y22205381D01*
X68019513Y22205381D02*
X67910656Y22169095D01*
X67910656Y22169095D02*
X67838085Y22096524D01*
X67838085Y22096524D02*
X67801799Y22023952D01*
X67801799Y22023952D02*
X67765513Y21878809D01*
X67765513Y21878809D02*
X67765513Y21769952D01*
X67765513Y21769952D02*
X67801799Y21624809D01*
X67801799Y21624809D02*
X67838085Y21552238D01*
X67838085Y21552238D02*
X67910656Y21479666D01*
X67910656Y21479666D02*
X68019513Y21443381D01*
X68019513Y21443381D02*
X68092085Y21443381D01*
X68092085Y21443381D02*
X68200942Y21479666D01*
X68200942Y21479666D02*
X68237228Y21515952D01*
X68237228Y21515952D02*
X68237228Y21769952D01*
X68237228Y21769952D02*
X68092085Y21769952D01*
X68563799Y21443381D02*
X68563799Y22205381D01*
X68563799Y22205381D02*
X68999228Y21443381D01*
X68999228Y21443381D02*
X68999228Y22205381D01*
X69362085Y21443381D02*
X69362085Y22205381D01*
X69362085Y22205381D02*
X69543514Y22205381D01*
X69543514Y22205381D02*
X69652371Y22169095D01*
X69652371Y22169095D02*
X69724942Y22096524D01*
X69724942Y22096524D02*
X69761228Y22023952D01*
X69761228Y22023952D02*
X69797514Y21878809D01*
X69797514Y21878809D02*
X69797514Y21769952D01*
X69797514Y21769952D02*
X69761228Y21624809D01*
X69761228Y21624809D02*
X69724942Y21552238D01*
X69724942Y21552238D02*
X69652371Y21479666D01*
X69652371Y21479666D02*
X69543514Y21443381D01*
X69543514Y21443381D02*
X69362085Y21443381D01*
X78362637Y13418457D02*
X78362637Y13999028D01*
X78652922Y13708743D02*
X78072351Y13708743D01*
X78652922Y14724743D02*
X78652922Y14361886D01*
X78652922Y14361886D02*
X77890922Y14361886D01*
X78253779Y14978743D02*
X78253779Y15232743D01*
X78652922Y15341600D02*
X78652922Y14978743D01*
X78652922Y14978743D02*
X77890922Y14978743D01*
X77890922Y14978743D02*
X77890922Y15341600D01*
X78652922Y15668172D02*
X77890922Y15668172D01*
X77890922Y15668172D02*
X77890922Y15849601D01*
X77890922Y15849601D02*
X77927208Y15958458D01*
X77927208Y15958458D02*
X77999779Y16031029D01*
X77999779Y16031029D02*
X78072351Y16067315D01*
X78072351Y16067315D02*
X78217494Y16103601D01*
X78217494Y16103601D02*
X78326351Y16103601D01*
X78326351Y16103601D02*
X78471494Y16067315D01*
X78471494Y16067315D02*
X78544065Y16031029D01*
X78544065Y16031029D02*
X78616637Y15958458D01*
X78616637Y15958458D02*
X78652922Y15849601D01*
X78652922Y15849601D02*
X78652922Y15668172D01*
X78362637Y16430172D02*
X78362637Y17010743D01*
X77890922Y8105004D02*
X77890922Y8250147D01*
X77890922Y8250147D02*
X77927208Y8322718D01*
X77927208Y8322718D02*
X77999779Y8395290D01*
X77999779Y8395290D02*
X78144922Y8431575D01*
X78144922Y8431575D02*
X78398922Y8431575D01*
X78398922Y8431575D02*
X78544065Y8395290D01*
X78544065Y8395290D02*
X78616637Y8322718D01*
X78616637Y8322718D02*
X78652922Y8250147D01*
X78652922Y8250147D02*
X78652922Y8105004D01*
X78652922Y8105004D02*
X78616637Y8032432D01*
X78616637Y8032432D02*
X78544065Y7959861D01*
X78544065Y7959861D02*
X78398922Y7923575D01*
X78398922Y7923575D02*
X78144922Y7923575D01*
X78144922Y7923575D02*
X77999779Y7959861D01*
X77999779Y7959861D02*
X77927208Y8032432D01*
X77927208Y8032432D02*
X77890922Y8105004D01*
X77890922Y8758147D02*
X78507779Y8758147D01*
X78507779Y8758147D02*
X78580351Y8794433D01*
X78580351Y8794433D02*
X78616637Y8830718D01*
X78616637Y8830718D02*
X78652922Y8903290D01*
X78652922Y8903290D02*
X78652922Y9048433D01*
X78652922Y9048433D02*
X78616637Y9121004D01*
X78616637Y9121004D02*
X78580351Y9157290D01*
X78580351Y9157290D02*
X78507779Y9193576D01*
X78507779Y9193576D02*
X77890922Y9193576D01*
X77890922Y9447576D02*
X77890922Y9883004D01*
X78652922Y9665290D02*
X77890922Y9665290D01*
X5168457Y30988478D02*
X4914457Y31351335D01*
X4733028Y30988478D02*
X4733028Y31750478D01*
X4733028Y31750478D02*
X5023314Y31750478D01*
X5023314Y31750478D02*
X5095885Y31714192D01*
X5095885Y31714192D02*
X5132171Y31677906D01*
X5132171Y31677906D02*
X5168457Y31605335D01*
X5168457Y31605335D02*
X5168457Y31496478D01*
X5168457Y31496478D02*
X5132171Y31423906D01*
X5132171Y31423906D02*
X5095885Y31387621D01*
X5095885Y31387621D02*
X5023314Y31351335D01*
X5023314Y31351335D02*
X4733028Y31351335D01*
X5458742Y31206192D02*
X5821600Y31206192D01*
X5386171Y30988478D02*
X5640171Y31750478D01*
X5640171Y31750478D02*
X5894171Y30988478D01*
X6148171Y30988478D02*
X6148171Y31750478D01*
X6148171Y31750478D02*
X6402171Y31206192D01*
X6402171Y31206192D02*
X6656171Y31750478D01*
X6656171Y31750478D02*
X6656171Y30988478D01*
X22774719Y26904478D02*
X22339290Y26904478D01*
X22557005Y26904478D02*
X22557005Y27666478D01*
X22557005Y27666478D02*
X22484433Y27557621D01*
X22484433Y27557621D02*
X22411862Y27485049D01*
X22411862Y27485049D02*
X22339290Y27448763D01*
X77890922Y10624458D02*
X77890922Y10769601D01*
X77890922Y10769601D02*
X77927208Y10842172D01*
X77927208Y10842172D02*
X77999779Y10914744D01*
X77999779Y10914744D02*
X78144922Y10951029D01*
X78144922Y10951029D02*
X78398922Y10951029D01*
X78398922Y10951029D02*
X78544065Y10914744D01*
X78544065Y10914744D02*
X78616637Y10842172D01*
X78616637Y10842172D02*
X78652922Y10769601D01*
X78652922Y10769601D02*
X78652922Y10624458D01*
X78652922Y10624458D02*
X78616637Y10551886D01*
X78616637Y10551886D02*
X78544065Y10479315D01*
X78544065Y10479315D02*
X78398922Y10443029D01*
X78398922Y10443029D02*
X78144922Y10443029D01*
X78144922Y10443029D02*
X77999779Y10479315D01*
X77999779Y10479315D02*
X77927208Y10551886D01*
X77927208Y10551886D02*
X77890922Y10624458D01*
X77890922Y11168744D02*
X78652922Y11422744D01*
X78652922Y11422744D02*
X77890922Y11676744D01*
X78652922Y12366173D02*
X78290065Y12112173D01*
X78652922Y11930744D02*
X77890922Y11930744D01*
X77890922Y11930744D02*
X77890922Y12221030D01*
X77890922Y12221030D02*
X77927208Y12293601D01*
X77927208Y12293601D02*
X77963494Y12329887D01*
X77963494Y12329887D02*
X78036065Y12366173D01*
X78036065Y12366173D02*
X78144922Y12366173D01*
X78144922Y12366173D02*
X78217494Y12329887D01*
X78217494Y12329887D02*
X78253779Y12293601D01*
X78253779Y12293601D02*
X78290065Y12221030D01*
X78290065Y12221030D02*
X78290065Y11930744D01*
X46304200Y3998678D02*
X46050200Y4361535D01*
X45868771Y3998678D02*
X45868771Y4760678D01*
X45868771Y4760678D02*
X46159057Y4760678D01*
X46159057Y4760678D02*
X46231628Y4724392D01*
X46231628Y4724392D02*
X46267914Y4688106D01*
X46267914Y4688106D02*
X46304200Y4615535D01*
X46304200Y4615535D02*
X46304200Y4506678D01*
X46304200Y4506678D02*
X46267914Y4434106D01*
X46267914Y4434106D02*
X46231628Y4397821D01*
X46231628Y4397821D02*
X46159057Y4361535D01*
X46159057Y4361535D02*
X45868771Y4361535D01*
X46957343Y4760678D02*
X46812200Y4760678D01*
X46812200Y4760678D02*
X46739628Y4724392D01*
X46739628Y4724392D02*
X46703343Y4688106D01*
X46703343Y4688106D02*
X46630771Y4579249D01*
X46630771Y4579249D02*
X46594485Y4434106D01*
X46594485Y4434106D02*
X46594485Y4143821D01*
X46594485Y4143821D02*
X46630771Y4071249D01*
X46630771Y4071249D02*
X46667057Y4034963D01*
X46667057Y4034963D02*
X46739628Y3998678D01*
X46739628Y3998678D02*
X46884771Y3998678D01*
X46884771Y3998678D02*
X46957343Y4034963D01*
X46957343Y4034963D02*
X46993628Y4071249D01*
X46993628Y4071249D02*
X47029914Y4143821D01*
X47029914Y4143821D02*
X47029914Y4325249D01*
X47029914Y4325249D02*
X46993628Y4397821D01*
X46993628Y4397821D02*
X46957343Y4434106D01*
X46957343Y4434106D02*
X46884771Y4470392D01*
X46884771Y4470392D02*
X46739628Y4470392D01*
X46739628Y4470392D02*
X46667057Y4434106D01*
X46667057Y4434106D02*
X46630771Y4397821D01*
X46630771Y4397821D02*
X46594485Y4325249D01*
X66181522Y10620829D02*
X66798379Y10620829D01*
X66798379Y10620829D02*
X66870951Y10657115D01*
X66870951Y10657115D02*
X66907237Y10693400D01*
X66907237Y10693400D02*
X66943522Y10765972D01*
X66943522Y10765972D02*
X66943522Y10911115D01*
X66943522Y10911115D02*
X66907237Y10983686D01*
X66907237Y10983686D02*
X66870951Y11019972D01*
X66870951Y11019972D02*
X66798379Y11056258D01*
X66798379Y11056258D02*
X66181522Y11056258D01*
X66508094Y11527972D02*
X66471808Y11455401D01*
X66471808Y11455401D02*
X66435522Y11419115D01*
X66435522Y11419115D02*
X66362951Y11382829D01*
X66362951Y11382829D02*
X66326665Y11382829D01*
X66326665Y11382829D02*
X66254094Y11419115D01*
X66254094Y11419115D02*
X66217808Y11455401D01*
X66217808Y11455401D02*
X66181522Y11527972D01*
X66181522Y11527972D02*
X66181522Y11673115D01*
X66181522Y11673115D02*
X66217808Y11745686D01*
X66217808Y11745686D02*
X66254094Y11781972D01*
X66254094Y11781972D02*
X66326665Y11818258D01*
X66326665Y11818258D02*
X66362951Y11818258D01*
X66362951Y11818258D02*
X66435522Y11781972D01*
X66435522Y11781972D02*
X66471808Y11745686D01*
X66471808Y11745686D02*
X66508094Y11673115D01*
X66508094Y11673115D02*
X66508094Y11527972D01*
X66508094Y11527972D02*
X66544379Y11455401D01*
X66544379Y11455401D02*
X66580665Y11419115D01*
X66580665Y11419115D02*
X66653237Y11382829D01*
X66653237Y11382829D02*
X66798379Y11382829D01*
X66798379Y11382829D02*
X66870951Y11419115D01*
X66870951Y11419115D02*
X66907237Y11455401D01*
X66907237Y11455401D02*
X66943522Y11527972D01*
X66943522Y11527972D02*
X66943522Y11673115D01*
X66943522Y11673115D02*
X66907237Y11745686D01*
X66907237Y11745686D02*
X66870951Y11781972D01*
X66870951Y11781972D02*
X66798379Y11818258D01*
X66798379Y11818258D02*
X66653237Y11818258D01*
X66653237Y11818258D02*
X66580665Y11781972D01*
X66580665Y11781972D02*
X66544379Y11745686D01*
X66544379Y11745686D02*
X66508094Y11673115D01*
X5333128Y5677781D02*
X5333128Y5060924D01*
X5333128Y5060924D02*
X5369414Y4988352D01*
X5369414Y4988352D02*
X5405700Y4952066D01*
X5405700Y4952066D02*
X5478271Y4915781D01*
X5478271Y4915781D02*
X5623414Y4915781D01*
X5623414Y4915781D02*
X5695985Y4952066D01*
X5695985Y4952066D02*
X5732271Y4988352D01*
X5732271Y4988352D02*
X5768557Y5060924D01*
X5768557Y5060924D02*
X5768557Y5677781D01*
X6530557Y4915781D02*
X6095128Y4915781D01*
X6312843Y4915781D02*
X6312843Y5677781D01*
X6312843Y5677781D02*
X6240271Y5568924D01*
X6240271Y5568924D02*
X6167700Y5496352D01*
X6167700Y5496352D02*
X6095128Y5460066D01*
X14958000Y3978049D02*
X14921714Y3941763D01*
X14921714Y3941763D02*
X14812857Y3905478D01*
X14812857Y3905478D02*
X14740285Y3905478D01*
X14740285Y3905478D02*
X14631428Y3941763D01*
X14631428Y3941763D02*
X14558857Y4014335D01*
X14558857Y4014335D02*
X14522571Y4086906D01*
X14522571Y4086906D02*
X14486285Y4232049D01*
X14486285Y4232049D02*
X14486285Y4340906D01*
X14486285Y4340906D02*
X14522571Y4486049D01*
X14522571Y4486049D02*
X14558857Y4558621D01*
X14558857Y4558621D02*
X14631428Y4631192D01*
X14631428Y4631192D02*
X14740285Y4667478D01*
X14740285Y4667478D02*
X14812857Y4667478D01*
X14812857Y4667478D02*
X14921714Y4631192D01*
X14921714Y4631192D02*
X14958000Y4594906D01*
X15647428Y4667478D02*
X15284571Y4667478D01*
X15284571Y4667478D02*
X15248285Y4304621D01*
X15248285Y4304621D02*
X15284571Y4340906D01*
X15284571Y4340906D02*
X15357143Y4377192D01*
X15357143Y4377192D02*
X15538571Y4377192D01*
X15538571Y4377192D02*
X15611143Y4340906D01*
X15611143Y4340906D02*
X15647428Y4304621D01*
X15647428Y4304621D02*
X15683714Y4232049D01*
X15683714Y4232049D02*
X15683714Y4050621D01*
X15683714Y4050621D02*
X15647428Y3978049D01*
X15647428Y3978049D02*
X15611143Y3941763D01*
X15611143Y3941763D02*
X15538571Y3905478D01*
X15538571Y3905478D02*
X15357143Y3905478D01*
X15357143Y3905478D02*
X15284571Y3941763D01*
X15284571Y3941763D02*
X15248285Y3978049D01*
X17958229Y21254781D02*
X17958229Y20637924D01*
X17958229Y20637924D02*
X17994515Y20565352D01*
X17994515Y20565352D02*
X18030801Y20529066D01*
X18030801Y20529066D02*
X18103372Y20492781D01*
X18103372Y20492781D02*
X18248515Y20492781D01*
X18248515Y20492781D02*
X18321086Y20529066D01*
X18321086Y20529066D02*
X18357372Y20565352D01*
X18357372Y20565352D02*
X18393658Y20637924D01*
X18393658Y20637924D02*
X18393658Y21254781D01*
X19119372Y21254781D02*
X18756515Y21254781D01*
X18756515Y21254781D02*
X18720229Y20891924D01*
X18720229Y20891924D02*
X18756515Y20928209D01*
X18756515Y20928209D02*
X18829087Y20964495D01*
X18829087Y20964495D02*
X19010515Y20964495D01*
X19010515Y20964495D02*
X19083087Y20928209D01*
X19083087Y20928209D02*
X19119372Y20891924D01*
X19119372Y20891924D02*
X19155658Y20819352D01*
X19155658Y20819352D02*
X19155658Y20637924D01*
X19155658Y20637924D02*
X19119372Y20565352D01*
X19119372Y20565352D02*
X19083087Y20529066D01*
X19083087Y20529066D02*
X19010515Y20492781D01*
X19010515Y20492781D02*
X18829087Y20492781D01*
X18829087Y20492781D02*
X18756515Y20529066D01*
X18756515Y20529066D02*
X18720229Y20565352D01*
X43528343Y9688278D02*
X44036343Y8926278D01*
X44036343Y9688278D02*
X43528343Y8926278D01*
X44725771Y8926278D02*
X44290342Y8926278D01*
X44508057Y8926278D02*
X44508057Y9688278D01*
X44508057Y9688278D02*
X44435485Y9579421D01*
X44435485Y9579421D02*
X44362914Y9506849D01*
X44362914Y9506849D02*
X44290342Y9470563D01*
X29506944Y4191852D02*
X29470658Y4155566D01*
X29470658Y4155566D02*
X29361801Y4119281D01*
X29361801Y4119281D02*
X29289229Y4119281D01*
X29289229Y4119281D02*
X29180372Y4155566D01*
X29180372Y4155566D02*
X29107801Y4228138D01*
X29107801Y4228138D02*
X29071515Y4300709D01*
X29071515Y4300709D02*
X29035229Y4445852D01*
X29035229Y4445852D02*
X29035229Y4554709D01*
X29035229Y4554709D02*
X29071515Y4699852D01*
X29071515Y4699852D02*
X29107801Y4772424D01*
X29107801Y4772424D02*
X29180372Y4844995D01*
X29180372Y4844995D02*
X29289229Y4881281D01*
X29289229Y4881281D02*
X29361801Y4881281D01*
X29361801Y4881281D02*
X29470658Y4844995D01*
X29470658Y4844995D02*
X29506944Y4808709D01*
X30232658Y4119281D02*
X29797229Y4119281D01*
X30014944Y4119281D02*
X30014944Y4881281D01*
X30014944Y4881281D02*
X29942372Y4772424D01*
X29942372Y4772424D02*
X29869801Y4699852D01*
X29869801Y4699852D02*
X29797229Y4663566D01*
X30958372Y4119281D02*
X30522943Y4119281D01*
X30740658Y4119281D02*
X30740658Y4881281D01*
X30740658Y4881281D02*
X30668086Y4772424D01*
X30668086Y4772424D02*
X30595515Y4699852D01*
X30595515Y4699852D02*
X30522943Y4663566D01*
X18212229Y28068890D02*
X18212229Y27452033D01*
X18212229Y27452033D02*
X18248515Y27379461D01*
X18248515Y27379461D02*
X18284801Y27343175D01*
X18284801Y27343175D02*
X18357372Y27306890D01*
X18357372Y27306890D02*
X18502515Y27306890D01*
X18502515Y27306890D02*
X18575086Y27343175D01*
X18575086Y27343175D02*
X18611372Y27379461D01*
X18611372Y27379461D02*
X18647658Y27452033D01*
X18647658Y27452033D02*
X18647658Y28068890D01*
X19337087Y27814890D02*
X19337087Y27306890D01*
X19155658Y28105175D02*
X18974229Y27560890D01*
X18974229Y27560890D02*
X19445944Y27560890D01*
X13665200Y27007449D02*
X13628914Y26971163D01*
X13628914Y26971163D02*
X13520057Y26934878D01*
X13520057Y26934878D02*
X13447485Y26934878D01*
X13447485Y26934878D02*
X13338628Y26971163D01*
X13338628Y26971163D02*
X13266057Y27043735D01*
X13266057Y27043735D02*
X13229771Y27116306D01*
X13229771Y27116306D02*
X13193485Y27261449D01*
X13193485Y27261449D02*
X13193485Y27370306D01*
X13193485Y27370306D02*
X13229771Y27515449D01*
X13229771Y27515449D02*
X13266057Y27588021D01*
X13266057Y27588021D02*
X13338628Y27660592D01*
X13338628Y27660592D02*
X13447485Y27696878D01*
X13447485Y27696878D02*
X13520057Y27696878D01*
X13520057Y27696878D02*
X13628914Y27660592D01*
X13628914Y27660592D02*
X13665200Y27624306D01*
X14318343Y27442878D02*
X14318343Y26934878D01*
X14136914Y27733163D02*
X13955485Y27188878D01*
X13955485Y27188878D02*
X14427200Y27188878D01*
X75608539Y5402944D02*
X75644825Y5366658D01*
X75644825Y5366658D02*
X75681110Y5257801D01*
X75681110Y5257801D02*
X75681110Y5185229D01*
X75681110Y5185229D02*
X75644825Y5076372D01*
X75644825Y5076372D02*
X75572253Y5003801D01*
X75572253Y5003801D02*
X75499682Y4967515D01*
X75499682Y4967515D02*
X75354539Y4931229D01*
X75354539Y4931229D02*
X75245682Y4931229D01*
X75245682Y4931229D02*
X75100539Y4967515D01*
X75100539Y4967515D02*
X75027967Y5003801D01*
X75027967Y5003801D02*
X74955396Y5076372D01*
X74955396Y5076372D02*
X74919110Y5185229D01*
X74919110Y5185229D02*
X74919110Y5257801D01*
X74919110Y5257801D02*
X74955396Y5366658D01*
X74955396Y5366658D02*
X74991682Y5402944D01*
X75681110Y6128658D02*
X75681110Y5693229D01*
X75681110Y5910944D02*
X74919110Y5910944D01*
X74919110Y5910944D02*
X75027967Y5838372D01*
X75027967Y5838372D02*
X75100539Y5765801D01*
X75100539Y5765801D02*
X75136825Y5693229D01*
X74919110Y6818086D02*
X74919110Y6455229D01*
X74919110Y6455229D02*
X75281967Y6418943D01*
X75281967Y6418943D02*
X75245682Y6455229D01*
X75245682Y6455229D02*
X75209396Y6527800D01*
X75209396Y6527800D02*
X75209396Y6709229D01*
X75209396Y6709229D02*
X75245682Y6781800D01*
X75245682Y6781800D02*
X75281967Y6818086D01*
X75281967Y6818086D02*
X75354539Y6854372D01*
X75354539Y6854372D02*
X75535967Y6854372D01*
X75535967Y6854372D02*
X75608539Y6818086D01*
X75608539Y6818086D02*
X75644825Y6781800D01*
X75644825Y6781800D02*
X75681110Y6709229D01*
X75681110Y6709229D02*
X75681110Y6527800D01*
X75681110Y6527800D02*
X75644825Y6455229D01*
X75644825Y6455229D02*
X75608539Y6418943D01*
X74567143Y9481449D02*
X74530857Y9445163D01*
X74530857Y9445163D02*
X74422000Y9408878D01*
X74422000Y9408878D02*
X74349428Y9408878D01*
X74349428Y9408878D02*
X74240571Y9445163D01*
X74240571Y9445163D02*
X74168000Y9517735D01*
X74168000Y9517735D02*
X74131714Y9590306D01*
X74131714Y9590306D02*
X74095428Y9735449D01*
X74095428Y9735449D02*
X74095428Y9844306D01*
X74095428Y9844306D02*
X74131714Y9989449D01*
X74131714Y9989449D02*
X74168000Y10062021D01*
X74168000Y10062021D02*
X74240571Y10134592D01*
X74240571Y10134592D02*
X74349428Y10170878D01*
X74349428Y10170878D02*
X74422000Y10170878D01*
X74422000Y10170878D02*
X74530857Y10134592D01*
X74530857Y10134592D02*
X74567143Y10098306D01*
X75292857Y9408878D02*
X74857428Y9408878D01*
X75075143Y9408878D02*
X75075143Y10170878D01*
X75075143Y10170878D02*
X75002571Y10062021D01*
X75002571Y10062021D02*
X74930000Y9989449D01*
X74930000Y9989449D02*
X74857428Y9953163D01*
X75946000Y10170878D02*
X75800857Y10170878D01*
X75800857Y10170878D02*
X75728285Y10134592D01*
X75728285Y10134592D02*
X75692000Y10098306D01*
X75692000Y10098306D02*
X75619428Y9989449D01*
X75619428Y9989449D02*
X75583142Y9844306D01*
X75583142Y9844306D02*
X75583142Y9554021D01*
X75583142Y9554021D02*
X75619428Y9481449D01*
X75619428Y9481449D02*
X75655714Y9445163D01*
X75655714Y9445163D02*
X75728285Y9408878D01*
X75728285Y9408878D02*
X75873428Y9408878D01*
X75873428Y9408878D02*
X75946000Y9445163D01*
X75946000Y9445163D02*
X75982285Y9481449D01*
X75982285Y9481449D02*
X76018571Y9554021D01*
X76018571Y9554021D02*
X76018571Y9735449D01*
X76018571Y9735449D02*
X75982285Y9808021D01*
X75982285Y9808021D02*
X75946000Y9844306D01*
X75946000Y9844306D02*
X75873428Y9880592D01*
X75873428Y9880592D02*
X75728285Y9880592D01*
X75728285Y9880592D02*
X75655714Y9844306D01*
X75655714Y9844306D02*
X75619428Y9808021D01*
X75619428Y9808021D02*
X75583142Y9735449D01*
X38330747Y4191852D02*
X38294461Y4155566D01*
X38294461Y4155566D02*
X38185604Y4119281D01*
X38185604Y4119281D02*
X38113032Y4119281D01*
X38113032Y4119281D02*
X38004175Y4155566D01*
X38004175Y4155566D02*
X37931604Y4228138D01*
X37931604Y4228138D02*
X37895318Y4300709D01*
X37895318Y4300709D02*
X37859032Y4445852D01*
X37859032Y4445852D02*
X37859032Y4554709D01*
X37859032Y4554709D02*
X37895318Y4699852D01*
X37895318Y4699852D02*
X37931604Y4772424D01*
X37931604Y4772424D02*
X38004175Y4844995D01*
X38004175Y4844995D02*
X38113032Y4881281D01*
X38113032Y4881281D02*
X38185604Y4881281D01*
X38185604Y4881281D02*
X38294461Y4844995D01*
X38294461Y4844995D02*
X38330747Y4808709D01*
X39056461Y4119281D02*
X38621032Y4119281D01*
X38838747Y4119281D02*
X38838747Y4881281D01*
X38838747Y4881281D02*
X38766175Y4772424D01*
X38766175Y4772424D02*
X38693604Y4699852D01*
X38693604Y4699852D02*
X38621032Y4663566D01*
X39346746Y4808709D02*
X39383032Y4844995D01*
X39383032Y4844995D02*
X39455604Y4881281D01*
X39455604Y4881281D02*
X39637032Y4881281D01*
X39637032Y4881281D02*
X39709604Y4844995D01*
X39709604Y4844995D02*
X39745889Y4808709D01*
X39745889Y4808709D02*
X39782175Y4736138D01*
X39782175Y4736138D02*
X39782175Y4663566D01*
X39782175Y4663566D02*
X39745889Y4554709D01*
X39745889Y4554709D02*
X39310461Y4119281D01*
X39310461Y4119281D02*
X39782175Y4119281D01*
X13639800Y35237049D02*
X13603514Y35200763D01*
X13603514Y35200763D02*
X13494657Y35164478D01*
X13494657Y35164478D02*
X13422085Y35164478D01*
X13422085Y35164478D02*
X13313228Y35200763D01*
X13313228Y35200763D02*
X13240657Y35273335D01*
X13240657Y35273335D02*
X13204371Y35345906D01*
X13204371Y35345906D02*
X13168085Y35491049D01*
X13168085Y35491049D02*
X13168085Y35599906D01*
X13168085Y35599906D02*
X13204371Y35745049D01*
X13204371Y35745049D02*
X13240657Y35817621D01*
X13240657Y35817621D02*
X13313228Y35890192D01*
X13313228Y35890192D02*
X13422085Y35926478D01*
X13422085Y35926478D02*
X13494657Y35926478D01*
X13494657Y35926478D02*
X13603514Y35890192D01*
X13603514Y35890192D02*
X13639800Y35853906D01*
X13893800Y35926478D02*
X14365514Y35926478D01*
X14365514Y35926478D02*
X14111514Y35636192D01*
X14111514Y35636192D02*
X14220371Y35636192D01*
X14220371Y35636192D02*
X14292943Y35599906D01*
X14292943Y35599906D02*
X14329228Y35563621D01*
X14329228Y35563621D02*
X14365514Y35491049D01*
X14365514Y35491049D02*
X14365514Y35309621D01*
X14365514Y35309621D02*
X14329228Y35237049D01*
X14329228Y35237049D02*
X14292943Y35200763D01*
X14292943Y35200763D02*
X14220371Y35164478D01*
X14220371Y35164478D02*
X14002657Y35164478D01*
X14002657Y35164478D02*
X13930085Y35200763D01*
X13930085Y35200763D02*
X13893800Y35237049D01*
X64005950Y5405935D02*
X64042236Y5369649D01*
X64042236Y5369649D02*
X64078521Y5260792D01*
X64078521Y5260792D02*
X64078521Y5188220D01*
X64078521Y5188220D02*
X64042236Y5079363D01*
X64042236Y5079363D02*
X63969664Y5006792D01*
X63969664Y5006792D02*
X63897093Y4970506D01*
X63897093Y4970506D02*
X63751950Y4934220D01*
X63751950Y4934220D02*
X63643093Y4934220D01*
X63643093Y4934220D02*
X63497950Y4970506D01*
X63497950Y4970506D02*
X63425378Y5006792D01*
X63425378Y5006792D02*
X63352807Y5079363D01*
X63352807Y5079363D02*
X63316521Y5188220D01*
X63316521Y5188220D02*
X63316521Y5260792D01*
X63316521Y5260792D02*
X63352807Y5369649D01*
X63352807Y5369649D02*
X63389093Y5405935D01*
X64078521Y6131649D02*
X64078521Y5696220D01*
X64078521Y5913935D02*
X63316521Y5913935D01*
X63316521Y5913935D02*
X63425378Y5841363D01*
X63425378Y5841363D02*
X63497950Y5768792D01*
X63497950Y5768792D02*
X63534236Y5696220D01*
X63570521Y6784791D02*
X64078521Y6784791D01*
X63280236Y6603363D02*
X63824521Y6421934D01*
X63824521Y6421934D02*
X63824521Y6893649D01*
X12116229Y22016781D02*
X12116229Y21399924D01*
X12116229Y21399924D02*
X12152515Y21327352D01*
X12152515Y21327352D02*
X12188801Y21291066D01*
X12188801Y21291066D02*
X12261372Y21254781D01*
X12261372Y21254781D02*
X12406515Y21254781D01*
X12406515Y21254781D02*
X12479086Y21291066D01*
X12479086Y21291066D02*
X12515372Y21327352D01*
X12515372Y21327352D02*
X12551658Y21399924D01*
X12551658Y21399924D02*
X12551658Y22016781D01*
X12878229Y21944209D02*
X12914515Y21980495D01*
X12914515Y21980495D02*
X12987087Y22016781D01*
X12987087Y22016781D02*
X13168515Y22016781D01*
X13168515Y22016781D02*
X13241087Y21980495D01*
X13241087Y21980495D02*
X13277372Y21944209D01*
X13277372Y21944209D02*
X13313658Y21871638D01*
X13313658Y21871638D02*
X13313658Y21799066D01*
X13313658Y21799066D02*
X13277372Y21690209D01*
X13277372Y21690209D02*
X12841944Y21254781D01*
X12841944Y21254781D02*
X13313658Y21254781D01*
X33800143Y5598878D02*
X33546143Y5961735D01*
X33364714Y5598878D02*
X33364714Y6360878D01*
X33364714Y6360878D02*
X33655000Y6360878D01*
X33655000Y6360878D02*
X33727571Y6324592D01*
X33727571Y6324592D02*
X33763857Y6288306D01*
X33763857Y6288306D02*
X33800143Y6215735D01*
X33800143Y6215735D02*
X33800143Y6106878D01*
X33800143Y6106878D02*
X33763857Y6034306D01*
X33763857Y6034306D02*
X33727571Y5998021D01*
X33727571Y5998021D02*
X33655000Y5961735D01*
X33655000Y5961735D02*
X33364714Y5961735D01*
X34090428Y6288306D02*
X34126714Y6324592D01*
X34126714Y6324592D02*
X34199286Y6360878D01*
X34199286Y6360878D02*
X34380714Y6360878D01*
X34380714Y6360878D02*
X34453286Y6324592D01*
X34453286Y6324592D02*
X34489571Y6288306D01*
X34489571Y6288306D02*
X34525857Y6215735D01*
X34525857Y6215735D02*
X34525857Y6143163D01*
X34525857Y6143163D02*
X34489571Y6034306D01*
X34489571Y6034306D02*
X34054143Y5598878D01*
X34054143Y5598878D02*
X34525857Y5598878D01*
X34997571Y6360878D02*
X35070142Y6360878D01*
X35070142Y6360878D02*
X35142714Y6324592D01*
X35142714Y6324592D02*
X35179000Y6288306D01*
X35179000Y6288306D02*
X35215285Y6215735D01*
X35215285Y6215735D02*
X35251571Y6070592D01*
X35251571Y6070592D02*
X35251571Y5889163D01*
X35251571Y5889163D02*
X35215285Y5744021D01*
X35215285Y5744021D02*
X35179000Y5671449D01*
X35179000Y5671449D02*
X35142714Y5635163D01*
X35142714Y5635163D02*
X35070142Y5598878D01*
X35070142Y5598878D02*
X34997571Y5598878D01*
X34997571Y5598878D02*
X34925000Y5635163D01*
X34925000Y5635163D02*
X34888714Y5671449D01*
X34888714Y5671449D02*
X34852428Y5744021D01*
X34852428Y5744021D02*
X34816142Y5889163D01*
X34816142Y5889163D02*
X34816142Y6070592D01*
X34816142Y6070592D02*
X34852428Y6215735D01*
X34852428Y6215735D02*
X34888714Y6288306D01*
X34888714Y6288306D02*
X34925000Y6324592D01*
X34925000Y6324592D02*
X34997571Y6360878D01*
X15381522Y36017201D02*
X15018665Y35763201D01*
X15381522Y35581772D02*
X14619522Y35581772D01*
X14619522Y35581772D02*
X14619522Y35872058D01*
X14619522Y35872058D02*
X14655808Y35944629D01*
X14655808Y35944629D02*
X14692094Y35980915D01*
X14692094Y35980915D02*
X14764665Y36017201D01*
X14764665Y36017201D02*
X14873522Y36017201D01*
X14873522Y36017201D02*
X14946094Y35980915D01*
X14946094Y35980915D02*
X14982379Y35944629D01*
X14982379Y35944629D02*
X15018665Y35872058D01*
X15018665Y35872058D02*
X15018665Y35581772D01*
X14619522Y36706629D02*
X14619522Y36343772D01*
X14619522Y36343772D02*
X14982379Y36307486D01*
X14982379Y36307486D02*
X14946094Y36343772D01*
X14946094Y36343772D02*
X14909808Y36416343D01*
X14909808Y36416343D02*
X14909808Y36597772D01*
X14909808Y36597772D02*
X14946094Y36670343D01*
X14946094Y36670343D02*
X14982379Y36706629D01*
X14982379Y36706629D02*
X15054951Y36742915D01*
X15054951Y36742915D02*
X15236379Y36742915D01*
X15236379Y36742915D02*
X15308951Y36706629D01*
X15308951Y36706629D02*
X15345237Y36670343D01*
X15345237Y36670343D02*
X15381522Y36597772D01*
X15381522Y36597772D02*
X15381522Y36416343D01*
X15381522Y36416343D02*
X15345237Y36343772D01*
X15345237Y36343772D02*
X15308951Y36307486D01*
X74567143Y17714678D02*
X74313143Y18077535D01*
X74131714Y17714678D02*
X74131714Y18476678D01*
X74131714Y18476678D02*
X74422000Y18476678D01*
X74422000Y18476678D02*
X74494571Y18440392D01*
X74494571Y18440392D02*
X74530857Y18404106D01*
X74530857Y18404106D02*
X74567143Y18331535D01*
X74567143Y18331535D02*
X74567143Y18222678D01*
X74567143Y18222678D02*
X74530857Y18150106D01*
X74530857Y18150106D02*
X74494571Y18113821D01*
X74494571Y18113821D02*
X74422000Y18077535D01*
X74422000Y18077535D02*
X74131714Y18077535D01*
X75292857Y17714678D02*
X74857428Y17714678D01*
X75075143Y17714678D02*
X75075143Y18476678D01*
X75075143Y18476678D02*
X75002571Y18367821D01*
X75002571Y18367821D02*
X74930000Y18295249D01*
X74930000Y18295249D02*
X74857428Y18258963D01*
X75764571Y18476678D02*
X75837142Y18476678D01*
X75837142Y18476678D02*
X75909714Y18440392D01*
X75909714Y18440392D02*
X75946000Y18404106D01*
X75946000Y18404106D02*
X75982285Y18331535D01*
X75982285Y18331535D02*
X76018571Y18186392D01*
X76018571Y18186392D02*
X76018571Y18004963D01*
X76018571Y18004963D02*
X75982285Y17859821D01*
X75982285Y17859821D02*
X75946000Y17787249D01*
X75946000Y17787249D02*
X75909714Y17750963D01*
X75909714Y17750963D02*
X75837142Y17714678D01*
X75837142Y17714678D02*
X75764571Y17714678D01*
X75764571Y17714678D02*
X75692000Y17750963D01*
X75692000Y17750963D02*
X75655714Y17787249D01*
X75655714Y17787249D02*
X75619428Y17859821D01*
X75619428Y17859821D02*
X75583142Y18004963D01*
X75583142Y18004963D02*
X75583142Y18186392D01*
X75583142Y18186392D02*
X75619428Y18331535D01*
X75619428Y18331535D02*
X75655714Y18404106D01*
X75655714Y18404106D02*
X75692000Y18440392D01*
X75692000Y18440392D02*
X75764571Y18476678D01*
X65405000Y18171878D02*
X65151000Y18534735D01*
X64969571Y18171878D02*
X64969571Y18933878D01*
X64969571Y18933878D02*
X65259857Y18933878D01*
X65259857Y18933878D02*
X65332428Y18897592D01*
X65332428Y18897592D02*
X65368714Y18861306D01*
X65368714Y18861306D02*
X65405000Y18788735D01*
X65405000Y18788735D02*
X65405000Y18679878D01*
X65405000Y18679878D02*
X65368714Y18607306D01*
X65368714Y18607306D02*
X65332428Y18571021D01*
X65332428Y18571021D02*
X65259857Y18534735D01*
X65259857Y18534735D02*
X64969571Y18534735D01*
X65840428Y18607306D02*
X65767857Y18643592D01*
X65767857Y18643592D02*
X65731571Y18679878D01*
X65731571Y18679878D02*
X65695285Y18752449D01*
X65695285Y18752449D02*
X65695285Y18788735D01*
X65695285Y18788735D02*
X65731571Y18861306D01*
X65731571Y18861306D02*
X65767857Y18897592D01*
X65767857Y18897592D02*
X65840428Y18933878D01*
X65840428Y18933878D02*
X65985571Y18933878D01*
X65985571Y18933878D02*
X66058143Y18897592D01*
X66058143Y18897592D02*
X66094428Y18861306D01*
X66094428Y18861306D02*
X66130714Y18788735D01*
X66130714Y18788735D02*
X66130714Y18752449D01*
X66130714Y18752449D02*
X66094428Y18679878D01*
X66094428Y18679878D02*
X66058143Y18643592D01*
X66058143Y18643592D02*
X65985571Y18607306D01*
X65985571Y18607306D02*
X65840428Y18607306D01*
X65840428Y18607306D02*
X65767857Y18571021D01*
X65767857Y18571021D02*
X65731571Y18534735D01*
X65731571Y18534735D02*
X65695285Y18462163D01*
X65695285Y18462163D02*
X65695285Y18317021D01*
X65695285Y18317021D02*
X65731571Y18244449D01*
X65731571Y18244449D02*
X65767857Y18208163D01*
X65767857Y18208163D02*
X65840428Y18171878D01*
X65840428Y18171878D02*
X65985571Y18171878D01*
X65985571Y18171878D02*
X66058143Y18208163D01*
X66058143Y18208163D02*
X66094428Y18244449D01*
X66094428Y18244449D02*
X66130714Y18317021D01*
X66130714Y18317021D02*
X66130714Y18462163D01*
X66130714Y18462163D02*
X66094428Y18534735D01*
X66094428Y18534735D02*
X66058143Y18571021D01*
X66058143Y18571021D02*
X65985571Y18607306D01*
X21971000Y4191852D02*
X21934714Y4155566D01*
X21934714Y4155566D02*
X21825857Y4119281D01*
X21825857Y4119281D02*
X21753285Y4119281D01*
X21753285Y4119281D02*
X21644428Y4155566D01*
X21644428Y4155566D02*
X21571857Y4228138D01*
X21571857Y4228138D02*
X21535571Y4300709D01*
X21535571Y4300709D02*
X21499285Y4445852D01*
X21499285Y4445852D02*
X21499285Y4554709D01*
X21499285Y4554709D02*
X21535571Y4699852D01*
X21535571Y4699852D02*
X21571857Y4772424D01*
X21571857Y4772424D02*
X21644428Y4844995D01*
X21644428Y4844995D02*
X21753285Y4881281D01*
X21753285Y4881281D02*
X21825857Y4881281D01*
X21825857Y4881281D02*
X21934714Y4844995D01*
X21934714Y4844995D02*
X21971000Y4808709D01*
X22225000Y4881281D02*
X22733000Y4881281D01*
X22733000Y4881281D02*
X22406428Y4119281D01*
X79349600Y4411878D02*
X79349600Y3867592D01*
X79349600Y3867592D02*
X79313315Y3758735D01*
X79313315Y3758735D02*
X79240743Y3686163D01*
X79240743Y3686163D02*
X79131886Y3649878D01*
X79131886Y3649878D02*
X79059315Y3649878D01*
X79639886Y4411878D02*
X80111600Y4411878D01*
X80111600Y4411878D02*
X79857600Y4121592D01*
X79857600Y4121592D02*
X79966457Y4121592D01*
X79966457Y4121592D02*
X80039029Y4085306D01*
X80039029Y4085306D02*
X80075314Y4049021D01*
X80075314Y4049021D02*
X80111600Y3976449D01*
X80111600Y3976449D02*
X80111600Y3795021D01*
X80111600Y3795021D02*
X80075314Y3722449D01*
X80075314Y3722449D02*
X80039029Y3686163D01*
X80039029Y3686163D02*
X79966457Y3649878D01*
X79966457Y3649878D02*
X79748743Y3649878D01*
X79748743Y3649878D02*
X79676171Y3686163D01*
X79676171Y3686163D02*
X79639886Y3722449D01*
X66105322Y12547601D02*
X65742465Y12293601D01*
X66105322Y12112172D02*
X65343322Y12112172D01*
X65343322Y12112172D02*
X65343322Y12402458D01*
X65343322Y12402458D02*
X65379608Y12475029D01*
X65379608Y12475029D02*
X65415894Y12511315D01*
X65415894Y12511315D02*
X65488465Y12547601D01*
X65488465Y12547601D02*
X65597322Y12547601D01*
X65597322Y12547601D02*
X65669894Y12511315D01*
X65669894Y12511315D02*
X65706179Y12475029D01*
X65706179Y12475029D02*
X65742465Y12402458D01*
X65742465Y12402458D02*
X65742465Y12112172D01*
X66105322Y12910458D02*
X66105322Y13055601D01*
X66105322Y13055601D02*
X66069037Y13128172D01*
X66069037Y13128172D02*
X66032751Y13164458D01*
X66032751Y13164458D02*
X65923894Y13237029D01*
X65923894Y13237029D02*
X65778751Y13273315D01*
X65778751Y13273315D02*
X65488465Y13273315D01*
X65488465Y13273315D02*
X65415894Y13237029D01*
X65415894Y13237029D02*
X65379608Y13200743D01*
X65379608Y13200743D02*
X65343322Y13128172D01*
X65343322Y13128172D02*
X65343322Y12983029D01*
X65343322Y12983029D02*
X65379608Y12910458D01*
X65379608Y12910458D02*
X65415894Y12874172D01*
X65415894Y12874172D02*
X65488465Y12837886D01*
X65488465Y12837886D02*
X65669894Y12837886D01*
X65669894Y12837886D02*
X65742465Y12874172D01*
X65742465Y12874172D02*
X65778751Y12910458D01*
X65778751Y12910458D02*
X65815037Y12983029D01*
X65815037Y12983029D02*
X65815037Y13128172D01*
X65815037Y13128172D02*
X65778751Y13200743D01*
X65778751Y13200743D02*
X65742465Y13237029D01*
X65742465Y13237029D02*
X65669894Y13273315D01*
X76116543Y13549078D02*
X75862543Y13911935D01*
X75681114Y13549078D02*
X75681114Y14311078D01*
X75681114Y14311078D02*
X75971400Y14311078D01*
X75971400Y14311078D02*
X76043971Y14274792D01*
X76043971Y14274792D02*
X76080257Y14238506D01*
X76080257Y14238506D02*
X76116543Y14165935D01*
X76116543Y14165935D02*
X76116543Y14057078D01*
X76116543Y14057078D02*
X76080257Y13984506D01*
X76080257Y13984506D02*
X76043971Y13948221D01*
X76043971Y13948221D02*
X75971400Y13911935D01*
X75971400Y13911935D02*
X75681114Y13911935D01*
X76842257Y13549078D02*
X76406828Y13549078D01*
X76624543Y13549078D02*
X76624543Y14311078D01*
X76624543Y14311078D02*
X76551971Y14202221D01*
X76551971Y14202221D02*
X76479400Y14129649D01*
X76479400Y14129649D02*
X76406828Y14093363D01*
X77132542Y14238506D02*
X77168828Y14274792D01*
X77168828Y14274792D02*
X77241400Y14311078D01*
X77241400Y14311078D02*
X77422828Y14311078D01*
X77422828Y14311078D02*
X77495400Y14274792D01*
X77495400Y14274792D02*
X77531685Y14238506D01*
X77531685Y14238506D02*
X77567971Y14165935D01*
X77567971Y14165935D02*
X77567971Y14093363D01*
X77567971Y14093363D02*
X77531685Y13984506D01*
X77531685Y13984506D02*
X77096257Y13549078D01*
X77096257Y13549078D02*
X77567971Y13549078D01*
X1317122Y32004001D02*
X954265Y31750001D01*
X1317122Y31568572D02*
X555122Y31568572D01*
X555122Y31568572D02*
X555122Y31858858D01*
X555122Y31858858D02*
X591408Y31931429D01*
X591408Y31931429D02*
X627694Y31967715D01*
X627694Y31967715D02*
X700265Y32004001D01*
X700265Y32004001D02*
X809122Y32004001D01*
X809122Y32004001D02*
X881694Y31967715D01*
X881694Y31967715D02*
X917979Y31931429D01*
X917979Y31931429D02*
X954265Y31858858D01*
X954265Y31858858D02*
X954265Y31568572D01*
X555122Y32258001D02*
X555122Y32729715D01*
X555122Y32729715D02*
X845408Y32475715D01*
X845408Y32475715D02*
X845408Y32584572D01*
X845408Y32584572D02*
X881694Y32657143D01*
X881694Y32657143D02*
X917979Y32693429D01*
X917979Y32693429D02*
X990551Y32729715D01*
X990551Y32729715D02*
X1171979Y32729715D01*
X1171979Y32729715D02*
X1244551Y32693429D01*
X1244551Y32693429D02*
X1280837Y32657143D01*
X1280837Y32657143D02*
X1317122Y32584572D01*
X1317122Y32584572D02*
X1317122Y32366858D01*
X1317122Y32366858D02*
X1280837Y32294286D01*
X1280837Y32294286D02*
X1244551Y32258001D01*
X10719229Y5252781D02*
X10719229Y4635924D01*
X10719229Y4635924D02*
X10755515Y4563352D01*
X10755515Y4563352D02*
X10791801Y4527066D01*
X10791801Y4527066D02*
X10864372Y4490781D01*
X10864372Y4490781D02*
X11009515Y4490781D01*
X11009515Y4490781D02*
X11082086Y4527066D01*
X11082086Y4527066D02*
X11118372Y4563352D01*
X11118372Y4563352D02*
X11154658Y4635924D01*
X11154658Y4635924D02*
X11154658Y5252781D01*
X11444944Y5252781D02*
X11916658Y5252781D01*
X11916658Y5252781D02*
X11662658Y4962495D01*
X11662658Y4962495D02*
X11771515Y4962495D01*
X11771515Y4962495D02*
X11844087Y4926209D01*
X11844087Y4926209D02*
X11880372Y4889924D01*
X11880372Y4889924D02*
X11916658Y4817352D01*
X11916658Y4817352D02*
X11916658Y4635924D01*
X11916658Y4635924D02*
X11880372Y4563352D01*
X11880372Y4563352D02*
X11844087Y4527066D01*
X11844087Y4527066D02*
X11771515Y4490781D01*
X11771515Y4490781D02*
X11553801Y4490781D01*
X11553801Y4490781D02*
X11481229Y4527066D01*
X11481229Y4527066D02*
X11444944Y4563352D01*
X1317122Y35052001D02*
X954265Y34798001D01*
X1317122Y34616572D02*
X555122Y34616572D01*
X555122Y34616572D02*
X555122Y34906858D01*
X555122Y34906858D02*
X591408Y34979429D01*
X591408Y34979429D02*
X627694Y35015715D01*
X627694Y35015715D02*
X700265Y35052001D01*
X700265Y35052001D02*
X809122Y35052001D01*
X809122Y35052001D02*
X881694Y35015715D01*
X881694Y35015715D02*
X917979Y34979429D01*
X917979Y34979429D02*
X954265Y34906858D01*
X954265Y34906858D02*
X954265Y34616572D01*
X1317122Y35777715D02*
X1317122Y35342286D01*
X1317122Y35560001D02*
X555122Y35560001D01*
X555122Y35560001D02*
X663979Y35487429D01*
X663979Y35487429D02*
X736551Y35414858D01*
X736551Y35414858D02*
X772837Y35342286D01*
X10236200Y22666752D02*
X10199914Y22630466D01*
X10199914Y22630466D02*
X10091057Y22594181D01*
X10091057Y22594181D02*
X10018485Y22594181D01*
X10018485Y22594181D02*
X9909628Y22630466D01*
X9909628Y22630466D02*
X9837057Y22703038D01*
X9837057Y22703038D02*
X9800771Y22775609D01*
X9800771Y22775609D02*
X9764485Y22920752D01*
X9764485Y22920752D02*
X9764485Y23029609D01*
X9764485Y23029609D02*
X9800771Y23174752D01*
X9800771Y23174752D02*
X9837057Y23247324D01*
X9837057Y23247324D02*
X9909628Y23319895D01*
X9909628Y23319895D02*
X10018485Y23356181D01*
X10018485Y23356181D02*
X10091057Y23356181D01*
X10091057Y23356181D02*
X10199914Y23319895D01*
X10199914Y23319895D02*
X10236200Y23283609D01*
X10526485Y23283609D02*
X10562771Y23319895D01*
X10562771Y23319895D02*
X10635343Y23356181D01*
X10635343Y23356181D02*
X10816771Y23356181D01*
X10816771Y23356181D02*
X10889343Y23319895D01*
X10889343Y23319895D02*
X10925628Y23283609D01*
X10925628Y23283609D02*
X10961914Y23211038D01*
X10961914Y23211038D02*
X10961914Y23138466D01*
X10961914Y23138466D02*
X10925628Y23029609D01*
X10925628Y23029609D02*
X10490200Y22594181D01*
X10490200Y22594181D02*
X10961914Y22594181D01*
X21015195Y20626953D02*
X20978909Y20590667D01*
X20978909Y20590667D02*
X20870052Y20554382D01*
X20870052Y20554382D02*
X20797480Y20554382D01*
X20797480Y20554382D02*
X20688623Y20590667D01*
X20688623Y20590667D02*
X20616052Y20663239D01*
X20616052Y20663239D02*
X20579766Y20735810D01*
X20579766Y20735810D02*
X20543480Y20880953D01*
X20543480Y20880953D02*
X20543480Y20989810D01*
X20543480Y20989810D02*
X20579766Y21134953D01*
X20579766Y21134953D02*
X20616052Y21207525D01*
X20616052Y21207525D02*
X20688623Y21280096D01*
X20688623Y21280096D02*
X20797480Y21316382D01*
X20797480Y21316382D02*
X20870052Y21316382D01*
X20870052Y21316382D02*
X20978909Y21280096D01*
X20978909Y21280096D02*
X21015195Y21243810D01*
X21450623Y20989810D02*
X21378052Y21026096D01*
X21378052Y21026096D02*
X21341766Y21062382D01*
X21341766Y21062382D02*
X21305480Y21134953D01*
X21305480Y21134953D02*
X21305480Y21171239D01*
X21305480Y21171239D02*
X21341766Y21243810D01*
X21341766Y21243810D02*
X21378052Y21280096D01*
X21378052Y21280096D02*
X21450623Y21316382D01*
X21450623Y21316382D02*
X21595766Y21316382D01*
X21595766Y21316382D02*
X21668338Y21280096D01*
X21668338Y21280096D02*
X21704623Y21243810D01*
X21704623Y21243810D02*
X21740909Y21171239D01*
X21740909Y21171239D02*
X21740909Y21134953D01*
X21740909Y21134953D02*
X21704623Y21062382D01*
X21704623Y21062382D02*
X21668338Y21026096D01*
X21668338Y21026096D02*
X21595766Y20989810D01*
X21595766Y20989810D02*
X21450623Y20989810D01*
X21450623Y20989810D02*
X21378052Y20953525D01*
X21378052Y20953525D02*
X21341766Y20917239D01*
X21341766Y20917239D02*
X21305480Y20844667D01*
X21305480Y20844667D02*
X21305480Y20699525D01*
X21305480Y20699525D02*
X21341766Y20626953D01*
X21341766Y20626953D02*
X21378052Y20590667D01*
X21378052Y20590667D02*
X21450623Y20554382D01*
X21450623Y20554382D02*
X21595766Y20554382D01*
X21595766Y20554382D02*
X21668338Y20590667D01*
X21668338Y20590667D02*
X21704623Y20626953D01*
X21704623Y20626953D02*
X21740909Y20699525D01*
X21740909Y20699525D02*
X21740909Y20844667D01*
X21740909Y20844667D02*
X21704623Y20917239D01*
X21704623Y20917239D02*
X21668338Y20953525D01*
X21668338Y20953525D02*
X21595766Y20989810D01*
X60147200Y3668478D02*
X59893200Y4031335D01*
X59711771Y3668478D02*
X59711771Y4430478D01*
X59711771Y4430478D02*
X60002057Y4430478D01*
X60002057Y4430478D02*
X60074628Y4394192D01*
X60074628Y4394192D02*
X60110914Y4357906D01*
X60110914Y4357906D02*
X60147200Y4285335D01*
X60147200Y4285335D02*
X60147200Y4176478D01*
X60147200Y4176478D02*
X60110914Y4103906D01*
X60110914Y4103906D02*
X60074628Y4067621D01*
X60074628Y4067621D02*
X60002057Y4031335D01*
X60002057Y4031335D02*
X59711771Y4031335D01*
X60401200Y4430478D02*
X60909200Y4430478D01*
X60909200Y4430478D02*
X60582628Y3668478D01*
X47548429Y21712375D02*
X47548429Y21095518D01*
X47548429Y21095518D02*
X47584715Y21022946D01*
X47584715Y21022946D02*
X47621001Y20986660D01*
X47621001Y20986660D02*
X47693572Y20950375D01*
X47693572Y20950375D02*
X47838715Y20950375D01*
X47838715Y20950375D02*
X47911286Y20986660D01*
X47911286Y20986660D02*
X47947572Y21022946D01*
X47947572Y21022946D02*
X47983858Y21095518D01*
X47983858Y21095518D02*
X47983858Y21712375D01*
X48673287Y21712375D02*
X48528144Y21712375D01*
X48528144Y21712375D02*
X48455572Y21676089D01*
X48455572Y21676089D02*
X48419287Y21639803D01*
X48419287Y21639803D02*
X48346715Y21530946D01*
X48346715Y21530946D02*
X48310429Y21385803D01*
X48310429Y21385803D02*
X48310429Y21095518D01*
X48310429Y21095518D02*
X48346715Y21022946D01*
X48346715Y21022946D02*
X48383001Y20986660D01*
X48383001Y20986660D02*
X48455572Y20950375D01*
X48455572Y20950375D02*
X48600715Y20950375D01*
X48600715Y20950375D02*
X48673287Y20986660D01*
X48673287Y20986660D02*
X48709572Y21022946D01*
X48709572Y21022946D02*
X48745858Y21095518D01*
X48745858Y21095518D02*
X48745858Y21276946D01*
X48745858Y21276946D02*
X48709572Y21349518D01*
X48709572Y21349518D02*
X48673287Y21385803D01*
X48673287Y21385803D02*
X48600715Y21422089D01*
X48600715Y21422089D02*
X48455572Y21422089D01*
X48455572Y21422089D02*
X48383001Y21385803D01*
X48383001Y21385803D02*
X48346715Y21349518D01*
X48346715Y21349518D02*
X48310429Y21276946D01*
X76878543Y17717081D02*
X76624543Y18079938D01*
X76443114Y17717081D02*
X76443114Y18479081D01*
X76443114Y18479081D02*
X76733400Y18479081D01*
X76733400Y18479081D02*
X76805971Y18442795D01*
X76805971Y18442795D02*
X76842257Y18406509D01*
X76842257Y18406509D02*
X76878543Y18333938D01*
X76878543Y18333938D02*
X76878543Y18225081D01*
X76878543Y18225081D02*
X76842257Y18152509D01*
X76842257Y18152509D02*
X76805971Y18116224D01*
X76805971Y18116224D02*
X76733400Y18079938D01*
X76733400Y18079938D02*
X76443114Y18079938D01*
X77604257Y17717081D02*
X77168828Y17717081D01*
X77386543Y17717081D02*
X77386543Y18479081D01*
X77386543Y18479081D02*
X77313971Y18370224D01*
X77313971Y18370224D02*
X77241400Y18297652D01*
X77241400Y18297652D02*
X77168828Y18261366D01*
X78329971Y17717081D02*
X77894542Y17717081D01*
X78112257Y17717081D02*
X78112257Y18479081D01*
X78112257Y18479081D02*
X78039685Y18370224D01*
X78039685Y18370224D02*
X77967114Y18297652D01*
X77967114Y18297652D02*
X77894542Y18261366D01*
X25843004Y4191852D02*
X25806718Y4155566D01*
X25806718Y4155566D02*
X25697861Y4119281D01*
X25697861Y4119281D02*
X25625289Y4119281D01*
X25625289Y4119281D02*
X25516432Y4155566D01*
X25516432Y4155566D02*
X25443861Y4228138D01*
X25443861Y4228138D02*
X25407575Y4300709D01*
X25407575Y4300709D02*
X25371289Y4445852D01*
X25371289Y4445852D02*
X25371289Y4554709D01*
X25371289Y4554709D02*
X25407575Y4699852D01*
X25407575Y4699852D02*
X25443861Y4772424D01*
X25443861Y4772424D02*
X25516432Y4844995D01*
X25516432Y4844995D02*
X25625289Y4881281D01*
X25625289Y4881281D02*
X25697861Y4881281D01*
X25697861Y4881281D02*
X25806718Y4844995D01*
X25806718Y4844995D02*
X25843004Y4808709D01*
X26205861Y4119281D02*
X26351004Y4119281D01*
X26351004Y4119281D02*
X26423575Y4155566D01*
X26423575Y4155566D02*
X26459861Y4191852D01*
X26459861Y4191852D02*
X26532432Y4300709D01*
X26532432Y4300709D02*
X26568718Y4445852D01*
X26568718Y4445852D02*
X26568718Y4736138D01*
X26568718Y4736138D02*
X26532432Y4808709D01*
X26532432Y4808709D02*
X26496147Y4844995D01*
X26496147Y4844995D02*
X26423575Y4881281D01*
X26423575Y4881281D02*
X26278432Y4881281D01*
X26278432Y4881281D02*
X26205861Y4844995D01*
X26205861Y4844995D02*
X26169575Y4808709D01*
X26169575Y4808709D02*
X26133289Y4736138D01*
X26133289Y4736138D02*
X26133289Y4554709D01*
X26133289Y4554709D02*
X26169575Y4482138D01*
X26169575Y4482138D02*
X26205861Y4445852D01*
X26205861Y4445852D02*
X26278432Y4409566D01*
X26278432Y4409566D02*
X26423575Y4409566D01*
X26423575Y4409566D02*
X26496147Y4445852D01*
X26496147Y4445852D02*
X26532432Y4482138D01*
X26532432Y4482138D02*
X26568718Y4554709D01*
X69189229Y4135575D02*
X69189229Y3518718D01*
X69189229Y3518718D02*
X69225515Y3446146D01*
X69225515Y3446146D02*
X69261801Y3409860D01*
X69261801Y3409860D02*
X69334372Y3373575D01*
X69334372Y3373575D02*
X69479515Y3373575D01*
X69479515Y3373575D02*
X69552086Y3409860D01*
X69552086Y3409860D02*
X69588372Y3446146D01*
X69588372Y3446146D02*
X69624658Y3518718D01*
X69624658Y3518718D02*
X69624658Y4135575D01*
X69914944Y4135575D02*
X70422944Y4135575D01*
X70422944Y4135575D02*
X70096372Y3373575D01*
X22442722Y35991801D02*
X22079865Y35737801D01*
X22442722Y35556372D02*
X21680722Y35556372D01*
X21680722Y35556372D02*
X21680722Y35846658D01*
X21680722Y35846658D02*
X21717008Y35919229D01*
X21717008Y35919229D02*
X21753294Y35955515D01*
X21753294Y35955515D02*
X21825865Y35991801D01*
X21825865Y35991801D02*
X21934722Y35991801D01*
X21934722Y35991801D02*
X22007294Y35955515D01*
X22007294Y35955515D02*
X22043579Y35919229D01*
X22043579Y35919229D02*
X22079865Y35846658D01*
X22079865Y35846658D02*
X22079865Y35556372D01*
X21934722Y36644943D02*
X22442722Y36644943D01*
X21644437Y36463515D02*
X22188722Y36282086D01*
X22188722Y36282086D02*
X22188722Y36753801D01*
X2187971Y27341278D02*
X2187971Y28103278D01*
X2187971Y28103278D02*
X2369400Y28103278D01*
X2369400Y28103278D02*
X2478257Y28066992D01*
X2478257Y28066992D02*
X2550828Y27994421D01*
X2550828Y27994421D02*
X2587114Y27921849D01*
X2587114Y27921849D02*
X2623400Y27776706D01*
X2623400Y27776706D02*
X2623400Y27667849D01*
X2623400Y27667849D02*
X2587114Y27522706D01*
X2587114Y27522706D02*
X2550828Y27450135D01*
X2550828Y27450135D02*
X2478257Y27377563D01*
X2478257Y27377563D02*
X2369400Y27341278D01*
X2369400Y27341278D02*
X2187971Y27341278D01*
X3349114Y27341278D02*
X2913685Y27341278D01*
X3131400Y27341278D02*
X3131400Y28103278D01*
X3131400Y28103278D02*
X3058828Y27994421D01*
X3058828Y27994421D02*
X2986257Y27921849D01*
X2986257Y27921849D02*
X2913685Y27885563D01*
X1157522Y29863144D02*
X794665Y29609144D01*
X1157522Y29427715D02*
X395522Y29427715D01*
X395522Y29427715D02*
X395522Y29718001D01*
X395522Y29718001D02*
X431808Y29790572D01*
X431808Y29790572D02*
X468094Y29826858D01*
X468094Y29826858D02*
X540665Y29863144D01*
X540665Y29863144D02*
X649522Y29863144D01*
X649522Y29863144D02*
X722094Y29826858D01*
X722094Y29826858D02*
X758379Y29790572D01*
X758379Y29790572D02*
X794665Y29718001D01*
X794665Y29718001D02*
X794665Y29427715D01*
X468094Y30153429D02*
X431808Y30189715D01*
X431808Y30189715D02*
X395522Y30262286D01*
X395522Y30262286D02*
X395522Y30443715D01*
X395522Y30443715D02*
X431808Y30516286D01*
X431808Y30516286D02*
X468094Y30552572D01*
X468094Y30552572D02*
X540665Y30588858D01*
X540665Y30588858D02*
X613237Y30588858D01*
X613237Y30588858D02*
X722094Y30552572D01*
X722094Y30552572D02*
X1157522Y30117144D01*
X1157522Y30117144D02*
X1157522Y30588858D01*
X1157522Y31314572D02*
X1157522Y30879143D01*
X1157522Y31096858D02*
X395522Y31096858D01*
X395522Y31096858D02*
X504379Y31024286D01*
X504379Y31024286D02*
X576951Y30951715D01*
X576951Y30951715D02*
X613237Y30879143D01*
X19862800Y4249049D02*
X19826514Y4212763D01*
X19826514Y4212763D02*
X19717657Y4176478D01*
X19717657Y4176478D02*
X19645085Y4176478D01*
X19645085Y4176478D02*
X19536228Y4212763D01*
X19536228Y4212763D02*
X19463657Y4285335D01*
X19463657Y4285335D02*
X19427371Y4357906D01*
X19427371Y4357906D02*
X19391085Y4503049D01*
X19391085Y4503049D02*
X19391085Y4611906D01*
X19391085Y4611906D02*
X19427371Y4757049D01*
X19427371Y4757049D02*
X19463657Y4829621D01*
X19463657Y4829621D02*
X19536228Y4902192D01*
X19536228Y4902192D02*
X19645085Y4938478D01*
X19645085Y4938478D02*
X19717657Y4938478D01*
X19717657Y4938478D02*
X19826514Y4902192D01*
X19826514Y4902192D02*
X19862800Y4865906D01*
X20515943Y4938478D02*
X20370800Y4938478D01*
X20370800Y4938478D02*
X20298228Y4902192D01*
X20298228Y4902192D02*
X20261943Y4865906D01*
X20261943Y4865906D02*
X20189371Y4757049D01*
X20189371Y4757049D02*
X20153085Y4611906D01*
X20153085Y4611906D02*
X20153085Y4321621D01*
X20153085Y4321621D02*
X20189371Y4249049D01*
X20189371Y4249049D02*
X20225657Y4212763D01*
X20225657Y4212763D02*
X20298228Y4176478D01*
X20298228Y4176478D02*
X20443371Y4176478D01*
X20443371Y4176478D02*
X20515943Y4212763D01*
X20515943Y4212763D02*
X20552228Y4249049D01*
X20552228Y4249049D02*
X20588514Y4321621D01*
X20588514Y4321621D02*
X20588514Y4503049D01*
X20588514Y4503049D02*
X20552228Y4575621D01*
X20552228Y4575621D02*
X20515943Y4611906D01*
X20515943Y4611906D02*
X20443371Y4648192D01*
X20443371Y4648192D02*
X20298228Y4648192D01*
X20298228Y4648192D02*
X20225657Y4611906D01*
X20225657Y4611906D02*
X20189371Y4575621D01*
X20189371Y4575621D02*
X20153085Y4503049D01*
X1317122Y33528001D02*
X954265Y33274001D01*
X1317122Y33092572D02*
X555122Y33092572D01*
X555122Y33092572D02*
X555122Y33382858D01*
X555122Y33382858D02*
X591408Y33455429D01*
X591408Y33455429D02*
X627694Y33491715D01*
X627694Y33491715D02*
X700265Y33528001D01*
X700265Y33528001D02*
X809122Y33528001D01*
X809122Y33528001D02*
X881694Y33491715D01*
X881694Y33491715D02*
X917979Y33455429D01*
X917979Y33455429D02*
X954265Y33382858D01*
X954265Y33382858D02*
X954265Y33092572D01*
X627694Y33818286D02*
X591408Y33854572D01*
X591408Y33854572D02*
X555122Y33927143D01*
X555122Y33927143D02*
X555122Y34108572D01*
X555122Y34108572D02*
X591408Y34181143D01*
X591408Y34181143D02*
X627694Y34217429D01*
X627694Y34217429D02*
X700265Y34253715D01*
X700265Y34253715D02*
X772837Y34253715D01*
X772837Y34253715D02*
X881694Y34217429D01*
X881694Y34217429D02*
X1317122Y33782001D01*
X1317122Y33782001D02*
X1317122Y34253715D01*
X28928343Y21866249D02*
X28892057Y21829963D01*
X28892057Y21829963D02*
X28783200Y21793678D01*
X28783200Y21793678D02*
X28710628Y21793678D01*
X28710628Y21793678D02*
X28601771Y21829963D01*
X28601771Y21829963D02*
X28529200Y21902535D01*
X28529200Y21902535D02*
X28492914Y21975106D01*
X28492914Y21975106D02*
X28456628Y22120249D01*
X28456628Y22120249D02*
X28456628Y22229106D01*
X28456628Y22229106D02*
X28492914Y22374249D01*
X28492914Y22374249D02*
X28529200Y22446821D01*
X28529200Y22446821D02*
X28601771Y22519392D01*
X28601771Y22519392D02*
X28710628Y22555678D01*
X28710628Y22555678D02*
X28783200Y22555678D01*
X28783200Y22555678D02*
X28892057Y22519392D01*
X28892057Y22519392D02*
X28928343Y22483106D01*
X29654057Y21793678D02*
X29218628Y21793678D01*
X29436343Y21793678D02*
X29436343Y22555678D01*
X29436343Y22555678D02*
X29363771Y22446821D01*
X29363771Y22446821D02*
X29291200Y22374249D01*
X29291200Y22374249D02*
X29218628Y22337963D01*
X30125771Y22555678D02*
X30198342Y22555678D01*
X30198342Y22555678D02*
X30270914Y22519392D01*
X30270914Y22519392D02*
X30307200Y22483106D01*
X30307200Y22483106D02*
X30343485Y22410535D01*
X30343485Y22410535D02*
X30379771Y22265392D01*
X30379771Y22265392D02*
X30379771Y22083963D01*
X30379771Y22083963D02*
X30343485Y21938821D01*
X30343485Y21938821D02*
X30307200Y21866249D01*
X30307200Y21866249D02*
X30270914Y21829963D01*
X30270914Y21829963D02*
X30198342Y21793678D01*
X30198342Y21793678D02*
X30125771Y21793678D01*
X30125771Y21793678D02*
X30053200Y21829963D01*
X30053200Y21829963D02*
X30016914Y21866249D01*
X30016914Y21866249D02*
X29980628Y21938821D01*
X29980628Y21938821D02*
X29944342Y22083963D01*
X29944342Y22083963D02*
X29944342Y22265392D01*
X29944342Y22265392D02*
X29980628Y22410535D01*
X29980628Y22410535D02*
X30016914Y22483106D01*
X30016914Y22483106D02*
X30053200Y22519392D01*
X30053200Y22519392D02*
X30125771Y22555678D01*
D12*
X46193942Y6135900D02*
X46668458Y6135900D01*
X46193942Y5090900D02*
X46668458Y5090900D01*
X67217801Y13962197D02*
X67217801Y16162197D01*
X67217801Y13962197D02*
X67217801Y11762197D01*
X73987801Y13962197D02*
X73987801Y16162197D01*
X73987801Y13962197D02*
X73987801Y11762197D01*
X73527801Y17822197D02*
X73287801Y18152197D01*
X73767801Y18152197D01*
X73527801Y17822197D01*
G36*
X73527801Y17822197D02*
G01*
X73287801Y18152197D01*
X73767801Y18152197D01*
X73527801Y17822197D01*
G37*
X1706801Y13396503D02*
X1706801Y19296503D01*
X1706801Y13396503D02*
X1706801Y7496503D01*
X10026801Y13396503D02*
X10026801Y19296503D01*
X10026801Y13396503D02*
X10026801Y7496503D01*
X2356801Y5606503D02*
X1876801Y5606503D01*
X2116801Y5936503D01*
X2356801Y5606503D01*
G36*
X2356801Y5606503D02*
G01*
X1876801Y5606503D01*
X2116801Y5936503D01*
X2356801Y5606503D01*
G37*
X23285601Y36573503D02*
X81965601Y36573503D01*
X23285601Y27453503D02*
X23285601Y36573503D01*
X24585601Y35263503D02*
X80665601Y35263503D01*
X24585601Y28763503D02*
X24585601Y35263503D01*
X50575601Y28763503D02*
X24585601Y28763503D01*
X50575601Y27453503D02*
X50575601Y28763503D01*
X54675601Y28763503D02*
X54675601Y28763503D01*
X54675601Y28763503D02*
X54675601Y27453503D01*
X80665601Y35263503D02*
X80665601Y28763503D01*
X80665601Y28763503D02*
X54675601Y28763503D01*
X81965601Y36573503D02*
X81965601Y27453503D01*
X81965601Y27453503D02*
X23285601Y27453503D01*
X17588620Y4751800D02*
X17869780Y4751800D01*
X17588620Y3731800D02*
X17869780Y3731800D01*
X17908004Y18696503D02*
X18308004Y18696503D01*
X17908004Y8096503D02*
X17908004Y18696503D01*
X18308004Y8096503D02*
X17908004Y8096503D01*
X40108004Y18696503D02*
X40508004Y18696503D01*
X40108004Y8096503D02*
X40508004Y8096503D01*
X40508004Y8096503D02*
X40508004Y18696503D01*
X18308004Y7696503D02*
X17978004Y7456503D01*
X17978004Y7936503D01*
X18308004Y7696503D01*
G36*
X18308004Y7696503D02*
G01*
X17978004Y7456503D01*
X17978004Y7936503D01*
X18308004Y7696503D01*
G37*
X41770200Y8838000D02*
X41530200Y9168000D01*
X42010200Y9168000D01*
X41770200Y8838000D01*
G36*
X41770200Y8838000D02*
G01*
X41530200Y9168000D01*
X42010200Y9168000D01*
X41770200Y8838000D01*
G37*
X29856221Y6244003D02*
X30137381Y6244003D01*
X29856221Y5224003D02*
X30137381Y5224003D01*
X18792801Y35236604D02*
X16592801Y35236604D01*
X18792801Y35236604D02*
X20992801Y35236604D01*
X18792801Y28466604D02*
X16592801Y28466604D01*
X18792801Y28466604D02*
X20992801Y28466604D01*
X22982801Y28686604D02*
X22652801Y28926604D01*
X22982801Y29166604D01*
X22982801Y28686604D01*
G36*
X22982801Y28686604D02*
G01*
X22652801Y28926604D01*
X22982801Y29166604D01*
X22982801Y28686604D01*
G37*
X13202805Y29577420D02*
X13202805Y29858580D01*
X14222805Y29577420D02*
X14222805Y29858580D01*
X72547200Y8270003D02*
X72547200Y4360003D01*
X72547200Y4360003D02*
X74417200Y4360003D01*
D13*
X73228200Y3876003D02*
X73736200Y3876003D01*
X73482200Y3622003D02*
X73482200Y4130003D01*
D12*
X74417200Y4360003D02*
X74417200Y8270003D01*
X74558001Y11741523D02*
X74558001Y12022683D01*
X75578001Y11741523D02*
X75578001Y12022683D01*
X38961184Y6244003D02*
X38680024Y6244003D01*
X38961184Y5224003D02*
X38680024Y5224003D01*
X13202805Y33160580D02*
X13202805Y32879420D01*
X14222805Y33160580D02*
X14222805Y32879420D01*
X64546200Y8280200D02*
X64546200Y4370200D01*
X64546200Y4370200D02*
X66416200Y4370200D01*
D13*
X65227200Y3886200D02*
X65735200Y3886200D01*
X65481200Y3632200D02*
X65481200Y4140200D01*
D12*
X66416200Y4370200D02*
X66416200Y8280200D01*
X10657615Y17206503D02*
X10657615Y19406503D01*
X10657615Y17206503D02*
X10657615Y15006503D01*
X17427615Y17206503D02*
X17427615Y19406503D01*
X17427615Y17206503D02*
X17427615Y15006503D01*
X11357615Y13016503D02*
X10877615Y13016503D01*
X11117615Y13346503D01*
X11357615Y13016503D01*
G36*
X11357615Y13016503D02*
G01*
X10877615Y13016503D01*
X11117615Y13346503D01*
X11357615Y13016503D01*
G37*
X34052742Y5231003D02*
X34527258Y5231003D01*
X34052742Y4186003D02*
X34527258Y4186003D01*
X17128258Y36641300D02*
X16653742Y36641300D01*
X17128258Y35596300D02*
X16653742Y35596300D01*
X74545501Y16249155D02*
X74545501Y15774639D01*
X75590501Y16249155D02*
X75590501Y15774639D01*
X65769258Y17972300D02*
X65294742Y17972300D01*
X65769258Y16927300D02*
X65294742Y16927300D01*
X21957420Y6244003D02*
X22238580Y6244003D01*
X21957420Y5224003D02*
X22238580Y5224003D01*
X65238100Y15172458D02*
X65238100Y14697942D01*
X66283100Y15172458D02*
X66283100Y14697942D01*
X76441301Y12152262D02*
X76441301Y11677746D01*
X77486301Y12152262D02*
X77486301Y11677746D01*
X2556742Y32653500D02*
X3031258Y32653500D01*
X2556742Y31608500D02*
X3031258Y31608500D01*
X10657615Y9307103D02*
X10657615Y11507103D01*
X10657615Y9307103D02*
X10657615Y7107103D01*
X17427615Y9307103D02*
X17427615Y11507103D01*
X17427615Y9307103D02*
X17427615Y7107103D01*
X16967615Y13167103D02*
X16727615Y13497103D01*
X17207615Y13497103D01*
X16967615Y13167103D01*
G36*
X16967615Y13167103D02*
G01*
X16727615Y13497103D01*
X17207615Y13497103D01*
X16967615Y13167103D01*
G37*
X2556742Y35665700D02*
X3031258Y35665700D01*
X2556742Y34620700D02*
X3031258Y34620700D01*
X10487784Y22348903D02*
X10206624Y22348903D01*
X10487784Y21328903D02*
X10206624Y21328903D01*
X24176624Y21409103D02*
X24457784Y21409103D01*
X24176624Y20389103D02*
X24457784Y20389103D01*
X62703942Y4535700D02*
X63178458Y4535700D01*
X62703942Y3490700D02*
X63178458Y3490700D01*
X48189600Y20557303D02*
X48189600Y19857303D01*
X48189600Y6337303D02*
X48189600Y7037303D01*
X48889600Y20557303D02*
X48189600Y20557303D01*
X48889600Y6337303D02*
X48189600Y6337303D01*
X61709600Y20557303D02*
X62409600Y20557303D01*
X61709600Y6337303D02*
X62409600Y6337303D01*
X62409600Y20557303D02*
X62409600Y19857303D01*
X62409600Y6337303D02*
X62409600Y7037303D01*
X47599600Y19857303D02*
X47259600Y20327303D01*
X47939600Y20327303D01*
X47599600Y19857303D01*
G36*
X47599600Y19857303D02*
G01*
X47259600Y20327303D01*
X47939600Y20327303D01*
X47599600Y19857303D01*
G37*
X76441301Y16249155D02*
X76441301Y15774639D01*
X77486301Y16249155D02*
X77486301Y15774639D01*
X25829424Y6244003D02*
X26110584Y6244003D01*
X25829424Y5224003D02*
X26110584Y5224003D01*
X67153001Y8930803D02*
X68293001Y8930803D01*
X68293001Y9160803D02*
X68293001Y8930803D01*
X68293001Y9160803D02*
X71013001Y9160803D01*
X68293001Y4440803D02*
X68293001Y4670803D01*
X71013001Y9160803D02*
X71013001Y7850803D01*
X71013001Y5750803D02*
X71013001Y4440803D01*
X71013001Y4440803D02*
X68293001Y4440803D01*
X19828742Y36641300D02*
X20303258Y36641300D01*
X19828742Y35596300D02*
X20303258Y35596300D01*
X1309000Y29818000D02*
X1309000Y28348000D01*
X1309000Y28348000D02*
X3594000Y28348000D01*
X2540000Y29083000D02*
X2997200Y29489400D01*
X2997200Y29489400D02*
X2997200Y28676600D01*
X2997200Y28676600D02*
X2540000Y29083000D01*
X3594000Y29818000D02*
X1309000Y29818000D01*
X3031258Y31129500D02*
X2556742Y31129500D01*
X3031258Y30084500D02*
X2556742Y30084500D01*
X18884020Y6244003D02*
X19165180Y6244003D01*
X18884020Y5224003D02*
X19165180Y5224003D01*
X2556742Y34177500D02*
X3031258Y34177500D01*
X2556742Y33132500D02*
X3031258Y33132500D01*
X29256624Y21434503D02*
X29537784Y21434503D01*
X29256624Y20414503D02*
X29537784Y20414503D01*
%LPC*%
G36*
G01*
X45206200Y5338400D02*
X45206200Y5888400D01*
G75*
G02*
X45406200Y6088400I200000J0D01*
G01*
X45806200Y6088400D01*
G75*
G02*
X46006200Y5888400I0J-200000D01*
G01*
X46006200Y5338400D01*
G75*
G02*
X45806200Y5138400I-200000J0D01*
G01*
X45406200Y5138400D01*
G75*
G02*
X45206200Y5338400I0J200000D01*
G01*
G37*
G36*
G01*
X46856200Y5338400D02*
X46856200Y5888400D01*
G75*
G02*
X47056200Y6088400I200000J0D01*
G01*
X47456200Y6088400D01*
G75*
G02*
X47656200Y5888400I0J-200000D01*
G01*
X47656200Y5338400D01*
G75*
G02*
X47456200Y5138400I-200000J0D01*
G01*
X47056200Y5138400D01*
G75*
G02*
X46856200Y5338400I0J200000D01*
G01*
G37*
G36*
G01*
X73427801Y17562197D02*
X73627801Y17562197D01*
G75*
G02*
X73727801Y17462197I0J-100000D01*
G01*
X73727801Y16187197D01*
G75*
G02*
X73627801Y16087197I-100000J0D01*
G01*
X73427801Y16087197D01*
G75*
G02*
X73327801Y16187197I0J100000D01*
G01*
X73327801Y17462197D01*
G75*
G02*
X73427801Y17562197I100000J0D01*
G01*
G37*
G36*
G01*
X72777801Y17562197D02*
X72977801Y17562197D01*
G75*
G02*
X73077801Y17462197I0J-100000D01*
G01*
X73077801Y16187197D01*
G75*
G02*
X72977801Y16087197I-100000J0D01*
G01*
X72777801Y16087197D01*
G75*
G02*
X72677801Y16187197I0J100000D01*
G01*
X72677801Y17462197D01*
G75*
G02*
X72777801Y17562197I100000J0D01*
G01*
G37*
G36*
G01*
X72127801Y17562197D02*
X72327801Y17562197D01*
G75*
G02*
X72427801Y17462197I0J-100000D01*
G01*
X72427801Y16187197D01*
G75*
G02*
X72327801Y16087197I-100000J0D01*
G01*
X72127801Y16087197D01*
G75*
G02*
X72027801Y16187197I0J100000D01*
G01*
X72027801Y17462197D01*
G75*
G02*
X72127801Y17562197I100000J0D01*
G01*
G37*
G36*
G01*
X71477801Y17562197D02*
X71677801Y17562197D01*
G75*
G02*
X71777801Y17462197I0J-100000D01*
G01*
X71777801Y16187197D01*
G75*
G02*
X71677801Y16087197I-100000J0D01*
G01*
X71477801Y16087197D01*
G75*
G02*
X71377801Y16187197I0J100000D01*
G01*
X71377801Y17462197D01*
G75*
G02*
X71477801Y17562197I100000J0D01*
G01*
G37*
G36*
G01*
X70827801Y17562197D02*
X71027801Y17562197D01*
G75*
G02*
X71127801Y17462197I0J-100000D01*
G01*
X71127801Y16187197D01*
G75*
G02*
X71027801Y16087197I-100000J0D01*
G01*
X70827801Y16087197D01*
G75*
G02*
X70727801Y16187197I0J100000D01*
G01*
X70727801Y17462197D01*
G75*
G02*
X70827801Y17562197I100000J0D01*
G01*
G37*
G36*
G01*
X70177801Y17562197D02*
X70377801Y17562197D01*
G75*
G02*
X70477801Y17462197I0J-100000D01*
G01*
X70477801Y16187197D01*
G75*
G02*
X70377801Y16087197I-100000J0D01*
G01*
X70177801Y16087197D01*
G75*
G02*
X70077801Y16187197I0J100000D01*
G01*
X70077801Y17462197D01*
G75*
G02*
X70177801Y17562197I100000J0D01*
G01*
G37*
G36*
G01*
X69527801Y17562197D02*
X69727801Y17562197D01*
G75*
G02*
X69827801Y17462197I0J-100000D01*
G01*
X69827801Y16187197D01*
G75*
G02*
X69727801Y16087197I-100000J0D01*
G01*
X69527801Y16087197D01*
G75*
G02*
X69427801Y16187197I0J100000D01*
G01*
X69427801Y17462197D01*
G75*
G02*
X69527801Y17562197I100000J0D01*
G01*
G37*
G36*
G01*
X68877801Y17562197D02*
X69077801Y17562197D01*
G75*
G02*
X69177801Y17462197I0J-100000D01*
G01*
X69177801Y16187197D01*
G75*
G02*
X69077801Y16087197I-100000J0D01*
G01*
X68877801Y16087197D01*
G75*
G02*
X68777801Y16187197I0J100000D01*
G01*
X68777801Y17462197D01*
G75*
G02*
X68877801Y17562197I100000J0D01*
G01*
G37*
G36*
G01*
X68227801Y17562197D02*
X68427801Y17562197D01*
G75*
G02*
X68527801Y17462197I0J-100000D01*
G01*
X68527801Y16187197D01*
G75*
G02*
X68427801Y16087197I-100000J0D01*
G01*
X68227801Y16087197D01*
G75*
G02*
X68127801Y16187197I0J100000D01*
G01*
X68127801Y17462197D01*
G75*
G02*
X68227801Y17562197I100000J0D01*
G01*
G37*
G36*
G01*
X67577801Y17562197D02*
X67777801Y17562197D01*
G75*
G02*
X67877801Y17462197I0J-100000D01*
G01*
X67877801Y16187197D01*
G75*
G02*
X67777801Y16087197I-100000J0D01*
G01*
X67577801Y16087197D01*
G75*
G02*
X67477801Y16187197I0J100000D01*
G01*
X67477801Y17462197D01*
G75*
G02*
X67577801Y17562197I100000J0D01*
G01*
G37*
G36*
G01*
X67577801Y11837197D02*
X67777801Y11837197D01*
G75*
G02*
X67877801Y11737197I0J-100000D01*
G01*
X67877801Y10462197D01*
G75*
G02*
X67777801Y10362197I-100000J0D01*
G01*
X67577801Y10362197D01*
G75*
G02*
X67477801Y10462197I0J100000D01*
G01*
X67477801Y11737197D01*
G75*
G02*
X67577801Y11837197I100000J0D01*
G01*
G37*
G36*
G01*
X68227801Y11837197D02*
X68427801Y11837197D01*
G75*
G02*
X68527801Y11737197I0J-100000D01*
G01*
X68527801Y10462197D01*
G75*
G02*
X68427801Y10362197I-100000J0D01*
G01*
X68227801Y10362197D01*
G75*
G02*
X68127801Y10462197I0J100000D01*
G01*
X68127801Y11737197D01*
G75*
G02*
X68227801Y11837197I100000J0D01*
G01*
G37*
G36*
G01*
X68877801Y11837197D02*
X69077801Y11837197D01*
G75*
G02*
X69177801Y11737197I0J-100000D01*
G01*
X69177801Y10462197D01*
G75*
G02*
X69077801Y10362197I-100000J0D01*
G01*
X68877801Y10362197D01*
G75*
G02*
X68777801Y10462197I0J100000D01*
G01*
X68777801Y11737197D01*
G75*
G02*
X68877801Y11837197I100000J0D01*
G01*
G37*
G36*
G01*
X69527801Y11837197D02*
X69727801Y11837197D01*
G75*
G02*
X69827801Y11737197I0J-100000D01*
G01*
X69827801Y10462197D01*
G75*
G02*
X69727801Y10362197I-100000J0D01*
G01*
X69527801Y10362197D01*
G75*
G02*
X69427801Y10462197I0J100000D01*
G01*
X69427801Y11737197D01*
G75*
G02*
X69527801Y11837197I100000J0D01*
G01*
G37*
G36*
G01*
X70177801Y11837197D02*
X70377801Y11837197D01*
G75*
G02*
X70477801Y11737197I0J-100000D01*
G01*
X70477801Y10462197D01*
G75*
G02*
X70377801Y10362197I-100000J0D01*
G01*
X70177801Y10362197D01*
G75*
G02*
X70077801Y10462197I0J100000D01*
G01*
X70077801Y11737197D01*
G75*
G02*
X70177801Y11837197I100000J0D01*
G01*
G37*
G36*
G01*
X70827801Y11837197D02*
X71027801Y11837197D01*
G75*
G02*
X71127801Y11737197I0J-100000D01*
G01*
X71127801Y10462197D01*
G75*
G02*
X71027801Y10362197I-100000J0D01*
G01*
X70827801Y10362197D01*
G75*
G02*
X70727801Y10462197I0J100000D01*
G01*
X70727801Y11737197D01*
G75*
G02*
X70827801Y11837197I100000J0D01*
G01*
G37*
G36*
G01*
X71477801Y11837197D02*
X71677801Y11837197D01*
G75*
G02*
X71777801Y11737197I0J-100000D01*
G01*
X71777801Y10462197D01*
G75*
G02*
X71677801Y10362197I-100000J0D01*
G01*
X71477801Y10362197D01*
G75*
G02*
X71377801Y10462197I0J100000D01*
G01*
X71377801Y11737197D01*
G75*
G02*
X71477801Y11837197I100000J0D01*
G01*
G37*
G36*
G01*
X72127801Y11837197D02*
X72327801Y11837197D01*
G75*
G02*
X72427801Y11737197I0J-100000D01*
G01*
X72427801Y10462197D01*
G75*
G02*
X72327801Y10362197I-100000J0D01*
G01*
X72127801Y10362197D01*
G75*
G02*
X72027801Y10462197I0J100000D01*
G01*
X72027801Y11737197D01*
G75*
G02*
X72127801Y11837197I100000J0D01*
G01*
G37*
G36*
G01*
X72777801Y11837197D02*
X72977801Y11837197D01*
G75*
G02*
X73077801Y11737197I0J-100000D01*
G01*
X73077801Y10462197D01*
G75*
G02*
X72977801Y10362197I-100000J0D01*
G01*
X72777801Y10362197D01*
G75*
G02*
X72677801Y10462197I0J100000D01*
G01*
X72677801Y11737197D01*
G75*
G02*
X72777801Y11837197I100000J0D01*
G01*
G37*
G36*
G01*
X73427801Y11837197D02*
X73627801Y11837197D01*
G75*
G02*
X73727801Y11737197I0J-100000D01*
G01*
X73727801Y10462197D01*
G75*
G02*
X73627801Y10362197I-100000J0D01*
G01*
X73427801Y10362197D01*
G75*
G02*
X73327801Y10462197I0J100000D01*
G01*
X73327801Y11737197D01*
G75*
G02*
X73427801Y11837197I100000J0D01*
G01*
G37*
G36*
G01*
X2191801Y6196503D02*
X2041801Y6196503D01*
G75*
G02*
X1966801Y6271503I0J75000D01*
G01*
X1966801Y7671503D01*
G75*
G02*
X2041801Y7746503I75000J0D01*
G01*
X2191801Y7746503D01*
G75*
G02*
X2266801Y7671503I0J-75000D01*
G01*
X2266801Y6271503D01*
G75*
G02*
X2191801Y6196503I-75000J0D01*
G01*
G37*
G36*
G01*
X2691801Y6196503D02*
X2541801Y6196503D01*
G75*
G02*
X2466801Y6271503I0J75000D01*
G01*
X2466801Y7671503D01*
G75*
G02*
X2541801Y7746503I75000J0D01*
G01*
X2691801Y7746503D01*
G75*
G02*
X2766801Y7671503I0J-75000D01*
G01*
X2766801Y6271503D01*
G75*
G02*
X2691801Y6196503I-75000J0D01*
G01*
G37*
G36*
G01*
X3191801Y6196503D02*
X3041801Y6196503D01*
G75*
G02*
X2966801Y6271503I0J75000D01*
G01*
X2966801Y7671503D01*
G75*
G02*
X3041801Y7746503I75000J0D01*
G01*
X3191801Y7746503D01*
G75*
G02*
X3266801Y7671503I0J-75000D01*
G01*
X3266801Y6271503D01*
G75*
G02*
X3191801Y6196503I-75000J0D01*
G01*
G37*
G36*
G01*
X3691801Y6196503D02*
X3541801Y6196503D01*
G75*
G02*
X3466801Y6271503I0J75000D01*
G01*
X3466801Y7671503D01*
G75*
G02*
X3541801Y7746503I75000J0D01*
G01*
X3691801Y7746503D01*
G75*
G02*
X3766801Y7671503I0J-75000D01*
G01*
X3766801Y6271503D01*
G75*
G02*
X3691801Y6196503I-75000J0D01*
G01*
G37*
G36*
G01*
X4191801Y6196503D02*
X4041801Y6196503D01*
G75*
G02*
X3966801Y6271503I0J75000D01*
G01*
X3966801Y7671503D01*
G75*
G02*
X4041801Y7746503I75000J0D01*
G01*
X4191801Y7746503D01*
G75*
G02*
X4266801Y7671503I0J-75000D01*
G01*
X4266801Y6271503D01*
G75*
G02*
X4191801Y6196503I-75000J0D01*
G01*
G37*
G36*
G01*
X4691801Y6196503D02*
X4541801Y6196503D01*
G75*
G02*
X4466801Y6271503I0J75000D01*
G01*
X4466801Y7671503D01*
G75*
G02*
X4541801Y7746503I75000J0D01*
G01*
X4691801Y7746503D01*
G75*
G02*
X4766801Y7671503I0J-75000D01*
G01*
X4766801Y6271503D01*
G75*
G02*
X4691801Y6196503I-75000J0D01*
G01*
G37*
G36*
G01*
X5191801Y6196503D02*
X5041801Y6196503D01*
G75*
G02*
X4966801Y6271503I0J75000D01*
G01*
X4966801Y7671503D01*
G75*
G02*
X5041801Y7746503I75000J0D01*
G01*
X5191801Y7746503D01*
G75*
G02*
X5266801Y7671503I0J-75000D01*
G01*
X5266801Y6271503D01*
G75*
G02*
X5191801Y6196503I-75000J0D01*
G01*
G37*
G36*
G01*
X5691801Y6196503D02*
X5541801Y6196503D01*
G75*
G02*
X5466801Y6271503I0J75000D01*
G01*
X5466801Y7671503D01*
G75*
G02*
X5541801Y7746503I75000J0D01*
G01*
X5691801Y7746503D01*
G75*
G02*
X5766801Y7671503I0J-75000D01*
G01*
X5766801Y6271503D01*
G75*
G02*
X5691801Y6196503I-75000J0D01*
G01*
G37*
G36*
G01*
X6191801Y6196503D02*
X6041801Y6196503D01*
G75*
G02*
X5966801Y6271503I0J75000D01*
G01*
X5966801Y7671503D01*
G75*
G02*
X6041801Y7746503I75000J0D01*
G01*
X6191801Y7746503D01*
G75*
G02*
X6266801Y7671503I0J-75000D01*
G01*
X6266801Y6271503D01*
G75*
G02*
X6191801Y6196503I-75000J0D01*
G01*
G37*
G36*
G01*
X6691801Y6196503D02*
X6541801Y6196503D01*
G75*
G02*
X6466801Y6271503I0J75000D01*
G01*
X6466801Y7671503D01*
G75*
G02*
X6541801Y7746503I75000J0D01*
G01*
X6691801Y7746503D01*
G75*
G02*
X6766801Y7671503I0J-75000D01*
G01*
X6766801Y6271503D01*
G75*
G02*
X6691801Y6196503I-75000J0D01*
G01*
G37*
G36*
G01*
X7191801Y6196503D02*
X7041801Y6196503D01*
G75*
G02*
X6966801Y6271503I0J75000D01*
G01*
X6966801Y7671503D01*
G75*
G02*
X7041801Y7746503I75000J0D01*
G01*
X7191801Y7746503D01*
G75*
G02*
X7266801Y7671503I0J-75000D01*
G01*
X7266801Y6271503D01*
G75*
G02*
X7191801Y6196503I-75000J0D01*
G01*
G37*
G36*
G01*
X7691801Y6196503D02*
X7541801Y6196503D01*
G75*
G02*
X7466801Y6271503I0J75000D01*
G01*
X7466801Y7671503D01*
G75*
G02*
X7541801Y7746503I75000J0D01*
G01*
X7691801Y7746503D01*
G75*
G02*
X7766801Y7671503I0J-75000D01*
G01*
X7766801Y6271503D01*
G75*
G02*
X7691801Y6196503I-75000J0D01*
G01*
G37*
G36*
G01*
X8191801Y6196503D02*
X8041801Y6196503D01*
G75*
G02*
X7966801Y6271503I0J75000D01*
G01*
X7966801Y7671503D01*
G75*
G02*
X8041801Y7746503I75000J0D01*
G01*
X8191801Y7746503D01*
G75*
G02*
X8266801Y7671503I0J-75000D01*
G01*
X8266801Y6271503D01*
G75*
G02*
X8191801Y6196503I-75000J0D01*
G01*
G37*
G36*
G01*
X8691801Y6196503D02*
X8541801Y6196503D01*
G75*
G02*
X8466801Y6271503I0J75000D01*
G01*
X8466801Y7671503D01*
G75*
G02*
X8541801Y7746503I75000J0D01*
G01*
X8691801Y7746503D01*
G75*
G02*
X8766801Y7671503I0J-75000D01*
G01*
X8766801Y6271503D01*
G75*
G02*
X8691801Y6196503I-75000J0D01*
G01*
G37*
G36*
G01*
X9191801Y6196503D02*
X9041801Y6196503D01*
G75*
G02*
X8966801Y6271503I0J75000D01*
G01*
X8966801Y7671503D01*
G75*
G02*
X9041801Y7746503I75000J0D01*
G01*
X9191801Y7746503D01*
G75*
G02*
X9266801Y7671503I0J-75000D01*
G01*
X9266801Y6271503D01*
G75*
G02*
X9191801Y6196503I-75000J0D01*
G01*
G37*
G36*
G01*
X9691801Y6196503D02*
X9541801Y6196503D01*
G75*
G02*
X9466801Y6271503I0J75000D01*
G01*
X9466801Y7671503D01*
G75*
G02*
X9541801Y7746503I75000J0D01*
G01*
X9691801Y7746503D01*
G75*
G02*
X9766801Y7671503I0J-75000D01*
G01*
X9766801Y6271503D01*
G75*
G02*
X9691801Y6196503I-75000J0D01*
G01*
G37*
G36*
G01*
X9691801Y19046503D02*
X9541801Y19046503D01*
G75*
G02*
X9466801Y19121503I0J75000D01*
G01*
X9466801Y20521503D01*
G75*
G02*
X9541801Y20596503I75000J0D01*
G01*
X9691801Y20596503D01*
G75*
G02*
X9766801Y20521503I0J-75000D01*
G01*
X9766801Y19121503D01*
G75*
G02*
X9691801Y19046503I-75000J0D01*
G01*
G37*
G36*
G01*
X9191801Y19046503D02*
X9041801Y19046503D01*
G75*
G02*
X8966801Y19121503I0J75000D01*
G01*
X8966801Y20521503D01*
G75*
G02*
X9041801Y20596503I75000J0D01*
G01*
X9191801Y20596503D01*
G75*
G02*
X9266801Y20521503I0J-75000D01*
G01*
X9266801Y19121503D01*
G75*
G02*
X9191801Y19046503I-75000J0D01*
G01*
G37*
G36*
G01*
X8691801Y19046503D02*
X8541801Y19046503D01*
G75*
G02*
X8466801Y19121503I0J75000D01*
G01*
X8466801Y20521503D01*
G75*
G02*
X8541801Y20596503I75000J0D01*
G01*
X8691801Y20596503D01*
G75*
G02*
X8766801Y20521503I0J-75000D01*
G01*
X8766801Y19121503D01*
G75*
G02*
X8691801Y19046503I-75000J0D01*
G01*
G37*
G36*
G01*
X8191801Y19046503D02*
X8041801Y19046503D01*
G75*
G02*
X7966801Y19121503I0J75000D01*
G01*
X7966801Y20521503D01*
G75*
G02*
X8041801Y20596503I75000J0D01*
G01*
X8191801Y20596503D01*
G75*
G02*
X8266801Y20521503I0J-75000D01*
G01*
X8266801Y19121503D01*
G75*
G02*
X8191801Y19046503I-75000J0D01*
G01*
G37*
G36*
G01*
X7691801Y19046503D02*
X7541801Y19046503D01*
G75*
G02*
X7466801Y19121503I0J75000D01*
G01*
X7466801Y20521503D01*
G75*
G02*
X7541801Y20596503I75000J0D01*
G01*
X7691801Y20596503D01*
G75*
G02*
X7766801Y20521503I0J-75000D01*
G01*
X7766801Y19121503D01*
G75*
G02*
X7691801Y19046503I-75000J0D01*
G01*
G37*
G36*
G01*
X7191801Y19046503D02*
X7041801Y19046503D01*
G75*
G02*
X6966801Y19121503I0J75000D01*
G01*
X6966801Y20521503D01*
G75*
G02*
X7041801Y20596503I75000J0D01*
G01*
X7191801Y20596503D01*
G75*
G02*
X7266801Y20521503I0J-75000D01*
G01*
X7266801Y19121503D01*
G75*
G02*
X7191801Y19046503I-75000J0D01*
G01*
G37*
G36*
G01*
X6691801Y19046503D02*
X6541801Y19046503D01*
G75*
G02*
X6466801Y19121503I0J75000D01*
G01*
X6466801Y20521503D01*
G75*
G02*
X6541801Y20596503I75000J0D01*
G01*
X6691801Y20596503D01*
G75*
G02*
X6766801Y20521503I0J-75000D01*
G01*
X6766801Y19121503D01*
G75*
G02*
X6691801Y19046503I-75000J0D01*
G01*
G37*
G36*
G01*
X6191801Y19046503D02*
X6041801Y19046503D01*
G75*
G02*
X5966801Y19121503I0J75000D01*
G01*
X5966801Y20521503D01*
G75*
G02*
X6041801Y20596503I75000J0D01*
G01*
X6191801Y20596503D01*
G75*
G02*
X6266801Y20521503I0J-75000D01*
G01*
X6266801Y19121503D01*
G75*
G02*
X6191801Y19046503I-75000J0D01*
G01*
G37*
G36*
G01*
X5691801Y19046503D02*
X5541801Y19046503D01*
G75*
G02*
X5466801Y19121503I0J75000D01*
G01*
X5466801Y20521503D01*
G75*
G02*
X5541801Y20596503I75000J0D01*
G01*
X5691801Y20596503D01*
G75*
G02*
X5766801Y20521503I0J-75000D01*
G01*
X5766801Y19121503D01*
G75*
G02*
X5691801Y19046503I-75000J0D01*
G01*
G37*
G36*
G01*
X5191801Y19046503D02*
X5041801Y19046503D01*
G75*
G02*
X4966801Y19121503I0J75000D01*
G01*
X4966801Y20521503D01*
G75*
G02*
X5041801Y20596503I75000J0D01*
G01*
X5191801Y20596503D01*
G75*
G02*
X5266801Y20521503I0J-75000D01*
G01*
X5266801Y19121503D01*
G75*
G02*
X5191801Y19046503I-75000J0D01*
G01*
G37*
G36*
G01*
X4691801Y19046503D02*
X4541801Y19046503D01*
G75*
G02*
X4466801Y19121503I0J75000D01*
G01*
X4466801Y20521503D01*
G75*
G02*
X4541801Y20596503I75000J0D01*
G01*
X4691801Y20596503D01*
G75*
G02*
X4766801Y20521503I0J-75000D01*
G01*
X4766801Y19121503D01*
G75*
G02*
X4691801Y19046503I-75000J0D01*
G01*
G37*
G36*
G01*
X4191801Y19046503D02*
X4041801Y19046503D01*
G75*
G02*
X3966801Y19121503I0J75000D01*
G01*
X3966801Y20521503D01*
G75*
G02*
X4041801Y20596503I75000J0D01*
G01*
X4191801Y20596503D01*
G75*
G02*
X4266801Y20521503I0J-75000D01*
G01*
X4266801Y19121503D01*
G75*
G02*
X4191801Y19046503I-75000J0D01*
G01*
G37*
G36*
G01*
X3691801Y19046503D02*
X3541801Y19046503D01*
G75*
G02*
X3466801Y19121503I0J75000D01*
G01*
X3466801Y20521503D01*
G75*
G02*
X3541801Y20596503I75000J0D01*
G01*
X3691801Y20596503D01*
G75*
G02*
X3766801Y20521503I0J-75000D01*
G01*
X3766801Y19121503D01*
G75*
G02*
X3691801Y19046503I-75000J0D01*
G01*
G37*
G36*
G01*
X3191801Y19046503D02*
X3041801Y19046503D01*
G75*
G02*
X2966801Y19121503I0J75000D01*
G01*
X2966801Y20521503D01*
G75*
G02*
X3041801Y20596503I75000J0D01*
G01*
X3191801Y20596503D01*
G75*
G02*
X3266801Y20521503I0J-75000D01*
G01*
X3266801Y19121503D01*
G75*
G02*
X3191801Y19046503I-75000J0D01*
G01*
G37*
G36*
G01*
X2691801Y19046503D02*
X2541801Y19046503D01*
G75*
G02*
X2466801Y19121503I0J75000D01*
G01*
X2466801Y20521503D01*
G75*
G02*
X2541801Y20596503I75000J0D01*
G01*
X2691801Y20596503D01*
G75*
G02*
X2766801Y20521503I0J-75000D01*
G01*
X2766801Y19121503D01*
G75*
G02*
X2691801Y19046503I-75000J0D01*
G01*
G37*
G36*
G01*
X2191801Y19046503D02*
X2041801Y19046503D01*
G75*
G02*
X1966801Y19121503I0J75000D01*
G01*
X1966801Y20521503D01*
G75*
G02*
X2041801Y20596503I75000J0D01*
G01*
X2191801Y20596503D01*
G75*
G02*
X2266801Y20521503I0J-75000D01*
G01*
X2266801Y19121503D01*
G75*
G02*
X2191801Y19046503I-75000J0D01*
G01*
G37*
G36*
G01*
X29095601Y29893503D02*
X27895601Y29893503D01*
G75*
G02*
X27645601Y30143503I0J250000D01*
G01*
X27645601Y31343503D01*
G75*
G02*
X27895601Y31593503I250000J0D01*
G01*
X29095601Y31593503D01*
G75*
G02*
X29345601Y31343503I0J-250000D01*
G01*
X29345601Y30143503D01*
G75*
G02*
X29095601Y29893503I-250000J0D01*
G01*
G37*
D14*
X28495601Y33283503D03*
X31035601Y30743503D03*
X31035601Y33283503D03*
X33575601Y30743503D03*
X33575601Y33283503D03*
X36115601Y30743503D03*
X36115601Y33283503D03*
X38655601Y30743503D03*
X38655601Y33283503D03*
X41195601Y30743503D03*
X41195601Y33283503D03*
X43735601Y30743503D03*
X43735601Y33283503D03*
X46275601Y30743503D03*
X46275601Y33283503D03*
X48815601Y30743503D03*
X48815601Y33283503D03*
X51355601Y30743503D03*
G36*
X50845601Y32433503D02*
G01*
X50505601Y32773503D01*
X50505601Y33793503D01*
X50845601Y34133503D01*
X51865601Y34133503D01*
X52205601Y33793503D01*
X52205601Y32773503D01*
X51865601Y32433503D01*
X50845601Y32433503D01*
G37*
X53895601Y30743503D03*
X53895601Y33283503D03*
X56435601Y30743503D03*
X56435601Y33283503D03*
X58975601Y30743503D03*
X58975601Y33283503D03*
X61515601Y30743503D03*
X61515601Y33283503D03*
X64055601Y30743503D03*
X64055601Y33283503D03*
X66595601Y30743503D03*
X66595601Y33283503D03*
X69135601Y30743503D03*
X69135601Y33283503D03*
X71675601Y30743503D03*
X71675601Y33283503D03*
X74215601Y30743503D03*
X74215601Y33283503D03*
X76755601Y30743503D03*
X76755601Y33283503D03*
G36*
G01*
X16504200Y3991800D02*
X16504200Y4491800D01*
G75*
G02*
X16729200Y4716800I225000J0D01*
G01*
X17179200Y4716800D01*
G75*
G02*
X17404200Y4491800I0J-225000D01*
G01*
X17404200Y3991800D01*
G75*
G02*
X17179200Y3766800I-225000J0D01*
G01*
X16729200Y3766800D01*
G75*
G02*
X16504200Y3991800I0J225000D01*
G01*
G37*
G36*
G01*
X18054200Y3991800D02*
X18054200Y4491800D01*
G75*
G02*
X18279200Y4716800I225000J0D01*
G01*
X18729200Y4716800D01*
G75*
G02*
X18954200Y4491800I0J-225000D01*
G01*
X18954200Y3991800D01*
G75*
G02*
X18729200Y3766800I-225000J0D01*
G01*
X18279200Y3766800D01*
G75*
G02*
X18054200Y3991800I0J225000D01*
G01*
G37*
D15*
X18808004Y7646503D03*
X19608004Y7646503D03*
X20408004Y7646503D03*
X21208004Y7646503D03*
X22008004Y7646503D03*
X22808004Y7646503D03*
X23608004Y7646503D03*
X24408004Y7646503D03*
X25208004Y7646503D03*
X26008004Y7646503D03*
X26808004Y7646503D03*
X27608004Y7646503D03*
X28408004Y7646503D03*
X29208004Y7646503D03*
X30008004Y7646503D03*
X30808004Y7646503D03*
X31608004Y7646503D03*
X32408004Y7646503D03*
X33208004Y7646503D03*
X34008004Y7646503D03*
X34808004Y7646503D03*
X35608004Y7646503D03*
X36408004Y7646503D03*
X37208004Y7646503D03*
X38008004Y7646503D03*
X38808004Y7646503D03*
X39608004Y7646503D03*
X39608004Y19146503D03*
X38808004Y19146503D03*
X38008004Y19146503D03*
X37208004Y19146503D03*
X36408004Y19146503D03*
X35608004Y19146503D03*
X34808004Y19146503D03*
X34008004Y19146503D03*
X33208004Y19146503D03*
X32408004Y19146503D03*
X31608004Y19146503D03*
X30808004Y19146503D03*
X30008004Y19146503D03*
X29208004Y19146503D03*
X28408004Y19146503D03*
X27608004Y19146503D03*
X26808004Y19146503D03*
X26008004Y19146503D03*
X25208004Y19146503D03*
X24408004Y19146503D03*
X23608004Y19146503D03*
X22808004Y19146503D03*
X22008004Y19146503D03*
X21208004Y19146503D03*
X20408004Y19146503D03*
X19608004Y19146503D03*
X18808004Y19146503D03*
D16*
X41848700Y7781000D03*
X41848700Y5681000D03*
X43901700Y5681000D03*
X43901700Y7781000D03*
G36*
G01*
X28771801Y5484003D02*
X28771801Y5984003D01*
G75*
G02*
X28996801Y6209003I225000J0D01*
G01*
X29446801Y6209003D01*
G75*
G02*
X29671801Y5984003I0J-225000D01*
G01*
X29671801Y5484003D01*
G75*
G02*
X29446801Y5259003I-225000J0D01*
G01*
X28996801Y5259003D01*
G75*
G02*
X28771801Y5484003I0J225000D01*
G01*
G37*
G36*
G01*
X30321801Y5484003D02*
X30321801Y5984003D01*
G75*
G02*
X30546801Y6209003I225000J0D01*
G01*
X30996801Y6209003D01*
G75*
G02*
X31221801Y5984003I0J-225000D01*
G01*
X31221801Y5484003D01*
G75*
G02*
X30996801Y5259003I-225000J0D01*
G01*
X30546801Y5259003D01*
G75*
G02*
X30321801Y5484003I0J225000D01*
G01*
G37*
G36*
G01*
X22392801Y29026604D02*
X22392801Y28826604D01*
G75*
G02*
X22292801Y28726604I-100000J0D01*
G01*
X21017801Y28726604D01*
G75*
G02*
X20917801Y28826604I0J100000D01*
G01*
X20917801Y29026604D01*
G75*
G02*
X21017801Y29126604I100000J0D01*
G01*
X22292801Y29126604D01*
G75*
G02*
X22392801Y29026604I0J-100000D01*
G01*
G37*
G36*
G01*
X22392801Y29676604D02*
X22392801Y29476604D01*
G75*
G02*
X22292801Y29376604I-100000J0D01*
G01*
X21017801Y29376604D01*
G75*
G02*
X20917801Y29476604I0J100000D01*
G01*
X20917801Y29676604D01*
G75*
G02*
X21017801Y29776604I100000J0D01*
G01*
X22292801Y29776604D01*
G75*
G02*
X22392801Y29676604I0J-100000D01*
G01*
G37*
G36*
G01*
X22392801Y30326604D02*
X22392801Y30126604D01*
G75*
G02*
X22292801Y30026604I-100000J0D01*
G01*
X21017801Y30026604D01*
G75*
G02*
X20917801Y30126604I0J100000D01*
G01*
X20917801Y30326604D01*
G75*
G02*
X21017801Y30426604I100000J0D01*
G01*
X22292801Y30426604D01*
G75*
G02*
X22392801Y30326604I0J-100000D01*
G01*
G37*
G36*
G01*
X22392801Y30976604D02*
X22392801Y30776604D01*
G75*
G02*
X22292801Y30676604I-100000J0D01*
G01*
X21017801Y30676604D01*
G75*
G02*
X20917801Y30776604I0J100000D01*
G01*
X20917801Y30976604D01*
G75*
G02*
X21017801Y31076604I100000J0D01*
G01*
X22292801Y31076604D01*
G75*
G02*
X22392801Y30976604I0J-100000D01*
G01*
G37*
G36*
G01*
X22392801Y31626604D02*
X22392801Y31426604D01*
G75*
G02*
X22292801Y31326604I-100000J0D01*
G01*
X21017801Y31326604D01*
G75*
G02*
X20917801Y31426604I0J100000D01*
G01*
X20917801Y31626604D01*
G75*
G02*
X21017801Y31726604I100000J0D01*
G01*
X22292801Y31726604D01*
G75*
G02*
X22392801Y31626604I0J-100000D01*
G01*
G37*
G36*
G01*
X22392801Y32276604D02*
X22392801Y32076604D01*
G75*
G02*
X22292801Y31976604I-100000J0D01*
G01*
X21017801Y31976604D01*
G75*
G02*
X20917801Y32076604I0J100000D01*
G01*
X20917801Y32276604D01*
G75*
G02*
X21017801Y32376604I100000J0D01*
G01*
X22292801Y32376604D01*
G75*
G02*
X22392801Y32276604I0J-100000D01*
G01*
G37*
G36*
G01*
X22392801Y32926604D02*
X22392801Y32726604D01*
G75*
G02*
X22292801Y32626604I-100000J0D01*
G01*
X21017801Y32626604D01*
G75*
G02*
X20917801Y32726604I0J100000D01*
G01*
X20917801Y32926604D01*
G75*
G02*
X21017801Y33026604I100000J0D01*
G01*
X22292801Y33026604D01*
G75*
G02*
X22392801Y32926604I0J-100000D01*
G01*
G37*
G36*
G01*
X22392801Y33576604D02*
X22392801Y33376604D01*
G75*
G02*
X22292801Y33276604I-100000J0D01*
G01*
X21017801Y33276604D01*
G75*
G02*
X20917801Y33376604I0J100000D01*
G01*
X20917801Y33576604D01*
G75*
G02*
X21017801Y33676604I100000J0D01*
G01*
X22292801Y33676604D01*
G75*
G02*
X22392801Y33576604I0J-100000D01*
G01*
G37*
G36*
G01*
X22392801Y34226604D02*
X22392801Y34026604D01*
G75*
G02*
X22292801Y33926604I-100000J0D01*
G01*
X21017801Y33926604D01*
G75*
G02*
X20917801Y34026604I0J100000D01*
G01*
X20917801Y34226604D01*
G75*
G02*
X21017801Y34326604I100000J0D01*
G01*
X22292801Y34326604D01*
G75*
G02*
X22392801Y34226604I0J-100000D01*
G01*
G37*
G36*
G01*
X22392801Y34876604D02*
X22392801Y34676604D01*
G75*
G02*
X22292801Y34576604I-100000J0D01*
G01*
X21017801Y34576604D01*
G75*
G02*
X20917801Y34676604I0J100000D01*
G01*
X20917801Y34876604D01*
G75*
G02*
X21017801Y34976604I100000J0D01*
G01*
X22292801Y34976604D01*
G75*
G02*
X22392801Y34876604I0J-100000D01*
G01*
G37*
G36*
G01*
X16667801Y34876604D02*
X16667801Y34676604D01*
G75*
G02*
X16567801Y34576604I-100000J0D01*
G01*
X15292801Y34576604D01*
G75*
G02*
X15192801Y34676604I0J100000D01*
G01*
X15192801Y34876604D01*
G75*
G02*
X15292801Y34976604I100000J0D01*
G01*
X16567801Y34976604D01*
G75*
G02*
X16667801Y34876604I0J-100000D01*
G01*
G37*
G36*
G01*
X16667801Y34226604D02*
X16667801Y34026604D01*
G75*
G02*
X16567801Y33926604I-100000J0D01*
G01*
X15292801Y33926604D01*
G75*
G02*
X15192801Y34026604I0J100000D01*
G01*
X15192801Y34226604D01*
G75*
G02*
X15292801Y34326604I100000J0D01*
G01*
X16567801Y34326604D01*
G75*
G02*
X16667801Y34226604I0J-100000D01*
G01*
G37*
G36*
G01*
X16667801Y33576604D02*
X16667801Y33376604D01*
G75*
G02*
X16567801Y33276604I-100000J0D01*
G01*
X15292801Y33276604D01*
G75*
G02*
X15192801Y33376604I0J100000D01*
G01*
X15192801Y33576604D01*
G75*
G02*
X15292801Y33676604I100000J0D01*
G01*
X16567801Y33676604D01*
G75*
G02*
X16667801Y33576604I0J-100000D01*
G01*
G37*
G36*
G01*
X16667801Y32926604D02*
X16667801Y32726604D01*
G75*
G02*
X16567801Y32626604I-100000J0D01*
G01*
X15292801Y32626604D01*
G75*
G02*
X15192801Y32726604I0J100000D01*
G01*
X15192801Y32926604D01*
G75*
G02*
X15292801Y33026604I100000J0D01*
G01*
X16567801Y33026604D01*
G75*
G02*
X16667801Y32926604I0J-100000D01*
G01*
G37*
G36*
G01*
X16667801Y32276604D02*
X16667801Y32076604D01*
G75*
G02*
X16567801Y31976604I-100000J0D01*
G01*
X15292801Y31976604D01*
G75*
G02*
X15192801Y32076604I0J100000D01*
G01*
X15192801Y32276604D01*
G75*
G02*
X15292801Y32376604I100000J0D01*
G01*
X16567801Y32376604D01*
G75*
G02*
X16667801Y32276604I0J-100000D01*
G01*
G37*
G36*
G01*
X16667801Y31626604D02*
X16667801Y31426604D01*
G75*
G02*
X16567801Y31326604I-100000J0D01*
G01*
X15292801Y31326604D01*
G75*
G02*
X15192801Y31426604I0J100000D01*
G01*
X15192801Y31626604D01*
G75*
G02*
X15292801Y31726604I100000J0D01*
G01*
X16567801Y31726604D01*
G75*
G02*
X16667801Y31626604I0J-100000D01*
G01*
G37*
G36*
G01*
X16667801Y30976604D02*
X16667801Y30776604D01*
G75*
G02*
X16567801Y30676604I-100000J0D01*
G01*
X15292801Y30676604D01*
G75*
G02*
X15192801Y30776604I0J100000D01*
G01*
X15192801Y30976604D01*
G75*
G02*
X15292801Y31076604I100000J0D01*
G01*
X16567801Y31076604D01*
G75*
G02*
X16667801Y30976604I0J-100000D01*
G01*
G37*
G36*
G01*
X16667801Y30326604D02*
X16667801Y30126604D01*
G75*
G02*
X16567801Y30026604I-100000J0D01*
G01*
X15292801Y30026604D01*
G75*
G02*
X15192801Y30126604I0J100000D01*
G01*
X15192801Y30326604D01*
G75*
G02*
X15292801Y30426604I100000J0D01*
G01*
X16567801Y30426604D01*
G75*
G02*
X16667801Y30326604I0J-100000D01*
G01*
G37*
G36*
G01*
X16667801Y29676604D02*
X16667801Y29476604D01*
G75*
G02*
X16567801Y29376604I-100000J0D01*
G01*
X15292801Y29376604D01*
G75*
G02*
X15192801Y29476604I0J100000D01*
G01*
X15192801Y29676604D01*
G75*
G02*
X15292801Y29776604I100000J0D01*
G01*
X16567801Y29776604D01*
G75*
G02*
X16667801Y29676604I0J-100000D01*
G01*
G37*
G36*
G01*
X16667801Y29026604D02*
X16667801Y28826604D01*
G75*
G02*
X16567801Y28726604I-100000J0D01*
G01*
X15292801Y28726604D01*
G75*
G02*
X15192801Y28826604I0J100000D01*
G01*
X15192801Y29026604D01*
G75*
G02*
X15292801Y29126604I100000J0D01*
G01*
X16567801Y29126604D01*
G75*
G02*
X16667801Y29026604I0J-100000D01*
G01*
G37*
G36*
G01*
X13962805Y28493000D02*
X13462805Y28493000D01*
G75*
G02*
X13237805Y28718000I0J225000D01*
G01*
X13237805Y29168000D01*
G75*
G02*
X13462805Y29393000I225000J0D01*
G01*
X13962805Y29393000D01*
G75*
G02*
X14187805Y29168000I0J-225000D01*
G01*
X14187805Y28718000D01*
G75*
G02*
X13962805Y28493000I-225000J0D01*
G01*
G37*
G36*
G01*
X13962805Y30043000D02*
X13462805Y30043000D01*
G75*
G02*
X13237805Y30268000I0J225000D01*
G01*
X13237805Y30718000D01*
G75*
G02*
X13462805Y30943000I225000J0D01*
G01*
X13962805Y30943000D01*
G75*
G02*
X14187805Y30718000I0J-225000D01*
G01*
X14187805Y30268000D01*
G75*
G02*
X13962805Y30043000I-225000J0D01*
G01*
G37*
G36*
G01*
X73907200Y4620003D02*
X73057200Y4620003D01*
G75*
G02*
X72807200Y4870003I0J250000D01*
G01*
X72807200Y5770003D01*
G75*
G02*
X73057200Y6020003I250000J0D01*
G01*
X73907200Y6020003D01*
G75*
G02*
X74157200Y5770003I0J-250000D01*
G01*
X74157200Y4870003D01*
G75*
G02*
X73907200Y4620003I-250000J0D01*
G01*
G37*
G36*
G01*
X73907200Y7320003D02*
X73057200Y7320003D01*
G75*
G02*
X72807200Y7570003I0J250000D01*
G01*
X72807200Y8470003D01*
G75*
G02*
X73057200Y8720003I250000J0D01*
G01*
X73907200Y8720003D01*
G75*
G02*
X74157200Y8470003I0J-250000D01*
G01*
X74157200Y7570003D01*
G75*
G02*
X73907200Y7320003I-250000J0D01*
G01*
G37*
G36*
G01*
X75318001Y10657103D02*
X74818001Y10657103D01*
G75*
G02*
X74593001Y10882103I0J225000D01*
G01*
X74593001Y11332103D01*
G75*
G02*
X74818001Y11557103I225000J0D01*
G01*
X75318001Y11557103D01*
G75*
G02*
X75543001Y11332103I0J-225000D01*
G01*
X75543001Y10882103D01*
G75*
G02*
X75318001Y10657103I-225000J0D01*
G01*
G37*
G36*
G01*
X75318001Y12207103D02*
X74818001Y12207103D01*
G75*
G02*
X74593001Y12432103I0J225000D01*
G01*
X74593001Y12882103D01*
G75*
G02*
X74818001Y13107103I225000J0D01*
G01*
X75318001Y13107103D01*
G75*
G02*
X75543001Y12882103I0J-225000D01*
G01*
X75543001Y12432103D01*
G75*
G02*
X75318001Y12207103I-225000J0D01*
G01*
G37*
G36*
G01*
X40045604Y5984003D02*
X40045604Y5484003D01*
G75*
G02*
X39820604Y5259003I-225000J0D01*
G01*
X39370604Y5259003D01*
G75*
G02*
X39145604Y5484003I0J225000D01*
G01*
X39145604Y5984003D01*
G75*
G02*
X39370604Y6209003I225000J0D01*
G01*
X39820604Y6209003D01*
G75*
G02*
X40045604Y5984003I0J-225000D01*
G01*
G37*
G36*
G01*
X38495604Y5984003D02*
X38495604Y5484003D01*
G75*
G02*
X38270604Y5259003I-225000J0D01*
G01*
X37820604Y5259003D01*
G75*
G02*
X37595604Y5484003I0J225000D01*
G01*
X37595604Y5984003D01*
G75*
G02*
X37820604Y6209003I225000J0D01*
G01*
X38270604Y6209003D01*
G75*
G02*
X38495604Y5984003I0J-225000D01*
G01*
G37*
G36*
G01*
X13462805Y34245000D02*
X13962805Y34245000D01*
G75*
G02*
X14187805Y34020000I0J-225000D01*
G01*
X14187805Y33570000D01*
G75*
G02*
X13962805Y33345000I-225000J0D01*
G01*
X13462805Y33345000D01*
G75*
G02*
X13237805Y33570000I0J225000D01*
G01*
X13237805Y34020000D01*
G75*
G02*
X13462805Y34245000I225000J0D01*
G01*
G37*
G36*
G01*
X13462805Y32695000D02*
X13962805Y32695000D01*
G75*
G02*
X14187805Y32470000I0J-225000D01*
G01*
X14187805Y32020000D01*
G75*
G02*
X13962805Y31795000I-225000J0D01*
G01*
X13462805Y31795000D01*
G75*
G02*
X13237805Y32020000I0J225000D01*
G01*
X13237805Y32470000D01*
G75*
G02*
X13462805Y32695000I225000J0D01*
G01*
G37*
G36*
G01*
X65906200Y4630200D02*
X65056200Y4630200D01*
G75*
G02*
X64806200Y4880200I0J250000D01*
G01*
X64806200Y5780200D01*
G75*
G02*
X65056200Y6030200I250000J0D01*
G01*
X65906200Y6030200D01*
G75*
G02*
X66156200Y5780200I0J-250000D01*
G01*
X66156200Y4880200D01*
G75*
G02*
X65906200Y4630200I-250000J0D01*
G01*
G37*
G36*
G01*
X65906200Y7330200D02*
X65056200Y7330200D01*
G75*
G02*
X64806200Y7580200I0J250000D01*
G01*
X64806200Y8480200D01*
G75*
G02*
X65056200Y8730200I250000J0D01*
G01*
X65906200Y8730200D01*
G75*
G02*
X66156200Y8480200I0J-250000D01*
G01*
X66156200Y7580200D01*
G75*
G02*
X65906200Y7330200I-250000J0D01*
G01*
G37*
G36*
G01*
X11217615Y13606503D02*
X11017615Y13606503D01*
G75*
G02*
X10917615Y13706503I0J100000D01*
G01*
X10917615Y14981503D01*
G75*
G02*
X11017615Y15081503I100000J0D01*
G01*
X11217615Y15081503D01*
G75*
G02*
X11317615Y14981503I0J-100000D01*
G01*
X11317615Y13706503D01*
G75*
G02*
X11217615Y13606503I-100000J0D01*
G01*
G37*
G36*
G01*
X11867615Y13606503D02*
X11667615Y13606503D01*
G75*
G02*
X11567615Y13706503I0J100000D01*
G01*
X11567615Y14981503D01*
G75*
G02*
X11667615Y15081503I100000J0D01*
G01*
X11867615Y15081503D01*
G75*
G02*
X11967615Y14981503I0J-100000D01*
G01*
X11967615Y13706503D01*
G75*
G02*
X11867615Y13606503I-100000J0D01*
G01*
G37*
G36*
G01*
X12517615Y13606503D02*
X12317615Y13606503D01*
G75*
G02*
X12217615Y13706503I0J100000D01*
G01*
X12217615Y14981503D01*
G75*
G02*
X12317615Y15081503I100000J0D01*
G01*
X12517615Y15081503D01*
G75*
G02*
X12617615Y14981503I0J-100000D01*
G01*
X12617615Y13706503D01*
G75*
G02*
X12517615Y13606503I-100000J0D01*
G01*
G37*
G36*
G01*
X13167615Y13606503D02*
X12967615Y13606503D01*
G75*
G02*
X12867615Y13706503I0J100000D01*
G01*
X12867615Y14981503D01*
G75*
G02*
X12967615Y15081503I100000J0D01*
G01*
X13167615Y15081503D01*
G75*
G02*
X13267615Y14981503I0J-100000D01*
G01*
X13267615Y13706503D01*
G75*
G02*
X13167615Y13606503I-100000J0D01*
G01*
G37*
G36*
G01*
X13817615Y13606503D02*
X13617615Y13606503D01*
G75*
G02*
X13517615Y13706503I0J100000D01*
G01*
X13517615Y14981503D01*
G75*
G02*
X13617615Y15081503I100000J0D01*
G01*
X13817615Y15081503D01*
G75*
G02*
X13917615Y14981503I0J-100000D01*
G01*
X13917615Y13706503D01*
G75*
G02*
X13817615Y13606503I-100000J0D01*
G01*
G37*
G36*
G01*
X14467615Y13606503D02*
X14267615Y13606503D01*
G75*
G02*
X14167615Y13706503I0J100000D01*
G01*
X14167615Y14981503D01*
G75*
G02*
X14267615Y15081503I100000J0D01*
G01*
X14467615Y15081503D01*
G75*
G02*
X14567615Y14981503I0J-100000D01*
G01*
X14567615Y13706503D01*
G75*
G02*
X14467615Y13606503I-100000J0D01*
G01*
G37*
G36*
G01*
X15117615Y13606503D02*
X14917615Y13606503D01*
G75*
G02*
X14817615Y13706503I0J100000D01*
G01*
X14817615Y14981503D01*
G75*
G02*
X14917615Y15081503I100000J0D01*
G01*
X15117615Y15081503D01*
G75*
G02*
X15217615Y14981503I0J-100000D01*
G01*
X15217615Y13706503D01*
G75*
G02*
X15117615Y13606503I-100000J0D01*
G01*
G37*
G36*
G01*
X15767615Y13606503D02*
X15567615Y13606503D01*
G75*
G02*
X15467615Y13706503I0J100000D01*
G01*
X15467615Y14981503D01*
G75*
G02*
X15567615Y15081503I100000J0D01*
G01*
X15767615Y15081503D01*
G75*
G02*
X15867615Y14981503I0J-100000D01*
G01*
X15867615Y13706503D01*
G75*
G02*
X15767615Y13606503I-100000J0D01*
G01*
G37*
G36*
G01*
X16417615Y13606503D02*
X16217615Y13606503D01*
G75*
G02*
X16117615Y13706503I0J100000D01*
G01*
X16117615Y14981503D01*
G75*
G02*
X16217615Y15081503I100000J0D01*
G01*
X16417615Y15081503D01*
G75*
G02*
X16517615Y14981503I0J-100000D01*
G01*
X16517615Y13706503D01*
G75*
G02*
X16417615Y13606503I-100000J0D01*
G01*
G37*
G36*
G01*
X17067615Y13606503D02*
X16867615Y13606503D01*
G75*
G02*
X16767615Y13706503I0J100000D01*
G01*
X16767615Y14981503D01*
G75*
G02*
X16867615Y15081503I100000J0D01*
G01*
X17067615Y15081503D01*
G75*
G02*
X17167615Y14981503I0J-100000D01*
G01*
X17167615Y13706503D01*
G75*
G02*
X17067615Y13606503I-100000J0D01*
G01*
G37*
G36*
G01*
X17067615Y19331503D02*
X16867615Y19331503D01*
G75*
G02*
X16767615Y19431503I0J100000D01*
G01*
X16767615Y20706503D01*
G75*
G02*
X16867615Y20806503I100000J0D01*
G01*
X17067615Y20806503D01*
G75*
G02*
X17167615Y20706503I0J-100000D01*
G01*
X17167615Y19431503D01*
G75*
G02*
X17067615Y19331503I-100000J0D01*
G01*
G37*
G36*
G01*
X16417615Y19331503D02*
X16217615Y19331503D01*
G75*
G02*
X16117615Y19431503I0J100000D01*
G01*
X16117615Y20706503D01*
G75*
G02*
X16217615Y20806503I100000J0D01*
G01*
X16417615Y20806503D01*
G75*
G02*
X16517615Y20706503I0J-100000D01*
G01*
X16517615Y19431503D01*
G75*
G02*
X16417615Y19331503I-100000J0D01*
G01*
G37*
G36*
G01*
X15767615Y19331503D02*
X15567615Y19331503D01*
G75*
G02*
X15467615Y19431503I0J100000D01*
G01*
X15467615Y20706503D01*
G75*
G02*
X15567615Y20806503I100000J0D01*
G01*
X15767615Y20806503D01*
G75*
G02*
X15867615Y20706503I0J-100000D01*
G01*
X15867615Y19431503D01*
G75*
G02*
X15767615Y19331503I-100000J0D01*
G01*
G37*
G36*
G01*
X15117615Y19331503D02*
X14917615Y19331503D01*
G75*
G02*
X14817615Y19431503I0J100000D01*
G01*
X14817615Y20706503D01*
G75*
G02*
X14917615Y20806503I100000J0D01*
G01*
X15117615Y20806503D01*
G75*
G02*
X15217615Y20706503I0J-100000D01*
G01*
X15217615Y19431503D01*
G75*
G02*
X15117615Y19331503I-100000J0D01*
G01*
G37*
G36*
G01*
X14467615Y19331503D02*
X14267615Y19331503D01*
G75*
G02*
X14167615Y19431503I0J100000D01*
G01*
X14167615Y20706503D01*
G75*
G02*
X14267615Y20806503I100000J0D01*
G01*
X14467615Y20806503D01*
G75*
G02*
X14567615Y20706503I0J-100000D01*
G01*
X14567615Y19431503D01*
G75*
G02*
X14467615Y19331503I-100000J0D01*
G01*
G37*
G36*
G01*
X13817615Y19331503D02*
X13617615Y19331503D01*
G75*
G02*
X13517615Y19431503I0J100000D01*
G01*
X13517615Y20706503D01*
G75*
G02*
X13617615Y20806503I100000J0D01*
G01*
X13817615Y20806503D01*
G75*
G02*
X13917615Y20706503I0J-100000D01*
G01*
X13917615Y19431503D01*
G75*
G02*
X13817615Y19331503I-100000J0D01*
G01*
G37*
G36*
G01*
X13167615Y19331503D02*
X12967615Y19331503D01*
G75*
G02*
X12867615Y19431503I0J100000D01*
G01*
X12867615Y20706503D01*
G75*
G02*
X12967615Y20806503I100000J0D01*
G01*
X13167615Y20806503D01*
G75*
G02*
X13267615Y20706503I0J-100000D01*
G01*
X13267615Y19431503D01*
G75*
G02*
X13167615Y19331503I-100000J0D01*
G01*
G37*
G36*
G01*
X12517615Y19331503D02*
X12317615Y19331503D01*
G75*
G02*
X12217615Y19431503I0J100000D01*
G01*
X12217615Y20706503D01*
G75*
G02*
X12317615Y20806503I100000J0D01*
G01*
X12517615Y20806503D01*
G75*
G02*
X12617615Y20706503I0J-100000D01*
G01*
X12617615Y19431503D01*
G75*
G02*
X12517615Y19331503I-100000J0D01*
G01*
G37*
G36*
G01*
X11867615Y19331503D02*
X11667615Y19331503D01*
G75*
G02*
X11567615Y19431503I0J100000D01*
G01*
X11567615Y20706503D01*
G75*
G02*
X11667615Y20806503I100000J0D01*
G01*
X11867615Y20806503D01*
G75*
G02*
X11967615Y20706503I0J-100000D01*
G01*
X11967615Y19431503D01*
G75*
G02*
X11867615Y19331503I-100000J0D01*
G01*
G37*
G36*
G01*
X11217615Y19331503D02*
X11017615Y19331503D01*
G75*
G02*
X10917615Y19431503I0J100000D01*
G01*
X10917615Y20706503D01*
G75*
G02*
X11017615Y20806503I100000J0D01*
G01*
X11217615Y20806503D01*
G75*
G02*
X11317615Y20706503I0J-100000D01*
G01*
X11317615Y19431503D01*
G75*
G02*
X11217615Y19331503I-100000J0D01*
G01*
G37*
G36*
G01*
X33065000Y4433503D02*
X33065000Y4983503D01*
G75*
G02*
X33265000Y5183503I200000J0D01*
G01*
X33665000Y5183503D01*
G75*
G02*
X33865000Y4983503I0J-200000D01*
G01*
X33865000Y4433503D01*
G75*
G02*
X33665000Y4233503I-200000J0D01*
G01*
X33265000Y4233503D01*
G75*
G02*
X33065000Y4433503I0J200000D01*
G01*
G37*
G36*
G01*
X34715000Y4433503D02*
X34715000Y4983503D01*
G75*
G02*
X34915000Y5183503I200000J0D01*
G01*
X35315000Y5183503D01*
G75*
G02*
X35515000Y4983503I0J-200000D01*
G01*
X35515000Y4433503D01*
G75*
G02*
X35315000Y4233503I-200000J0D01*
G01*
X34915000Y4233503D01*
G75*
G02*
X34715000Y4433503I0J200000D01*
G01*
G37*
G36*
G01*
X15666000Y35843800D02*
X15666000Y36393800D01*
G75*
G02*
X15866000Y36593800I200000J0D01*
G01*
X16266000Y36593800D01*
G75*
G02*
X16466000Y36393800I0J-200000D01*
G01*
X16466000Y35843800D01*
G75*
G02*
X16266000Y35643800I-200000J0D01*
G01*
X15866000Y35643800D01*
G75*
G02*
X15666000Y35843800I0J200000D01*
G01*
G37*
G36*
G01*
X17316000Y35843800D02*
X17316000Y36393800D01*
G75*
G02*
X17516000Y36593800I200000J0D01*
G01*
X17916000Y36593800D01*
G75*
G02*
X18116000Y36393800I0J-200000D01*
G01*
X18116000Y35843800D01*
G75*
G02*
X17916000Y35643800I-200000J0D01*
G01*
X17516000Y35643800D01*
G75*
G02*
X17316000Y35843800I0J200000D01*
G01*
G37*
G36*
G01*
X74793001Y17236897D02*
X75343001Y17236897D01*
G75*
G02*
X75543001Y17036897I0J-200000D01*
G01*
X75543001Y16636897D01*
G75*
G02*
X75343001Y16436897I-200000J0D01*
G01*
X74793001Y16436897D01*
G75*
G02*
X74593001Y16636897I0J200000D01*
G01*
X74593001Y17036897D01*
G75*
G02*
X74793001Y17236897I200000J0D01*
G01*
G37*
G36*
G01*
X74793001Y15586897D02*
X75343001Y15586897D01*
G75*
G02*
X75543001Y15386897I0J-200000D01*
G01*
X75543001Y14986897D01*
G75*
G02*
X75343001Y14786897I-200000J0D01*
G01*
X74793001Y14786897D01*
G75*
G02*
X74593001Y14986897I0J200000D01*
G01*
X74593001Y15386897D01*
G75*
G02*
X74793001Y15586897I200000J0D01*
G01*
G37*
G36*
G01*
X66757000Y17724800D02*
X66757000Y17174800D01*
G75*
G02*
X66557000Y16974800I-200000J0D01*
G01*
X66157000Y16974800D01*
G75*
G02*
X65957000Y17174800I0J200000D01*
G01*
X65957000Y17724800D01*
G75*
G02*
X66157000Y17924800I200000J0D01*
G01*
X66557000Y17924800D01*
G75*
G02*
X66757000Y17724800I0J-200000D01*
G01*
G37*
G36*
G01*
X65107000Y17724800D02*
X65107000Y17174800D01*
G75*
G02*
X64907000Y16974800I-200000J0D01*
G01*
X64507000Y16974800D01*
G75*
G02*
X64307000Y17174800I0J200000D01*
G01*
X64307000Y17724800D01*
G75*
G02*
X64507000Y17924800I200000J0D01*
G01*
X64907000Y17924800D01*
G75*
G02*
X65107000Y17724800I0J-200000D01*
G01*
G37*
G36*
G01*
X20873000Y5484003D02*
X20873000Y5984003D01*
G75*
G02*
X21098000Y6209003I225000J0D01*
G01*
X21548000Y6209003D01*
G75*
G02*
X21773000Y5984003I0J-225000D01*
G01*
X21773000Y5484003D01*
G75*
G02*
X21548000Y5259003I-225000J0D01*
G01*
X21098000Y5259003D01*
G75*
G02*
X20873000Y5484003I0J225000D01*
G01*
G37*
G36*
G01*
X22423000Y5484003D02*
X22423000Y5984003D01*
G75*
G02*
X22648000Y6209003I225000J0D01*
G01*
X23098000Y6209003D01*
G75*
G02*
X23323000Y5984003I0J-225000D01*
G01*
X23323000Y5484003D01*
G75*
G02*
X23098000Y5259003I-225000J0D01*
G01*
X22648000Y5259003D01*
G75*
G02*
X22423000Y5484003I0J225000D01*
G01*
G37*
D17*
X80289400Y6324600D03*
X80289400Y8864600D03*
X80289400Y11404600D03*
X80289400Y13944600D03*
X80289400Y16484600D03*
G36*
G01*
X65485600Y16160200D02*
X66035600Y16160200D01*
G75*
G02*
X66235600Y15960200I0J-200000D01*
G01*
X66235600Y15560200D01*
G75*
G02*
X66035600Y15360200I-200000J0D01*
G01*
X65485600Y15360200D01*
G75*
G02*
X65285600Y15560200I0J200000D01*
G01*
X65285600Y15960200D01*
G75*
G02*
X65485600Y16160200I200000J0D01*
G01*
G37*
G36*
G01*
X65485600Y14510200D02*
X66035600Y14510200D01*
G75*
G02*
X66235600Y14310200I0J-200000D01*
G01*
X66235600Y13910200D01*
G75*
G02*
X66035600Y13710200I-200000J0D01*
G01*
X65485600Y13710200D01*
G75*
G02*
X65285600Y13910200I0J200000D01*
G01*
X65285600Y14310200D01*
G75*
G02*
X65485600Y14510200I200000J0D01*
G01*
G37*
G36*
G01*
X76688801Y13140004D02*
X77238801Y13140004D01*
G75*
G02*
X77438801Y12940004I0J-200000D01*
G01*
X77438801Y12540004D01*
G75*
G02*
X77238801Y12340004I-200000J0D01*
G01*
X76688801Y12340004D01*
G75*
G02*
X76488801Y12540004I0J200000D01*
G01*
X76488801Y12940004D01*
G75*
G02*
X76688801Y13140004I200000J0D01*
G01*
G37*
G36*
G01*
X76688801Y11490004D02*
X77238801Y11490004D01*
G75*
G02*
X77438801Y11290004I0J-200000D01*
G01*
X77438801Y10890004D01*
G75*
G02*
X77238801Y10690004I-200000J0D01*
G01*
X76688801Y10690004D01*
G75*
G02*
X76488801Y10890004I0J200000D01*
G01*
X76488801Y11290004D01*
G75*
G02*
X76688801Y11490004I200000J0D01*
G01*
G37*
D18*
X78941512Y20116800D03*
D19*
X76401512Y20116800D03*
X73861512Y20116800D03*
X71321512Y20116800D03*
X68781512Y20116800D03*
X66241512Y20116800D03*
G36*
G01*
X1569000Y31856000D02*
X1569000Y32406000D01*
G75*
G02*
X1769000Y32606000I200000J0D01*
G01*
X2169000Y32606000D01*
G75*
G02*
X2369000Y32406000I0J-200000D01*
G01*
X2369000Y31856000D01*
G75*
G02*
X2169000Y31656000I-200000J0D01*
G01*
X1769000Y31656000D01*
G75*
G02*
X1569000Y31856000I0J200000D01*
G01*
G37*
G36*
G01*
X3219000Y31856000D02*
X3219000Y32406000D01*
G75*
G02*
X3419000Y32606000I200000J0D01*
G01*
X3819000Y32606000D01*
G75*
G02*
X4019000Y32406000I0J-200000D01*
G01*
X4019000Y31856000D01*
G75*
G02*
X3819000Y31656000I-200000J0D01*
G01*
X3419000Y31656000D01*
G75*
G02*
X3219000Y31856000I0J200000D01*
G01*
G37*
G36*
G01*
X16867615Y12907103D02*
X17067615Y12907103D01*
G75*
G02*
X17167615Y12807103I0J-100000D01*
G01*
X17167615Y11532103D01*
G75*
G02*
X17067615Y11432103I-100000J0D01*
G01*
X16867615Y11432103D01*
G75*
G02*
X16767615Y11532103I0J100000D01*
G01*
X16767615Y12807103D01*
G75*
G02*
X16867615Y12907103I100000J0D01*
G01*
G37*
G36*
G01*
X16217615Y12907103D02*
X16417615Y12907103D01*
G75*
G02*
X16517615Y12807103I0J-100000D01*
G01*
X16517615Y11532103D01*
G75*
G02*
X16417615Y11432103I-100000J0D01*
G01*
X16217615Y11432103D01*
G75*
G02*
X16117615Y11532103I0J100000D01*
G01*
X16117615Y12807103D01*
G75*
G02*
X16217615Y12907103I100000J0D01*
G01*
G37*
G36*
G01*
X15567615Y12907103D02*
X15767615Y12907103D01*
G75*
G02*
X15867615Y12807103I0J-100000D01*
G01*
X15867615Y11532103D01*
G75*
G02*
X15767615Y11432103I-100000J0D01*
G01*
X15567615Y11432103D01*
G75*
G02*
X15467615Y11532103I0J100000D01*
G01*
X15467615Y12807103D01*
G75*
G02*
X15567615Y12907103I100000J0D01*
G01*
G37*
G36*
G01*
X14917615Y12907103D02*
X15117615Y12907103D01*
G75*
G02*
X15217615Y12807103I0J-100000D01*
G01*
X15217615Y11532103D01*
G75*
G02*
X15117615Y11432103I-100000J0D01*
G01*
X14917615Y11432103D01*
G75*
G02*
X14817615Y11532103I0J100000D01*
G01*
X14817615Y12807103D01*
G75*
G02*
X14917615Y12907103I100000J0D01*
G01*
G37*
G36*
G01*
X14267615Y12907103D02*
X14467615Y12907103D01*
G75*
G02*
X14567615Y12807103I0J-100000D01*
G01*
X14567615Y11532103D01*
G75*
G02*
X14467615Y11432103I-100000J0D01*
G01*
X14267615Y11432103D01*
G75*
G02*
X14167615Y11532103I0J100000D01*
G01*
X14167615Y12807103D01*
G75*
G02*
X14267615Y12907103I100000J0D01*
G01*
G37*
G36*
G01*
X13617615Y12907103D02*
X13817615Y12907103D01*
G75*
G02*
X13917615Y12807103I0J-100000D01*
G01*
X13917615Y11532103D01*
G75*
G02*
X13817615Y11432103I-100000J0D01*
G01*
X13617615Y11432103D01*
G75*
G02*
X13517615Y11532103I0J100000D01*
G01*
X13517615Y12807103D01*
G75*
G02*
X13617615Y12907103I100000J0D01*
G01*
G37*
G36*
G01*
X12967615Y12907103D02*
X13167615Y12907103D01*
G75*
G02*
X13267615Y12807103I0J-100000D01*
G01*
X13267615Y11532103D01*
G75*
G02*
X13167615Y11432103I-100000J0D01*
G01*
X12967615Y11432103D01*
G75*
G02*
X12867615Y11532103I0J100000D01*
G01*
X12867615Y12807103D01*
G75*
G02*
X12967615Y12907103I100000J0D01*
G01*
G37*
G36*
G01*
X12317615Y12907103D02*
X12517615Y12907103D01*
G75*
G02*
X12617615Y12807103I0J-100000D01*
G01*
X12617615Y11532103D01*
G75*
G02*
X12517615Y11432103I-100000J0D01*
G01*
X12317615Y11432103D01*
G75*
G02*
X12217615Y11532103I0J100000D01*
G01*
X12217615Y12807103D01*
G75*
G02*
X12317615Y12907103I100000J0D01*
G01*
G37*
G36*
G01*
X11667615Y12907103D02*
X11867615Y12907103D01*
G75*
G02*
X11967615Y12807103I0J-100000D01*
G01*
X11967615Y11532103D01*
G75*
G02*
X11867615Y11432103I-100000J0D01*
G01*
X11667615Y11432103D01*
G75*
G02*
X11567615Y11532103I0J100000D01*
G01*
X11567615Y12807103D01*
G75*
G02*
X11667615Y12907103I100000J0D01*
G01*
G37*
G36*
G01*
X11017615Y12907103D02*
X11217615Y12907103D01*
G75*
G02*
X11317615Y12807103I0J-100000D01*
G01*
X11317615Y11532103D01*
G75*
G02*
X11217615Y11432103I-100000J0D01*
G01*
X11017615Y11432103D01*
G75*
G02*
X10917615Y11532103I0J100000D01*
G01*
X10917615Y12807103D01*
G75*
G02*
X11017615Y12907103I100000J0D01*
G01*
G37*
G36*
G01*
X11017615Y7182103D02*
X11217615Y7182103D01*
G75*
G02*
X11317615Y7082103I0J-100000D01*
G01*
X11317615Y5807103D01*
G75*
G02*
X11217615Y5707103I-100000J0D01*
G01*
X11017615Y5707103D01*
G75*
G02*
X10917615Y5807103I0J100000D01*
G01*
X10917615Y7082103D01*
G75*
G02*
X11017615Y7182103I100000J0D01*
G01*
G37*
G36*
G01*
X11667615Y7182103D02*
X11867615Y7182103D01*
G75*
G02*
X11967615Y7082103I0J-100000D01*
G01*
X11967615Y5807103D01*
G75*
G02*
X11867615Y5707103I-100000J0D01*
G01*
X11667615Y5707103D01*
G75*
G02*
X11567615Y5807103I0J100000D01*
G01*
X11567615Y7082103D01*
G75*
G02*
X11667615Y7182103I100000J0D01*
G01*
G37*
G36*
G01*
X12317615Y7182103D02*
X12517615Y7182103D01*
G75*
G02*
X12617615Y7082103I0J-100000D01*
G01*
X12617615Y5807103D01*
G75*
G02*
X12517615Y5707103I-100000J0D01*
G01*
X12317615Y5707103D01*
G75*
G02*
X12217615Y5807103I0J100000D01*
G01*
X12217615Y7082103D01*
G75*
G02*
X12317615Y7182103I100000J0D01*
G01*
G37*
G36*
G01*
X12967615Y7182103D02*
X13167615Y7182103D01*
G75*
G02*
X13267615Y7082103I0J-100000D01*
G01*
X13267615Y5807103D01*
G75*
G02*
X13167615Y5707103I-100000J0D01*
G01*
X12967615Y5707103D01*
G75*
G02*
X12867615Y5807103I0J100000D01*
G01*
X12867615Y7082103D01*
G75*
G02*
X12967615Y7182103I100000J0D01*
G01*
G37*
G36*
G01*
X13617615Y7182103D02*
X13817615Y7182103D01*
G75*
G02*
X13917615Y7082103I0J-100000D01*
G01*
X13917615Y5807103D01*
G75*
G02*
X13817615Y5707103I-100000J0D01*
G01*
X13617615Y5707103D01*
G75*
G02*
X13517615Y5807103I0J100000D01*
G01*
X13517615Y7082103D01*
G75*
G02*
X13617615Y7182103I100000J0D01*
G01*
G37*
G36*
G01*
X14267615Y7182103D02*
X14467615Y7182103D01*
G75*
G02*
X14567615Y7082103I0J-100000D01*
G01*
X14567615Y5807103D01*
G75*
G02*
X14467615Y5707103I-100000J0D01*
G01*
X14267615Y5707103D01*
G75*
G02*
X14167615Y5807103I0J100000D01*
G01*
X14167615Y7082103D01*
G75*
G02*
X14267615Y7182103I100000J0D01*
G01*
G37*
G36*
G01*
X14917615Y7182103D02*
X15117615Y7182103D01*
G75*
G02*
X15217615Y7082103I0J-100000D01*
G01*
X15217615Y5807103D01*
G75*
G02*
X15117615Y5707103I-100000J0D01*
G01*
X14917615Y5707103D01*
G75*
G02*
X14817615Y5807103I0J100000D01*
G01*
X14817615Y7082103D01*
G75*
G02*
X14917615Y7182103I100000J0D01*
G01*
G37*
G36*
G01*
X15567615Y7182103D02*
X15767615Y7182103D01*
G75*
G02*
X15867615Y7082103I0J-100000D01*
G01*
X15867615Y5807103D01*
G75*
G02*
X15767615Y5707103I-100000J0D01*
G01*
X15567615Y5707103D01*
G75*
G02*
X15467615Y5807103I0J100000D01*
G01*
X15467615Y7082103D01*
G75*
G02*
X15567615Y7182103I100000J0D01*
G01*
G37*
G36*
G01*
X16217615Y7182103D02*
X16417615Y7182103D01*
G75*
G02*
X16517615Y7082103I0J-100000D01*
G01*
X16517615Y5807103D01*
G75*
G02*
X16417615Y5707103I-100000J0D01*
G01*
X16217615Y5707103D01*
G75*
G02*
X16117615Y5807103I0J100000D01*
G01*
X16117615Y7082103D01*
G75*
G02*
X16217615Y7182103I100000J0D01*
G01*
G37*
G36*
G01*
X16867615Y7182103D02*
X17067615Y7182103D01*
G75*
G02*
X17167615Y7082103I0J-100000D01*
G01*
X17167615Y5807103D01*
G75*
G02*
X17067615Y5707103I-100000J0D01*
G01*
X16867615Y5707103D01*
G75*
G02*
X16767615Y5807103I0J100000D01*
G01*
X16767615Y7082103D01*
G75*
G02*
X16867615Y7182103I100000J0D01*
G01*
G37*
G36*
X1253150Y509103D02*
G01*
X856910Y905343D01*
X856910Y2515703D01*
X867939Y2618287D01*
X915942Y2746989D01*
X998260Y2856953D01*
X1108224Y2939271D01*
X1236926Y2987274D01*
X1339510Y2998303D01*
X2355510Y2998303D01*
X2458094Y2987274D01*
X2586796Y2939271D01*
X2696760Y2856953D01*
X2779078Y2746989D01*
X2827081Y2618287D01*
X2838110Y2515703D01*
X2838110Y991703D01*
X2827081Y889119D01*
X2779078Y760417D01*
X2696760Y650453D01*
X2586796Y568135D01*
X2458094Y520132D01*
X2355510Y509103D01*
X1253150Y509103D01*
G37*
G36*
G01*
X4895510Y509103D02*
X3879510Y509103D01*
G75*
G02*
X3396910Y991703I0J482600D01*
G01*
X3396910Y2515703D01*
G75*
G02*
X3879510Y2998303I482600J0D01*
G01*
X4895510Y2998303D01*
G75*
G02*
X5378110Y2515703I0J-482600D01*
G01*
X5378110Y991703D01*
G75*
G02*
X4895510Y509103I-482600J0D01*
G01*
G37*
G36*
G01*
X7435510Y509103D02*
X6419510Y509103D01*
G75*
G02*
X5936910Y991703I0J482600D01*
G01*
X5936910Y2515703D01*
G75*
G02*
X6419510Y2998303I482600J0D01*
G01*
X7435510Y2998303D01*
G75*
G02*
X7918110Y2515703I0J-482600D01*
G01*
X7918110Y991703D01*
G75*
G02*
X7435510Y509103I-482600J0D01*
G01*
G37*
G36*
G01*
X9975510Y509103D02*
X8959510Y509103D01*
G75*
G02*
X8476910Y991703I0J482600D01*
G01*
X8476910Y2515703D01*
G75*
G02*
X8959510Y2998303I482600J0D01*
G01*
X9975510Y2998303D01*
G75*
G02*
X10458110Y2515703I0J-482600D01*
G01*
X10458110Y991703D01*
G75*
G02*
X9975510Y509103I-482600J0D01*
G01*
G37*
G36*
G01*
X12515510Y509103D02*
X11499510Y509103D01*
G75*
G02*
X11016910Y991703I0J482600D01*
G01*
X11016910Y2515703D01*
G75*
G02*
X11499510Y2998303I482600J0D01*
G01*
X12515510Y2998303D01*
G75*
G02*
X12998110Y2515703I0J-482600D01*
G01*
X12998110Y991703D01*
G75*
G02*
X12515510Y509103I-482600J0D01*
G01*
G37*
G36*
G01*
X15055510Y509103D02*
X14039510Y509103D01*
G75*
G02*
X13556910Y991703I0J482600D01*
G01*
X13556910Y2515703D01*
G75*
G02*
X14039510Y2998303I482600J0D01*
G01*
X15055510Y2998303D01*
G75*
G02*
X15538110Y2515703I0J-482600D01*
G01*
X15538110Y991703D01*
G75*
G02*
X15055510Y509103I-482600J0D01*
G01*
G37*
G36*
G01*
X17595510Y509103D02*
X16579510Y509103D01*
G75*
G02*
X16096910Y991703I0J482600D01*
G01*
X16096910Y2515703D01*
G75*
G02*
X16579510Y2998303I482600J0D01*
G01*
X17595510Y2998303D01*
G75*
G02*
X18078110Y2515703I0J-482600D01*
G01*
X18078110Y991703D01*
G75*
G02*
X17595510Y509103I-482600J0D01*
G01*
G37*
G36*
G01*
X20135510Y509103D02*
X19119510Y509103D01*
G75*
G02*
X18636910Y991703I0J482600D01*
G01*
X18636910Y2515703D01*
G75*
G02*
X19119510Y2998303I482600J0D01*
G01*
X20135510Y2998303D01*
G75*
G02*
X20618110Y2515703I0J-482600D01*
G01*
X20618110Y991703D01*
G75*
G02*
X20135510Y509103I-482600J0D01*
G01*
G37*
G36*
G01*
X22675510Y509103D02*
X21659510Y509103D01*
G75*
G02*
X21176910Y991703I0J482600D01*
G01*
X21176910Y2515703D01*
G75*
G02*
X21659510Y2998303I482600J0D01*
G01*
X22675510Y2998303D01*
G75*
G02*
X23158110Y2515703I0J-482600D01*
G01*
X23158110Y991703D01*
G75*
G02*
X22675510Y509103I-482600J0D01*
G01*
G37*
G36*
G01*
X25215510Y509103D02*
X24199510Y509103D01*
G75*
G02*
X23716910Y991703I0J482600D01*
G01*
X23716910Y2515703D01*
G75*
G02*
X24199510Y2998303I482600J0D01*
G01*
X25215510Y2998303D01*
G75*
G02*
X25698110Y2515703I0J-482600D01*
G01*
X25698110Y991703D01*
G75*
G02*
X25215510Y509103I-482600J0D01*
G01*
G37*
G36*
G01*
X27755510Y509103D02*
X26739510Y509103D01*
G75*
G02*
X26256910Y991703I0J482600D01*
G01*
X26256910Y2515703D01*
G75*
G02*
X26739510Y2998303I482600J0D01*
G01*
X27755510Y2998303D01*
G75*
G02*
X28238110Y2515703I0J-482600D01*
G01*
X28238110Y991703D01*
G75*
G02*
X27755510Y509103I-482600J0D01*
G01*
G37*
G36*
G01*
X30295510Y509103D02*
X29279510Y509103D01*
G75*
G02*
X28796910Y991703I0J482600D01*
G01*
X28796910Y2515703D01*
G75*
G02*
X29279510Y2998303I482600J0D01*
G01*
X30295510Y2998303D01*
G75*
G02*
X30778110Y2515703I0J-482600D01*
G01*
X30778110Y991703D01*
G75*
G02*
X30295510Y509103I-482600J0D01*
G01*
G37*
G36*
G01*
X32835510Y509103D02*
X31819510Y509103D01*
G75*
G02*
X31336910Y991703I0J482600D01*
G01*
X31336910Y2515703D01*
G75*
G02*
X31819510Y2998303I482600J0D01*
G01*
X32835510Y2998303D01*
G75*
G02*
X33318110Y2515703I0J-482600D01*
G01*
X33318110Y991703D01*
G75*
G02*
X32835510Y509103I-482600J0D01*
G01*
G37*
G36*
G01*
X35375510Y509103D02*
X34359510Y509103D01*
G75*
G02*
X33876910Y991703I0J482600D01*
G01*
X33876910Y2515703D01*
G75*
G02*
X34359510Y2998303I482600J0D01*
G01*
X35375510Y2998303D01*
G75*
G02*
X35858110Y2515703I0J-482600D01*
G01*
X35858110Y991703D01*
G75*
G02*
X35375510Y509103I-482600J0D01*
G01*
G37*
G36*
G01*
X37915510Y509103D02*
X36899510Y509103D01*
G75*
G02*
X36416910Y991703I0J482600D01*
G01*
X36416910Y2515703D01*
G75*
G02*
X36899510Y2998303I482600J0D01*
G01*
X37915510Y2998303D01*
G75*
G02*
X38398110Y2515703I0J-482600D01*
G01*
X38398110Y991703D01*
G75*
G02*
X37915510Y509103I-482600J0D01*
G01*
G37*
G36*
G01*
X40455510Y509103D02*
X39439510Y509103D01*
G75*
G02*
X38956910Y991703I0J482600D01*
G01*
X38956910Y2515703D01*
G75*
G02*
X39439510Y2998303I482600J0D01*
G01*
X40455510Y2998303D01*
G75*
G02*
X40938110Y2515703I0J-482600D01*
G01*
X40938110Y991703D01*
G75*
G02*
X40455510Y509103I-482600J0D01*
G01*
G37*
G36*
G01*
X42995510Y509103D02*
X41979510Y509103D01*
G75*
G02*
X41496910Y991703I0J482600D01*
G01*
X41496910Y2515703D01*
G75*
G02*
X41979510Y2998303I482600J0D01*
G01*
X42995510Y2998303D01*
G75*
G02*
X43478110Y2515703I0J-482600D01*
G01*
X43478110Y991703D01*
G75*
G02*
X42995510Y509103I-482600J0D01*
G01*
G37*
G36*
G01*
X45535510Y509103D02*
X44519510Y509103D01*
G75*
G02*
X44036910Y991703I0J482600D01*
G01*
X44036910Y2515703D01*
G75*
G02*
X44519510Y2998303I482600J0D01*
G01*
X45535510Y2998303D01*
G75*
G02*
X46018110Y2515703I0J-482600D01*
G01*
X46018110Y991703D01*
G75*
G02*
X45535510Y509103I-482600J0D01*
G01*
G37*
G36*
G01*
X48075510Y509103D02*
X47059510Y509103D01*
G75*
G02*
X46576910Y991703I0J482600D01*
G01*
X46576910Y2515703D01*
G75*
G02*
X47059510Y2998303I482600J0D01*
G01*
X48075510Y2998303D01*
G75*
G02*
X48558110Y2515703I0J-482600D01*
G01*
X48558110Y991703D01*
G75*
G02*
X48075510Y509103I-482600J0D01*
G01*
G37*
G36*
G01*
X50615510Y509103D02*
X49599510Y509103D01*
G75*
G02*
X49116910Y991703I0J482600D01*
G01*
X49116910Y2515703D01*
G75*
G02*
X49599510Y2998303I482600J0D01*
G01*
X50615510Y2998303D01*
G75*
G02*
X51098110Y2515703I0J-482600D01*
G01*
X51098110Y991703D01*
G75*
G02*
X50615510Y509103I-482600J0D01*
G01*
G37*
G36*
G01*
X53155510Y509103D02*
X52139510Y509103D01*
G75*
G02*
X51656910Y991703I0J482600D01*
G01*
X51656910Y2515703D01*
G75*
G02*
X52139510Y2998303I482600J0D01*
G01*
X53155510Y2998303D01*
G75*
G02*
X53638110Y2515703I0J-482600D01*
G01*
X53638110Y991703D01*
G75*
G02*
X53155510Y509103I-482600J0D01*
G01*
G37*
G36*
G01*
X55695510Y509103D02*
X54679510Y509103D01*
G75*
G02*
X54196910Y991703I0J482600D01*
G01*
X54196910Y2515703D01*
G75*
G02*
X54679510Y2998303I482600J0D01*
G01*
X55695510Y2998303D01*
G75*
G02*
X56178110Y2515703I0J-482600D01*
G01*
X56178110Y991703D01*
G75*
G02*
X55695510Y509103I-482600J0D01*
G01*
G37*
G36*
G01*
X58235510Y509103D02*
X57219510Y509103D01*
G75*
G02*
X56736910Y991703I0J482600D01*
G01*
X56736910Y2515703D01*
G75*
G02*
X57219510Y2998303I482600J0D01*
G01*
X58235510Y2998303D01*
G75*
G02*
X58718110Y2515703I0J-482600D01*
G01*
X58718110Y991703D01*
G75*
G02*
X58235510Y509103I-482600J0D01*
G01*
G37*
G36*
G01*
X60775510Y509103D02*
X59759510Y509103D01*
G75*
G02*
X59276910Y991703I0J482600D01*
G01*
X59276910Y2515703D01*
G75*
G02*
X59759510Y2998303I482600J0D01*
G01*
X60775510Y2998303D01*
G75*
G02*
X61258110Y2515703I0J-482600D01*
G01*
X61258110Y991703D01*
G75*
G02*
X60775510Y509103I-482600J0D01*
G01*
G37*
G36*
G01*
X63315510Y509103D02*
X62299510Y509103D01*
G75*
G02*
X61816910Y991703I0J482600D01*
G01*
X61816910Y2515703D01*
G75*
G02*
X62299510Y2998303I482600J0D01*
G01*
X63315510Y2998303D01*
G75*
G02*
X63798110Y2515703I0J-482600D01*
G01*
X63798110Y991703D01*
G75*
G02*
X63315510Y509103I-482600J0D01*
G01*
G37*
G36*
G01*
X65855510Y509103D02*
X64839510Y509103D01*
G75*
G02*
X64356910Y991703I0J482600D01*
G01*
X64356910Y2515703D01*
G75*
G02*
X64839510Y2998303I482600J0D01*
G01*
X65855510Y2998303D01*
G75*
G02*
X66338110Y2515703I0J-482600D01*
G01*
X66338110Y991703D01*
G75*
G02*
X65855510Y509103I-482600J0D01*
G01*
G37*
G36*
G01*
X68395510Y509103D02*
X67379510Y509103D01*
G75*
G02*
X66896910Y991703I0J482600D01*
G01*
X66896910Y2515703D01*
G75*
G02*
X67379510Y2998303I482600J0D01*
G01*
X68395510Y2998303D01*
G75*
G02*
X68878110Y2515703I0J-482600D01*
G01*
X68878110Y991703D01*
G75*
G02*
X68395510Y509103I-482600J0D01*
G01*
G37*
G36*
G01*
X70935510Y509103D02*
X69919510Y509103D01*
G75*
G02*
X69436910Y991703I0J482600D01*
G01*
X69436910Y2515703D01*
G75*
G02*
X69919510Y2998303I482600J0D01*
G01*
X70935510Y2998303D01*
G75*
G02*
X71418110Y2515703I0J-482600D01*
G01*
X71418110Y991703D01*
G75*
G02*
X70935510Y509103I-482600J0D01*
G01*
G37*
G36*
G01*
X73475510Y509103D02*
X72459510Y509103D01*
G75*
G02*
X71976910Y991703I0J482600D01*
G01*
X71976910Y2515703D01*
G75*
G02*
X72459510Y2998303I482600J0D01*
G01*
X73475510Y2998303D01*
G75*
G02*
X73958110Y2515703I0J-482600D01*
G01*
X73958110Y991703D01*
G75*
G02*
X73475510Y509103I-482600J0D01*
G01*
G37*
G36*
G01*
X76015510Y509103D02*
X74999510Y509103D01*
G75*
G02*
X74516910Y991703I0J482600D01*
G01*
X74516910Y2515703D01*
G75*
G02*
X74999510Y2998303I482600J0D01*
G01*
X76015510Y2998303D01*
G75*
G02*
X76498110Y2515703I0J-482600D01*
G01*
X76498110Y991703D01*
G75*
G02*
X76015510Y509103I-482600J0D01*
G01*
G37*
G36*
G01*
X78555510Y509103D02*
X77539510Y509103D01*
G75*
G02*
X77056910Y991703I0J482600D01*
G01*
X77056910Y2515703D01*
G75*
G02*
X77539510Y2998303I482600J0D01*
G01*
X78555510Y2998303D01*
G75*
G02*
X79038110Y2515703I0J-482600D01*
G01*
X79038110Y991703D01*
G75*
G02*
X78555510Y509103I-482600J0D01*
G01*
G37*
G36*
G01*
X81095510Y509103D02*
X80079510Y509103D01*
G75*
G02*
X79596910Y991703I0J482600D01*
G01*
X79596910Y2515703D01*
G75*
G02*
X80079510Y2998303I482600J0D01*
G01*
X81095510Y2998303D01*
G75*
G02*
X81578110Y2515703I0J-482600D01*
G01*
X81578110Y991703D01*
G75*
G02*
X81095510Y509103I-482600J0D01*
G01*
G37*
G36*
G01*
X81095510Y23877103D02*
X80079510Y23877103D01*
G75*
G02*
X79596910Y24359703I0J482600D01*
G01*
X79596910Y25883703D01*
G75*
G02*
X80079510Y26366303I482600J0D01*
G01*
X81095510Y26366303D01*
G75*
G02*
X81578110Y25883703I0J-482600D01*
G01*
X81578110Y24359703D01*
G75*
G02*
X81095510Y23877103I-482600J0D01*
G01*
G37*
G36*
G01*
X78555510Y23877103D02*
X77539510Y23877103D01*
G75*
G02*
X77056910Y24359703I0J482600D01*
G01*
X77056910Y25883703D01*
G75*
G02*
X77539510Y26366303I482600J0D01*
G01*
X78555510Y26366303D01*
G75*
G02*
X79038110Y25883703I0J-482600D01*
G01*
X79038110Y24359703D01*
G75*
G02*
X78555510Y23877103I-482600J0D01*
G01*
G37*
G36*
G01*
X76015510Y23877103D02*
X74999510Y23877103D01*
G75*
G02*
X74516910Y24359703I0J482600D01*
G01*
X74516910Y25883703D01*
G75*
G02*
X74999510Y26366303I482600J0D01*
G01*
X76015510Y26366303D01*
G75*
G02*
X76498110Y25883703I0J-482600D01*
G01*
X76498110Y24359703D01*
G75*
G02*
X76015510Y23877103I-482600J0D01*
G01*
G37*
G36*
G01*
X73475510Y23877103D02*
X72459510Y23877103D01*
G75*
G02*
X71976910Y24359703I0J482600D01*
G01*
X71976910Y25883703D01*
G75*
G02*
X72459510Y26366303I482600J0D01*
G01*
X73475510Y26366303D01*
G75*
G02*
X73958110Y25883703I0J-482600D01*
G01*
X73958110Y24359703D01*
G75*
G02*
X73475510Y23877103I-482600J0D01*
G01*
G37*
G36*
G01*
X70935510Y23877103D02*
X69919510Y23877103D01*
G75*
G02*
X69436910Y24359703I0J482600D01*
G01*
X69436910Y25883703D01*
G75*
G02*
X69919510Y26366303I482600J0D01*
G01*
X70935510Y26366303D01*
G75*
G02*
X71418110Y25883703I0J-482600D01*
G01*
X71418110Y24359703D01*
G75*
G02*
X70935510Y23877103I-482600J0D01*
G01*
G37*
G36*
G01*
X68395510Y23877103D02*
X67379510Y23877103D01*
G75*
G02*
X66896910Y24359703I0J482600D01*
G01*
X66896910Y25883703D01*
G75*
G02*
X67379510Y26366303I482600J0D01*
G01*
X68395510Y26366303D01*
G75*
G02*
X68878110Y25883703I0J-482600D01*
G01*
X68878110Y24359703D01*
G75*
G02*
X68395510Y23877103I-482600J0D01*
G01*
G37*
G36*
G01*
X65855510Y23877103D02*
X64839510Y23877103D01*
G75*
G02*
X64356910Y24359703I0J482600D01*
G01*
X64356910Y25883703D01*
G75*
G02*
X64839510Y26366303I482600J0D01*
G01*
X65855510Y26366303D01*
G75*
G02*
X66338110Y25883703I0J-482600D01*
G01*
X66338110Y24359703D01*
G75*
G02*
X65855510Y23877103I-482600J0D01*
G01*
G37*
G36*
G01*
X63315510Y23877103D02*
X62299510Y23877103D01*
G75*
G02*
X61816910Y24359703I0J482600D01*
G01*
X61816910Y25883703D01*
G75*
G02*
X62299510Y26366303I482600J0D01*
G01*
X63315510Y26366303D01*
G75*
G02*
X63798110Y25883703I0J-482600D01*
G01*
X63798110Y24359703D01*
G75*
G02*
X63315510Y23877103I-482600J0D01*
G01*
G37*
G36*
G01*
X60775510Y23877103D02*
X59759510Y23877103D01*
G75*
G02*
X59276910Y24359703I0J482600D01*
G01*
X59276910Y25883703D01*
G75*
G02*
X59759510Y26366303I482600J0D01*
G01*
X60775510Y26366303D01*
G75*
G02*
X61258110Y25883703I0J-482600D01*
G01*
X61258110Y24359703D01*
G75*
G02*
X60775510Y23877103I-482600J0D01*
G01*
G37*
G36*
G01*
X58235510Y23877103D02*
X57219510Y23877103D01*
G75*
G02*
X56736910Y24359703I0J482600D01*
G01*
X56736910Y25883703D01*
G75*
G02*
X57219510Y26366303I482600J0D01*
G01*
X58235510Y26366303D01*
G75*
G02*
X58718110Y25883703I0J-482600D01*
G01*
X58718110Y24359703D01*
G75*
G02*
X58235510Y23877103I-482600J0D01*
G01*
G37*
G36*
G01*
X55695510Y23877103D02*
X54679510Y23877103D01*
G75*
G02*
X54196910Y24359703I0J482600D01*
G01*
X54196910Y25883703D01*
G75*
G02*
X54679510Y26366303I482600J0D01*
G01*
X55695510Y26366303D01*
G75*
G02*
X56178110Y25883703I0J-482600D01*
G01*
X56178110Y24359703D01*
G75*
G02*
X55695510Y23877103I-482600J0D01*
G01*
G37*
G36*
G01*
X53155510Y23877103D02*
X52139510Y23877103D01*
G75*
G02*
X51656910Y24359703I0J482600D01*
G01*
X51656910Y25883703D01*
G75*
G02*
X52139510Y26366303I482600J0D01*
G01*
X53155510Y26366303D01*
G75*
G02*
X53638110Y25883703I0J-482600D01*
G01*
X53638110Y24359703D01*
G75*
G02*
X53155510Y23877103I-482600J0D01*
G01*
G37*
G36*
G01*
X50615510Y23877103D02*
X49599510Y23877103D01*
G75*
G02*
X49116910Y24359703I0J482600D01*
G01*
X49116910Y25883703D01*
G75*
G02*
X49599510Y26366303I482600J0D01*
G01*
X50615510Y26366303D01*
G75*
G02*
X51098110Y25883703I0J-482600D01*
G01*
X51098110Y24359703D01*
G75*
G02*
X50615510Y23877103I-482600J0D01*
G01*
G37*
G36*
G01*
X48075510Y23877103D02*
X47059510Y23877103D01*
G75*
G02*
X46576910Y24359703I0J482600D01*
G01*
X46576910Y25883703D01*
G75*
G02*
X47059510Y26366303I482600J0D01*
G01*
X48075510Y26366303D01*
G75*
G02*
X48558110Y25883703I0J-482600D01*
G01*
X48558110Y24359703D01*
G75*
G02*
X48075510Y23877103I-482600J0D01*
G01*
G37*
G36*
G01*
X45535510Y23877103D02*
X44519510Y23877103D01*
G75*
G02*
X44036910Y24359703I0J482600D01*
G01*
X44036910Y25883703D01*
G75*
G02*
X44519510Y26366303I482600J0D01*
G01*
X45535510Y26366303D01*
G75*
G02*
X46018110Y25883703I0J-482600D01*
G01*
X46018110Y24359703D01*
G75*
G02*
X45535510Y23877103I-482600J0D01*
G01*
G37*
G36*
G01*
X42995510Y23877103D02*
X41979510Y23877103D01*
G75*
G02*
X41496910Y24359703I0J482600D01*
G01*
X41496910Y25883703D01*
G75*
G02*
X41979510Y26366303I482600J0D01*
G01*
X42995510Y26366303D01*
G75*
G02*
X43478110Y25883703I0J-482600D01*
G01*
X43478110Y24359703D01*
G75*
G02*
X42995510Y23877103I-482600J0D01*
G01*
G37*
G36*
G01*
X40455510Y23877103D02*
X39439510Y23877103D01*
G75*
G02*
X38956910Y24359703I0J482600D01*
G01*
X38956910Y25883703D01*
G75*
G02*
X39439510Y26366303I482600J0D01*
G01*
X40455510Y26366303D01*
G75*
G02*
X40938110Y25883703I0J-482600D01*
G01*
X40938110Y24359703D01*
G75*
G02*
X40455510Y23877103I-482600J0D01*
G01*
G37*
G36*
G01*
X37915510Y23877103D02*
X36899510Y23877103D01*
G75*
G02*
X36416910Y24359703I0J482600D01*
G01*
X36416910Y25883703D01*
G75*
G02*
X36899510Y26366303I482600J0D01*
G01*
X37915510Y26366303D01*
G75*
G02*
X38398110Y25883703I0J-482600D01*
G01*
X38398110Y24359703D01*
G75*
G02*
X37915510Y23877103I-482600J0D01*
G01*
G37*
G36*
G01*
X35375510Y23877103D02*
X34359510Y23877103D01*
G75*
G02*
X33876910Y24359703I0J482600D01*
G01*
X33876910Y25883703D01*
G75*
G02*
X34359510Y26366303I482600J0D01*
G01*
X35375510Y26366303D01*
G75*
G02*
X35858110Y25883703I0J-482600D01*
G01*
X35858110Y24359703D01*
G75*
G02*
X35375510Y23877103I-482600J0D01*
G01*
G37*
G36*
G01*
X32835510Y23877103D02*
X31819510Y23877103D01*
G75*
G02*
X31336910Y24359703I0J482600D01*
G01*
X31336910Y25883703D01*
G75*
G02*
X31819510Y26366303I482600J0D01*
G01*
X32835510Y26366303D01*
G75*
G02*
X33318110Y25883703I0J-482600D01*
G01*
X33318110Y24359703D01*
G75*
G02*
X32835510Y23877103I-482600J0D01*
G01*
G37*
G36*
G01*
X30295510Y23877103D02*
X29279510Y23877103D01*
G75*
G02*
X28796910Y24359703I0J482600D01*
G01*
X28796910Y25883703D01*
G75*
G02*
X29279510Y26366303I482600J0D01*
G01*
X30295510Y26366303D01*
G75*
G02*
X30778110Y25883703I0J-482600D01*
G01*
X30778110Y24359703D01*
G75*
G02*
X30295510Y23877103I-482600J0D01*
G01*
G37*
G36*
G01*
X27755510Y23877103D02*
X26739510Y23877103D01*
G75*
G02*
X26256910Y24359703I0J482600D01*
G01*
X26256910Y25883703D01*
G75*
G02*
X26739510Y26366303I482600J0D01*
G01*
X27755510Y26366303D01*
G75*
G02*
X28238110Y25883703I0J-482600D01*
G01*
X28238110Y24359703D01*
G75*
G02*
X27755510Y23877103I-482600J0D01*
G01*
G37*
G36*
G01*
X25215510Y23877103D02*
X24199510Y23877103D01*
G75*
G02*
X23716910Y24359703I0J482600D01*
G01*
X23716910Y25883703D01*
G75*
G02*
X24199510Y26366303I482600J0D01*
G01*
X25215510Y26366303D01*
G75*
G02*
X25698110Y25883703I0J-482600D01*
G01*
X25698110Y24359703D01*
G75*
G02*
X25215510Y23877103I-482600J0D01*
G01*
G37*
G36*
G01*
X22675510Y23877103D02*
X21659510Y23877103D01*
G75*
G02*
X21176910Y24359703I0J482600D01*
G01*
X21176910Y25883703D01*
G75*
G02*
X21659510Y26366303I482600J0D01*
G01*
X22675510Y26366303D01*
G75*
G02*
X23158110Y25883703I0J-482600D01*
G01*
X23158110Y24359703D01*
G75*
G02*
X22675510Y23877103I-482600J0D01*
G01*
G37*
G36*
G01*
X20135510Y23877103D02*
X19119510Y23877103D01*
G75*
G02*
X18636910Y24359703I0J482600D01*
G01*
X18636910Y25883703D01*
G75*
G02*
X19119510Y26366303I482600J0D01*
G01*
X20135510Y26366303D01*
G75*
G02*
X20618110Y25883703I0J-482600D01*
G01*
X20618110Y24359703D01*
G75*
G02*
X20135510Y23877103I-482600J0D01*
G01*
G37*
G36*
G01*
X17595510Y23877103D02*
X16579510Y23877103D01*
G75*
G02*
X16096910Y24359703I0J482600D01*
G01*
X16096910Y25883703D01*
G75*
G02*
X16579510Y26366303I482600J0D01*
G01*
X17595510Y26366303D01*
G75*
G02*
X18078110Y25883703I0J-482600D01*
G01*
X18078110Y24359703D01*
G75*
G02*
X17595510Y23877103I-482600J0D01*
G01*
G37*
G36*
G01*
X15055510Y23877103D02*
X14039510Y23877103D01*
G75*
G02*
X13556910Y24359703I0J482600D01*
G01*
X13556910Y25883703D01*
G75*
G02*
X14039510Y26366303I482600J0D01*
G01*
X15055510Y26366303D01*
G75*
G02*
X15538110Y25883703I0J-482600D01*
G01*
X15538110Y24359703D01*
G75*
G02*
X15055510Y23877103I-482600J0D01*
G01*
G37*
G36*
G01*
X12515510Y23877103D02*
X11499510Y23877103D01*
G75*
G02*
X11016910Y24359703I0J482600D01*
G01*
X11016910Y25883703D01*
G75*
G02*
X11499510Y26366303I482600J0D01*
G01*
X12515510Y26366303D01*
G75*
G02*
X12998110Y25883703I0J-482600D01*
G01*
X12998110Y24359703D01*
G75*
G02*
X12515510Y23877103I-482600J0D01*
G01*
G37*
G36*
G01*
X9975510Y23877103D02*
X8959510Y23877103D01*
G75*
G02*
X8476910Y24359703I0J482600D01*
G01*
X8476910Y25883703D01*
G75*
G02*
X8959510Y26366303I482600J0D01*
G01*
X9975510Y26366303D01*
G75*
G02*
X10458110Y25883703I0J-482600D01*
G01*
X10458110Y24359703D01*
G75*
G02*
X9975510Y23877103I-482600J0D01*
G01*
G37*
G36*
G01*
X7435510Y23877103D02*
X6419510Y23877103D01*
G75*
G02*
X5936910Y24359703I0J482600D01*
G01*
X5936910Y25883703D01*
G75*
G02*
X6419510Y26366303I482600J0D01*
G01*
X7435510Y26366303D01*
G75*
G02*
X7918110Y25883703I0J-482600D01*
G01*
X7918110Y24359703D01*
G75*
G02*
X7435510Y23877103I-482600J0D01*
G01*
G37*
G36*
G01*
X4895510Y23877103D02*
X3879510Y23877103D01*
G75*
G02*
X3396910Y24359703I0J482600D01*
G01*
X3396910Y25883703D01*
G75*
G02*
X3879510Y26366303I482600J0D01*
G01*
X4895510Y26366303D01*
G75*
G02*
X5378110Y25883703I0J-482600D01*
G01*
X5378110Y24359703D01*
G75*
G02*
X4895510Y23877103I-482600J0D01*
G01*
G37*
G36*
G01*
X2355510Y23877103D02*
X1339510Y23877103D01*
G75*
G02*
X856910Y24359703I0J482600D01*
G01*
X856910Y25883703D01*
G75*
G02*
X1339510Y26366303I482600J0D01*
G01*
X2355510Y26366303D01*
G75*
G02*
X2838110Y25883703I0J-482600D01*
G01*
X2838110Y24359703D01*
G75*
G02*
X2355510Y23877103I-482600J0D01*
G01*
G37*
G36*
G01*
X1569000Y34868200D02*
X1569000Y35418200D01*
G75*
G02*
X1769000Y35618200I200000J0D01*
G01*
X2169000Y35618200D01*
G75*
G02*
X2369000Y35418200I0J-200000D01*
G01*
X2369000Y34868200D01*
G75*
G02*
X2169000Y34668200I-200000J0D01*
G01*
X1769000Y34668200D01*
G75*
G02*
X1569000Y34868200I0J200000D01*
G01*
G37*
G36*
G01*
X3219000Y34868200D02*
X3219000Y35418200D01*
G75*
G02*
X3419000Y35618200I200000J0D01*
G01*
X3819000Y35618200D01*
G75*
G02*
X4019000Y35418200I0J-200000D01*
G01*
X4019000Y34868200D01*
G75*
G02*
X3819000Y34668200I-200000J0D01*
G01*
X3419000Y34668200D01*
G75*
G02*
X3219000Y34868200I0J200000D01*
G01*
G37*
G36*
G01*
X11572204Y22088903D02*
X11572204Y21588903D01*
G75*
G02*
X11347204Y21363903I-225000J0D01*
G01*
X10897204Y21363903D01*
G75*
G02*
X10672204Y21588903I0J225000D01*
G01*
X10672204Y22088903D01*
G75*
G02*
X10897204Y22313903I225000J0D01*
G01*
X11347204Y22313903D01*
G75*
G02*
X11572204Y22088903I0J-225000D01*
G01*
G37*
G36*
G01*
X10022204Y22088903D02*
X10022204Y21588903D01*
G75*
G02*
X9797204Y21363903I-225000J0D01*
G01*
X9347204Y21363903D01*
G75*
G02*
X9122204Y21588903I0J225000D01*
G01*
X9122204Y22088903D01*
G75*
G02*
X9347204Y22313903I225000J0D01*
G01*
X9797204Y22313903D01*
G75*
G02*
X10022204Y22088903I0J-225000D01*
G01*
G37*
G36*
G01*
X23092204Y20649103D02*
X23092204Y21149103D01*
G75*
G02*
X23317204Y21374103I225000J0D01*
G01*
X23767204Y21374103D01*
G75*
G02*
X23992204Y21149103I0J-225000D01*
G01*
X23992204Y20649103D01*
G75*
G02*
X23767204Y20424103I-225000J0D01*
G01*
X23317204Y20424103D01*
G75*
G02*
X23092204Y20649103I0J225000D01*
G01*
G37*
G36*
G01*
X24642204Y20649103D02*
X24642204Y21149103D01*
G75*
G02*
X24867204Y21374103I225000J0D01*
G01*
X25317204Y21374103D01*
G75*
G02*
X25542204Y21149103I0J-225000D01*
G01*
X25542204Y20649103D01*
G75*
G02*
X25317204Y20424103I-225000J0D01*
G01*
X24867204Y20424103D01*
G75*
G02*
X24642204Y20649103I0J225000D01*
G01*
G37*
G36*
G01*
X61716200Y3738200D02*
X61716200Y4288200D01*
G75*
G02*
X61916200Y4488200I200000J0D01*
G01*
X62316200Y4488200D01*
G75*
G02*
X62516200Y4288200I0J-200000D01*
G01*
X62516200Y3738200D01*
G75*
G02*
X62316200Y3538200I-200000J0D01*
G01*
X61916200Y3538200D01*
G75*
G02*
X61716200Y3738200I0J200000D01*
G01*
G37*
G36*
G01*
X63366200Y3738200D02*
X63366200Y4288200D01*
G75*
G02*
X63566200Y4488200I200000J0D01*
G01*
X63966200Y4488200D01*
G75*
G02*
X64166200Y4288200I0J-200000D01*
G01*
X64166200Y3738200D01*
G75*
G02*
X63966200Y3538200I-200000J0D01*
G01*
X63566200Y3538200D01*
G75*
G02*
X63366200Y3738200I0J200000D01*
G01*
G37*
G36*
G01*
X46899600Y19372303D02*
X46899600Y19522303D01*
G75*
G02*
X46974600Y19597303I75000J0D01*
G01*
X48299600Y19597303D01*
G75*
G02*
X48374600Y19522303I0J-75000D01*
G01*
X48374600Y19372303D01*
G75*
G02*
X48299600Y19297303I-75000J0D01*
G01*
X46974600Y19297303D01*
G75*
G02*
X46899600Y19372303I0J75000D01*
G01*
G37*
G36*
G01*
X46899600Y18872303D02*
X46899600Y19022303D01*
G75*
G02*
X46974600Y19097303I75000J0D01*
G01*
X48299600Y19097303D01*
G75*
G02*
X48374600Y19022303I0J-75000D01*
G01*
X48374600Y18872303D01*
G75*
G02*
X48299600Y18797303I-75000J0D01*
G01*
X46974600Y18797303D01*
G75*
G02*
X46899600Y18872303I0J75000D01*
G01*
G37*
G36*
G01*
X46899600Y18372303D02*
X46899600Y18522303D01*
G75*
G02*
X46974600Y18597303I75000J0D01*
G01*
X48299600Y18597303D01*
G75*
G02*
X48374600Y18522303I0J-75000D01*
G01*
X48374600Y18372303D01*
G75*
G02*
X48299600Y18297303I-75000J0D01*
G01*
X46974600Y18297303D01*
G75*
G02*
X46899600Y18372303I0J75000D01*
G01*
G37*
G36*
G01*
X46899600Y17872303D02*
X46899600Y18022303D01*
G75*
G02*
X46974600Y18097303I75000J0D01*
G01*
X48299600Y18097303D01*
G75*
G02*
X48374600Y18022303I0J-75000D01*
G01*
X48374600Y17872303D01*
G75*
G02*
X48299600Y17797303I-75000J0D01*
G01*
X46974600Y17797303D01*
G75*
G02*
X46899600Y17872303I0J75000D01*
G01*
G37*
G36*
G01*
X46899600Y17372303D02*
X46899600Y17522303D01*
G75*
G02*
X46974600Y17597303I75000J0D01*
G01*
X48299600Y17597303D01*
G75*
G02*
X48374600Y17522303I0J-75000D01*
G01*
X48374600Y17372303D01*
G75*
G02*
X48299600Y17297303I-75000J0D01*
G01*
X46974600Y17297303D01*
G75*
G02*
X46899600Y17372303I0J75000D01*
G01*
G37*
G36*
G01*
X46899600Y16872303D02*
X46899600Y17022303D01*
G75*
G02*
X46974600Y17097303I75000J0D01*
G01*
X48299600Y17097303D01*
G75*
G02*
X48374600Y17022303I0J-75000D01*
G01*
X48374600Y16872303D01*
G75*
G02*
X48299600Y16797303I-75000J0D01*
G01*
X46974600Y16797303D01*
G75*
G02*
X46899600Y16872303I0J75000D01*
G01*
G37*
G36*
G01*
X46899600Y16372303D02*
X46899600Y16522303D01*
G75*
G02*
X46974600Y16597303I75000J0D01*
G01*
X48299600Y16597303D01*
G75*
G02*
X48374600Y16522303I0J-75000D01*
G01*
X48374600Y16372303D01*
G75*
G02*
X48299600Y16297303I-75000J0D01*
G01*
X46974600Y16297303D01*
G75*
G02*
X46899600Y16372303I0J75000D01*
G01*
G37*
G36*
G01*
X46899600Y15872303D02*
X46899600Y16022303D01*
G75*
G02*
X46974600Y16097303I75000J0D01*
G01*
X48299600Y16097303D01*
G75*
G02*
X48374600Y16022303I0J-75000D01*
G01*
X48374600Y15872303D01*
G75*
G02*
X48299600Y15797303I-75000J0D01*
G01*
X46974600Y15797303D01*
G75*
G02*
X46899600Y15872303I0J75000D01*
G01*
G37*
G36*
G01*
X46899600Y15372303D02*
X46899600Y15522303D01*
G75*
G02*
X46974600Y15597303I75000J0D01*
G01*
X48299600Y15597303D01*
G75*
G02*
X48374600Y15522303I0J-75000D01*
G01*
X48374600Y15372303D01*
G75*
G02*
X48299600Y15297303I-75000J0D01*
G01*
X46974600Y15297303D01*
G75*
G02*
X46899600Y15372303I0J75000D01*
G01*
G37*
G36*
G01*
X46899600Y14872303D02*
X46899600Y15022303D01*
G75*
G02*
X46974600Y15097303I75000J0D01*
G01*
X48299600Y15097303D01*
G75*
G02*
X48374600Y15022303I0J-75000D01*
G01*
X48374600Y14872303D01*
G75*
G02*
X48299600Y14797303I-75000J0D01*
G01*
X46974600Y14797303D01*
G75*
G02*
X46899600Y14872303I0J75000D01*
G01*
G37*
G36*
G01*
X46899600Y14372303D02*
X46899600Y14522303D01*
G75*
G02*
X46974600Y14597303I75000J0D01*
G01*
X48299600Y14597303D01*
G75*
G02*
X48374600Y14522303I0J-75000D01*
G01*
X48374600Y14372303D01*
G75*
G02*
X48299600Y14297303I-75000J0D01*
G01*
X46974600Y14297303D01*
G75*
G02*
X46899600Y14372303I0J75000D01*
G01*
G37*
G36*
G01*
X46899600Y13872303D02*
X46899600Y14022303D01*
G75*
G02*
X46974600Y14097303I75000J0D01*
G01*
X48299600Y14097303D01*
G75*
G02*
X48374600Y14022303I0J-75000D01*
G01*
X48374600Y13872303D01*
G75*
G02*
X48299600Y13797303I-75000J0D01*
G01*
X46974600Y13797303D01*
G75*
G02*
X46899600Y13872303I0J75000D01*
G01*
G37*
G36*
G01*
X46899600Y13372303D02*
X46899600Y13522303D01*
G75*
G02*
X46974600Y13597303I75000J0D01*
G01*
X48299600Y13597303D01*
G75*
G02*
X48374600Y13522303I0J-75000D01*
G01*
X48374600Y13372303D01*
G75*
G02*
X48299600Y13297303I-75000J0D01*
G01*
X46974600Y13297303D01*
G75*
G02*
X46899600Y13372303I0J75000D01*
G01*
G37*
G36*
G01*
X46899600Y12872303D02*
X46899600Y13022303D01*
G75*
G02*
X46974600Y13097303I75000J0D01*
G01*
X48299600Y13097303D01*
G75*
G02*
X48374600Y13022303I0J-75000D01*
G01*
X48374600Y12872303D01*
G75*
G02*
X48299600Y12797303I-75000J0D01*
G01*
X46974600Y12797303D01*
G75*
G02*
X46899600Y12872303I0J75000D01*
G01*
G37*
G36*
G01*
X46899600Y12372303D02*
X46899600Y12522303D01*
G75*
G02*
X46974600Y12597303I75000J0D01*
G01*
X48299600Y12597303D01*
G75*
G02*
X48374600Y12522303I0J-75000D01*
G01*
X48374600Y12372303D01*
G75*
G02*
X48299600Y12297303I-75000J0D01*
G01*
X46974600Y12297303D01*
G75*
G02*
X46899600Y12372303I0J75000D01*
G01*
G37*
G36*
G01*
X46899600Y11872303D02*
X46899600Y12022303D01*
G75*
G02*
X46974600Y12097303I75000J0D01*
G01*
X48299600Y12097303D01*
G75*
G02*
X48374600Y12022303I0J-75000D01*
G01*
X48374600Y11872303D01*
G75*
G02*
X48299600Y11797303I-75000J0D01*
G01*
X46974600Y11797303D01*
G75*
G02*
X46899600Y11872303I0J75000D01*
G01*
G37*
G36*
G01*
X46899600Y11372303D02*
X46899600Y11522303D01*
G75*
G02*
X46974600Y11597303I75000J0D01*
G01*
X48299600Y11597303D01*
G75*
G02*
X48374600Y11522303I0J-75000D01*
G01*
X48374600Y11372303D01*
G75*
G02*
X48299600Y11297303I-75000J0D01*
G01*
X46974600Y11297303D01*
G75*
G02*
X46899600Y11372303I0J75000D01*
G01*
G37*
G36*
G01*
X46899600Y10872303D02*
X46899600Y11022303D01*
G75*
G02*
X46974600Y11097303I75000J0D01*
G01*
X48299600Y11097303D01*
G75*
G02*
X48374600Y11022303I0J-75000D01*
G01*
X48374600Y10872303D01*
G75*
G02*
X48299600Y10797303I-75000J0D01*
G01*
X46974600Y10797303D01*
G75*
G02*
X46899600Y10872303I0J75000D01*
G01*
G37*
G36*
G01*
X46899600Y10372303D02*
X46899600Y10522303D01*
G75*
G02*
X46974600Y10597303I75000J0D01*
G01*
X48299600Y10597303D01*
G75*
G02*
X48374600Y10522303I0J-75000D01*
G01*
X48374600Y10372303D01*
G75*
G02*
X48299600Y10297303I-75000J0D01*
G01*
X46974600Y10297303D01*
G75*
G02*
X46899600Y10372303I0J75000D01*
G01*
G37*
G36*
G01*
X46899600Y9872303D02*
X46899600Y10022303D01*
G75*
G02*
X46974600Y10097303I75000J0D01*
G01*
X48299600Y10097303D01*
G75*
G02*
X48374600Y10022303I0J-75000D01*
G01*
X48374600Y9872303D01*
G75*
G02*
X48299600Y9797303I-75000J0D01*
G01*
X46974600Y9797303D01*
G75*
G02*
X46899600Y9872303I0J75000D01*
G01*
G37*
G36*
G01*
X46899600Y9372303D02*
X46899600Y9522303D01*
G75*
G02*
X46974600Y9597303I75000J0D01*
G01*
X48299600Y9597303D01*
G75*
G02*
X48374600Y9522303I0J-75000D01*
G01*
X48374600Y9372303D01*
G75*
G02*
X48299600Y9297303I-75000J0D01*
G01*
X46974600Y9297303D01*
G75*
G02*
X46899600Y9372303I0J75000D01*
G01*
G37*
G36*
G01*
X46899600Y8872303D02*
X46899600Y9022303D01*
G75*
G02*
X46974600Y9097303I75000J0D01*
G01*
X48299600Y9097303D01*
G75*
G02*
X48374600Y9022303I0J-75000D01*
G01*
X48374600Y8872303D01*
G75*
G02*
X48299600Y8797303I-75000J0D01*
G01*
X46974600Y8797303D01*
G75*
G02*
X46899600Y8872303I0J75000D01*
G01*
G37*
G36*
G01*
X46899600Y8372303D02*
X46899600Y8522303D01*
G75*
G02*
X46974600Y8597303I75000J0D01*
G01*
X48299600Y8597303D01*
G75*
G02*
X48374600Y8522303I0J-75000D01*
G01*
X48374600Y8372303D01*
G75*
G02*
X48299600Y8297303I-75000J0D01*
G01*
X46974600Y8297303D01*
G75*
G02*
X46899600Y8372303I0J75000D01*
G01*
G37*
G36*
G01*
X46899600Y7872303D02*
X46899600Y8022303D01*
G75*
G02*
X46974600Y8097303I75000J0D01*
G01*
X48299600Y8097303D01*
G75*
G02*
X48374600Y8022303I0J-75000D01*
G01*
X48374600Y7872303D01*
G75*
G02*
X48299600Y7797303I-75000J0D01*
G01*
X46974600Y7797303D01*
G75*
G02*
X46899600Y7872303I0J75000D01*
G01*
G37*
G36*
G01*
X46899600Y7372303D02*
X46899600Y7522303D01*
G75*
G02*
X46974600Y7597303I75000J0D01*
G01*
X48299600Y7597303D01*
G75*
G02*
X48374600Y7522303I0J-75000D01*
G01*
X48374600Y7372303D01*
G75*
G02*
X48299600Y7297303I-75000J0D01*
G01*
X46974600Y7297303D01*
G75*
G02*
X46899600Y7372303I0J75000D01*
G01*
G37*
G36*
G01*
X49149600Y5122303D02*
X49149600Y6447303D01*
G75*
G02*
X49224600Y6522303I75000J0D01*
G01*
X49374600Y6522303D01*
G75*
G02*
X49449600Y6447303I0J-75000D01*
G01*
X49449600Y5122303D01*
G75*
G02*
X49374600Y5047303I-75000J0D01*
G01*
X49224600Y5047303D01*
G75*
G02*
X49149600Y5122303I0J75000D01*
G01*
G37*
G36*
G01*
X49649600Y5122303D02*
X49649600Y6447303D01*
G75*
G02*
X49724600Y6522303I75000J0D01*
G01*
X49874600Y6522303D01*
G75*
G02*
X49949600Y6447303I0J-75000D01*
G01*
X49949600Y5122303D01*
G75*
G02*
X49874600Y5047303I-75000J0D01*
G01*
X49724600Y5047303D01*
G75*
G02*
X49649600Y5122303I0J75000D01*
G01*
G37*
G36*
G01*
X50149600Y5122303D02*
X50149600Y6447303D01*
G75*
G02*
X50224600Y6522303I75000J0D01*
G01*
X50374600Y6522303D01*
G75*
G02*
X50449600Y6447303I0J-75000D01*
G01*
X50449600Y5122303D01*
G75*
G02*
X50374600Y5047303I-75000J0D01*
G01*
X50224600Y5047303D01*
G75*
G02*
X50149600Y5122303I0J75000D01*
G01*
G37*
G36*
G01*
X50649600Y5122303D02*
X50649600Y6447303D01*
G75*
G02*
X50724600Y6522303I75000J0D01*
G01*
X50874600Y6522303D01*
G75*
G02*
X50949600Y6447303I0J-75000D01*
G01*
X50949600Y5122303D01*
G75*
G02*
X50874600Y5047303I-75000J0D01*
G01*
X50724600Y5047303D01*
G75*
G02*
X50649600Y5122303I0J75000D01*
G01*
G37*
G36*
G01*
X51149600Y5122303D02*
X51149600Y6447303D01*
G75*
G02*
X51224600Y6522303I75000J0D01*
G01*
X51374600Y6522303D01*
G75*
G02*
X51449600Y6447303I0J-75000D01*
G01*
X51449600Y5122303D01*
G75*
G02*
X51374600Y5047303I-75000J0D01*
G01*
X51224600Y5047303D01*
G75*
G02*
X51149600Y5122303I0J75000D01*
G01*
G37*
G36*
G01*
X51649600Y5122303D02*
X51649600Y6447303D01*
G75*
G02*
X51724600Y6522303I75000J0D01*
G01*
X51874600Y6522303D01*
G75*
G02*
X51949600Y6447303I0J-75000D01*
G01*
X51949600Y5122303D01*
G75*
G02*
X51874600Y5047303I-75000J0D01*
G01*
X51724600Y5047303D01*
G75*
G02*
X51649600Y5122303I0J75000D01*
G01*
G37*
G36*
G01*
X52149600Y5122303D02*
X52149600Y6447303D01*
G75*
G02*
X52224600Y6522303I75000J0D01*
G01*
X52374600Y6522303D01*
G75*
G02*
X52449600Y6447303I0J-75000D01*
G01*
X52449600Y5122303D01*
G75*
G02*
X52374600Y5047303I-75000J0D01*
G01*
X52224600Y5047303D01*
G75*
G02*
X52149600Y5122303I0J75000D01*
G01*
G37*
G36*
G01*
X52649600Y5122303D02*
X52649600Y6447303D01*
G75*
G02*
X52724600Y6522303I75000J0D01*
G01*
X52874600Y6522303D01*
G75*
G02*
X52949600Y6447303I0J-75000D01*
G01*
X52949600Y5122303D01*
G75*
G02*
X52874600Y5047303I-75000J0D01*
G01*
X52724600Y5047303D01*
G75*
G02*
X52649600Y5122303I0J75000D01*
G01*
G37*
G36*
G01*
X53149600Y5122303D02*
X53149600Y6447303D01*
G75*
G02*
X53224600Y6522303I75000J0D01*
G01*
X53374600Y6522303D01*
G75*
G02*
X53449600Y6447303I0J-75000D01*
G01*
X53449600Y5122303D01*
G75*
G02*
X53374600Y5047303I-75000J0D01*
G01*
X53224600Y5047303D01*
G75*
G02*
X53149600Y5122303I0J75000D01*
G01*
G37*
G36*
G01*
X53649600Y5122303D02*
X53649600Y6447303D01*
G75*
G02*
X53724600Y6522303I75000J0D01*
G01*
X53874600Y6522303D01*
G75*
G02*
X53949600Y6447303I0J-75000D01*
G01*
X53949600Y5122303D01*
G75*
G02*
X53874600Y5047303I-75000J0D01*
G01*
X53724600Y5047303D01*
G75*
G02*
X53649600Y5122303I0J75000D01*
G01*
G37*
G36*
G01*
X54149600Y5122303D02*
X54149600Y6447303D01*
G75*
G02*
X54224600Y6522303I75000J0D01*
G01*
X54374600Y6522303D01*
G75*
G02*
X54449600Y6447303I0J-75000D01*
G01*
X54449600Y5122303D01*
G75*
G02*
X54374600Y5047303I-75000J0D01*
G01*
X54224600Y5047303D01*
G75*
G02*
X54149600Y5122303I0J75000D01*
G01*
G37*
G36*
G01*
X54649600Y5122303D02*
X54649600Y6447303D01*
G75*
G02*
X54724600Y6522303I75000J0D01*
G01*
X54874600Y6522303D01*
G75*
G02*
X54949600Y6447303I0J-75000D01*
G01*
X54949600Y5122303D01*
G75*
G02*
X54874600Y5047303I-75000J0D01*
G01*
X54724600Y5047303D01*
G75*
G02*
X54649600Y5122303I0J75000D01*
G01*
G37*
G36*
G01*
X55149600Y5122303D02*
X55149600Y6447303D01*
G75*
G02*
X55224600Y6522303I75000J0D01*
G01*
X55374600Y6522303D01*
G75*
G02*
X55449600Y6447303I0J-75000D01*
G01*
X55449600Y5122303D01*
G75*
G02*
X55374600Y5047303I-75000J0D01*
G01*
X55224600Y5047303D01*
G75*
G02*
X55149600Y5122303I0J75000D01*
G01*
G37*
G36*
G01*
X55649600Y5122303D02*
X55649600Y6447303D01*
G75*
G02*
X55724600Y6522303I75000J0D01*
G01*
X55874600Y6522303D01*
G75*
G02*
X55949600Y6447303I0J-75000D01*
G01*
X55949600Y5122303D01*
G75*
G02*
X55874600Y5047303I-75000J0D01*
G01*
X55724600Y5047303D01*
G75*
G02*
X55649600Y5122303I0J75000D01*
G01*
G37*
G36*
G01*
X56149600Y5122303D02*
X56149600Y6447303D01*
G75*
G02*
X56224600Y6522303I75000J0D01*
G01*
X56374600Y6522303D01*
G75*
G02*
X56449600Y6447303I0J-75000D01*
G01*
X56449600Y5122303D01*
G75*
G02*
X56374600Y5047303I-75000J0D01*
G01*
X56224600Y5047303D01*
G75*
G02*
X56149600Y5122303I0J75000D01*
G01*
G37*
G36*
G01*
X56649600Y5122303D02*
X56649600Y6447303D01*
G75*
G02*
X56724600Y6522303I75000J0D01*
G01*
X56874600Y6522303D01*
G75*
G02*
X56949600Y6447303I0J-75000D01*
G01*
X56949600Y5122303D01*
G75*
G02*
X56874600Y5047303I-75000J0D01*
G01*
X56724600Y5047303D01*
G75*
G02*
X56649600Y5122303I0J75000D01*
G01*
G37*
G36*
G01*
X57149600Y5122303D02*
X57149600Y6447303D01*
G75*
G02*
X57224600Y6522303I75000J0D01*
G01*
X57374600Y6522303D01*
G75*
G02*
X57449600Y6447303I0J-75000D01*
G01*
X57449600Y5122303D01*
G75*
G02*
X57374600Y5047303I-75000J0D01*
G01*
X57224600Y5047303D01*
G75*
G02*
X57149600Y5122303I0J75000D01*
G01*
G37*
G36*
G01*
X57649600Y5122303D02*
X57649600Y6447303D01*
G75*
G02*
X57724600Y6522303I75000J0D01*
G01*
X57874600Y6522303D01*
G75*
G02*
X57949600Y6447303I0J-75000D01*
G01*
X57949600Y5122303D01*
G75*
G02*
X57874600Y5047303I-75000J0D01*
G01*
X57724600Y5047303D01*
G75*
G02*
X57649600Y5122303I0J75000D01*
G01*
G37*
G36*
G01*
X58149600Y5122303D02*
X58149600Y6447303D01*
G75*
G02*
X58224600Y6522303I75000J0D01*
G01*
X58374600Y6522303D01*
G75*
G02*
X58449600Y6447303I0J-75000D01*
G01*
X58449600Y5122303D01*
G75*
G02*
X58374600Y5047303I-75000J0D01*
G01*
X58224600Y5047303D01*
G75*
G02*
X58149600Y5122303I0J75000D01*
G01*
G37*
G36*
G01*
X58649600Y5122303D02*
X58649600Y6447303D01*
G75*
G02*
X58724600Y6522303I75000J0D01*
G01*
X58874600Y6522303D01*
G75*
G02*
X58949600Y6447303I0J-75000D01*
G01*
X58949600Y5122303D01*
G75*
G02*
X58874600Y5047303I-75000J0D01*
G01*
X58724600Y5047303D01*
G75*
G02*
X58649600Y5122303I0J75000D01*
G01*
G37*
G36*
G01*
X59149600Y5122303D02*
X59149600Y6447303D01*
G75*
G02*
X59224600Y6522303I75000J0D01*
G01*
X59374600Y6522303D01*
G75*
G02*
X59449600Y6447303I0J-75000D01*
G01*
X59449600Y5122303D01*
G75*
G02*
X59374600Y5047303I-75000J0D01*
G01*
X59224600Y5047303D01*
G75*
G02*
X59149600Y5122303I0J75000D01*
G01*
G37*
G36*
G01*
X59649600Y5122303D02*
X59649600Y6447303D01*
G75*
G02*
X59724600Y6522303I75000J0D01*
G01*
X59874600Y6522303D01*
G75*
G02*
X59949600Y6447303I0J-75000D01*
G01*
X59949600Y5122303D01*
G75*
G02*
X59874600Y5047303I-75000J0D01*
G01*
X59724600Y5047303D01*
G75*
G02*
X59649600Y5122303I0J75000D01*
G01*
G37*
G36*
G01*
X60149600Y5122303D02*
X60149600Y6447303D01*
G75*
G02*
X60224600Y6522303I75000J0D01*
G01*
X60374600Y6522303D01*
G75*
G02*
X60449600Y6447303I0J-75000D01*
G01*
X60449600Y5122303D01*
G75*
G02*
X60374600Y5047303I-75000J0D01*
G01*
X60224600Y5047303D01*
G75*
G02*
X60149600Y5122303I0J75000D01*
G01*
G37*
G36*
G01*
X60649600Y5122303D02*
X60649600Y6447303D01*
G75*
G02*
X60724600Y6522303I75000J0D01*
G01*
X60874600Y6522303D01*
G75*
G02*
X60949600Y6447303I0J-75000D01*
G01*
X60949600Y5122303D01*
G75*
G02*
X60874600Y5047303I-75000J0D01*
G01*
X60724600Y5047303D01*
G75*
G02*
X60649600Y5122303I0J75000D01*
G01*
G37*
G36*
G01*
X61149600Y5122303D02*
X61149600Y6447303D01*
G75*
G02*
X61224600Y6522303I75000J0D01*
G01*
X61374600Y6522303D01*
G75*
G02*
X61449600Y6447303I0J-75000D01*
G01*
X61449600Y5122303D01*
G75*
G02*
X61374600Y5047303I-75000J0D01*
G01*
X61224600Y5047303D01*
G75*
G02*
X61149600Y5122303I0J75000D01*
G01*
G37*
G36*
G01*
X62224600Y7372303D02*
X62224600Y7522303D01*
G75*
G02*
X62299600Y7597303I75000J0D01*
G01*
X63624600Y7597303D01*
G75*
G02*
X63699600Y7522303I0J-75000D01*
G01*
X63699600Y7372303D01*
G75*
G02*
X63624600Y7297303I-75000J0D01*
G01*
X62299600Y7297303D01*
G75*
G02*
X62224600Y7372303I0J75000D01*
G01*
G37*
G36*
G01*
X62224600Y7872303D02*
X62224600Y8022303D01*
G75*
G02*
X62299600Y8097303I75000J0D01*
G01*
X63624600Y8097303D01*
G75*
G02*
X63699600Y8022303I0J-75000D01*
G01*
X63699600Y7872303D01*
G75*
G02*
X63624600Y7797303I-75000J0D01*
G01*
X62299600Y7797303D01*
G75*
G02*
X62224600Y7872303I0J75000D01*
G01*
G37*
G36*
G01*
X62224600Y8372303D02*
X62224600Y8522303D01*
G75*
G02*
X62299600Y8597303I75000J0D01*
G01*
X63624600Y8597303D01*
G75*
G02*
X63699600Y8522303I0J-75000D01*
G01*
X63699600Y8372303D01*
G75*
G02*
X63624600Y8297303I-75000J0D01*
G01*
X62299600Y8297303D01*
G75*
G02*
X62224600Y8372303I0J75000D01*
G01*
G37*
G36*
G01*
X62224600Y8872303D02*
X62224600Y9022303D01*
G75*
G02*
X62299600Y9097303I75000J0D01*
G01*
X63624600Y9097303D01*
G75*
G02*
X63699600Y9022303I0J-75000D01*
G01*
X63699600Y8872303D01*
G75*
G02*
X63624600Y8797303I-75000J0D01*
G01*
X62299600Y8797303D01*
G75*
G02*
X62224600Y8872303I0J75000D01*
G01*
G37*
G36*
G01*
X62224600Y9372303D02*
X62224600Y9522303D01*
G75*
G02*
X62299600Y9597303I75000J0D01*
G01*
X63624600Y9597303D01*
G75*
G02*
X63699600Y9522303I0J-75000D01*
G01*
X63699600Y9372303D01*
G75*
G02*
X63624600Y9297303I-75000J0D01*
G01*
X62299600Y9297303D01*
G75*
G02*
X62224600Y9372303I0J75000D01*
G01*
G37*
G36*
G01*
X62224600Y9872303D02*
X62224600Y10022303D01*
G75*
G02*
X62299600Y10097303I75000J0D01*
G01*
X63624600Y10097303D01*
G75*
G02*
X63699600Y10022303I0J-75000D01*
G01*
X63699600Y9872303D01*
G75*
G02*
X63624600Y9797303I-75000J0D01*
G01*
X62299600Y9797303D01*
G75*
G02*
X62224600Y9872303I0J75000D01*
G01*
G37*
G36*
G01*
X62224600Y10372303D02*
X62224600Y10522303D01*
G75*
G02*
X62299600Y10597303I75000J0D01*
G01*
X63624600Y10597303D01*
G75*
G02*
X63699600Y10522303I0J-75000D01*
G01*
X63699600Y10372303D01*
G75*
G02*
X63624600Y10297303I-75000J0D01*
G01*
X62299600Y10297303D01*
G75*
G02*
X62224600Y10372303I0J75000D01*
G01*
G37*
G36*
G01*
X62224600Y10872303D02*
X62224600Y11022303D01*
G75*
G02*
X62299600Y11097303I75000J0D01*
G01*
X63624600Y11097303D01*
G75*
G02*
X63699600Y11022303I0J-75000D01*
G01*
X63699600Y10872303D01*
G75*
G02*
X63624600Y10797303I-75000J0D01*
G01*
X62299600Y10797303D01*
G75*
G02*
X62224600Y10872303I0J75000D01*
G01*
G37*
G36*
G01*
X62224600Y11372303D02*
X62224600Y11522303D01*
G75*
G02*
X62299600Y11597303I75000J0D01*
G01*
X63624600Y11597303D01*
G75*
G02*
X63699600Y11522303I0J-75000D01*
G01*
X63699600Y11372303D01*
G75*
G02*
X63624600Y11297303I-75000J0D01*
G01*
X62299600Y11297303D01*
G75*
G02*
X62224600Y11372303I0J75000D01*
G01*
G37*
G36*
G01*
X62224600Y11872303D02*
X62224600Y12022303D01*
G75*
G02*
X62299600Y12097303I75000J0D01*
G01*
X63624600Y12097303D01*
G75*
G02*
X63699600Y12022303I0J-75000D01*
G01*
X63699600Y11872303D01*
G75*
G02*
X63624600Y11797303I-75000J0D01*
G01*
X62299600Y11797303D01*
G75*
G02*
X62224600Y11872303I0J75000D01*
G01*
G37*
G36*
G01*
X62224600Y12372303D02*
X62224600Y12522303D01*
G75*
G02*
X62299600Y12597303I75000J0D01*
G01*
X63624600Y12597303D01*
G75*
G02*
X63699600Y12522303I0J-75000D01*
G01*
X63699600Y12372303D01*
G75*
G02*
X63624600Y12297303I-75000J0D01*
G01*
X62299600Y12297303D01*
G75*
G02*
X62224600Y12372303I0J75000D01*
G01*
G37*
G36*
G01*
X62224600Y12872303D02*
X62224600Y13022303D01*
G75*
G02*
X62299600Y13097303I75000J0D01*
G01*
X63624600Y13097303D01*
G75*
G02*
X63699600Y13022303I0J-75000D01*
G01*
X63699600Y12872303D01*
G75*
G02*
X63624600Y12797303I-75000J0D01*
G01*
X62299600Y12797303D01*
G75*
G02*
X62224600Y12872303I0J75000D01*
G01*
G37*
G36*
G01*
X62224600Y13372303D02*
X62224600Y13522303D01*
G75*
G02*
X62299600Y13597303I75000J0D01*
G01*
X63624600Y13597303D01*
G75*
G02*
X63699600Y13522303I0J-75000D01*
G01*
X63699600Y13372303D01*
G75*
G02*
X63624600Y13297303I-75000J0D01*
G01*
X62299600Y13297303D01*
G75*
G02*
X62224600Y13372303I0J75000D01*
G01*
G37*
G36*
G01*
X62224600Y13872303D02*
X62224600Y14022303D01*
G75*
G02*
X62299600Y14097303I75000J0D01*
G01*
X63624600Y14097303D01*
G75*
G02*
X63699600Y14022303I0J-75000D01*
G01*
X63699600Y13872303D01*
G75*
G02*
X63624600Y13797303I-75000J0D01*
G01*
X62299600Y13797303D01*
G75*
G02*
X62224600Y13872303I0J75000D01*
G01*
G37*
G36*
G01*
X62224600Y14372303D02*
X62224600Y14522303D01*
G75*
G02*
X62299600Y14597303I75000J0D01*
G01*
X63624600Y14597303D01*
G75*
G02*
X63699600Y14522303I0J-75000D01*
G01*
X63699600Y14372303D01*
G75*
G02*
X63624600Y14297303I-75000J0D01*
G01*
X62299600Y14297303D01*
G75*
G02*
X62224600Y14372303I0J75000D01*
G01*
G37*
G36*
G01*
X62224600Y14872303D02*
X62224600Y15022303D01*
G75*
G02*
X62299600Y15097303I75000J0D01*
G01*
X63624600Y15097303D01*
G75*
G02*
X63699600Y15022303I0J-75000D01*
G01*
X63699600Y14872303D01*
G75*
G02*
X63624600Y14797303I-75000J0D01*
G01*
X62299600Y14797303D01*
G75*
G02*
X62224600Y14872303I0J75000D01*
G01*
G37*
G36*
G01*
X62224600Y15372303D02*
X62224600Y15522303D01*
G75*
G02*
X62299600Y15597303I75000J0D01*
G01*
X63624600Y15597303D01*
G75*
G02*
X63699600Y15522303I0J-75000D01*
G01*
X63699600Y15372303D01*
G75*
G02*
X63624600Y15297303I-75000J0D01*
G01*
X62299600Y15297303D01*
G75*
G02*
X62224600Y15372303I0J75000D01*
G01*
G37*
G36*
G01*
X62224600Y15872303D02*
X62224600Y16022303D01*
G75*
G02*
X62299600Y16097303I75000J0D01*
G01*
X63624600Y16097303D01*
G75*
G02*
X63699600Y16022303I0J-75000D01*
G01*
X63699600Y15872303D01*
G75*
G02*
X63624600Y15797303I-75000J0D01*
G01*
X62299600Y15797303D01*
G75*
G02*
X62224600Y15872303I0J75000D01*
G01*
G37*
G36*
G01*
X62224600Y16372303D02*
X62224600Y16522303D01*
G75*
G02*
X62299600Y16597303I75000J0D01*
G01*
X63624600Y16597303D01*
G75*
G02*
X63699600Y16522303I0J-75000D01*
G01*
X63699600Y16372303D01*
G75*
G02*
X63624600Y16297303I-75000J0D01*
G01*
X62299600Y16297303D01*
G75*
G02*
X62224600Y16372303I0J75000D01*
G01*
G37*
G36*
G01*
X62224600Y16872303D02*
X62224600Y17022303D01*
G75*
G02*
X62299600Y17097303I75000J0D01*
G01*
X63624600Y17097303D01*
G75*
G02*
X63699600Y17022303I0J-75000D01*
G01*
X63699600Y16872303D01*
G75*
G02*
X63624600Y16797303I-75000J0D01*
G01*
X62299600Y16797303D01*
G75*
G02*
X62224600Y16872303I0J75000D01*
G01*
G37*
G36*
G01*
X62224600Y17372303D02*
X62224600Y17522303D01*
G75*
G02*
X62299600Y17597303I75000J0D01*
G01*
X63624600Y17597303D01*
G75*
G02*
X63699600Y17522303I0J-75000D01*
G01*
X63699600Y17372303D01*
G75*
G02*
X63624600Y17297303I-75000J0D01*
G01*
X62299600Y17297303D01*
G75*
G02*
X62224600Y17372303I0J75000D01*
G01*
G37*
G36*
G01*
X62224600Y17872303D02*
X62224600Y18022303D01*
G75*
G02*
X62299600Y18097303I75000J0D01*
G01*
X63624600Y18097303D01*
G75*
G02*
X63699600Y18022303I0J-75000D01*
G01*
X63699600Y17872303D01*
G75*
G02*
X63624600Y17797303I-75000J0D01*
G01*
X62299600Y17797303D01*
G75*
G02*
X62224600Y17872303I0J75000D01*
G01*
G37*
G36*
G01*
X62224600Y18372303D02*
X62224600Y18522303D01*
G75*
G02*
X62299600Y18597303I75000J0D01*
G01*
X63624600Y18597303D01*
G75*
G02*
X63699600Y18522303I0J-75000D01*
G01*
X63699600Y18372303D01*
G75*
G02*
X63624600Y18297303I-75000J0D01*
G01*
X62299600Y18297303D01*
G75*
G02*
X62224600Y18372303I0J75000D01*
G01*
G37*
G36*
G01*
X62224600Y18872303D02*
X62224600Y19022303D01*
G75*
G02*
X62299600Y19097303I75000J0D01*
G01*
X63624600Y19097303D01*
G75*
G02*
X63699600Y19022303I0J-75000D01*
G01*
X63699600Y18872303D01*
G75*
G02*
X63624600Y18797303I-75000J0D01*
G01*
X62299600Y18797303D01*
G75*
G02*
X62224600Y18872303I0J75000D01*
G01*
G37*
G36*
G01*
X62224600Y19372303D02*
X62224600Y19522303D01*
G75*
G02*
X62299600Y19597303I75000J0D01*
G01*
X63624600Y19597303D01*
G75*
G02*
X63699600Y19522303I0J-75000D01*
G01*
X63699600Y19372303D01*
G75*
G02*
X63624600Y19297303I-75000J0D01*
G01*
X62299600Y19297303D01*
G75*
G02*
X62224600Y19372303I0J75000D01*
G01*
G37*
G36*
G01*
X61149600Y20447303D02*
X61149600Y21772303D01*
G75*
G02*
X61224600Y21847303I75000J0D01*
G01*
X61374600Y21847303D01*
G75*
G02*
X61449600Y21772303I0J-75000D01*
G01*
X61449600Y20447303D01*
G75*
G02*
X61374600Y20372303I-75000J0D01*
G01*
X61224600Y20372303D01*
G75*
G02*
X61149600Y20447303I0J75000D01*
G01*
G37*
G36*
G01*
X60649600Y20447303D02*
X60649600Y21772303D01*
G75*
G02*
X60724600Y21847303I75000J0D01*
G01*
X60874600Y21847303D01*
G75*
G02*
X60949600Y21772303I0J-75000D01*
G01*
X60949600Y20447303D01*
G75*
G02*
X60874600Y20372303I-75000J0D01*
G01*
X60724600Y20372303D01*
G75*
G02*
X60649600Y20447303I0J75000D01*
G01*
G37*
G36*
G01*
X60149600Y20447303D02*
X60149600Y21772303D01*
G75*
G02*
X60224600Y21847303I75000J0D01*
G01*
X60374600Y21847303D01*
G75*
G02*
X60449600Y21772303I0J-75000D01*
G01*
X60449600Y20447303D01*
G75*
G02*
X60374600Y20372303I-75000J0D01*
G01*
X60224600Y20372303D01*
G75*
G02*
X60149600Y20447303I0J75000D01*
G01*
G37*
G36*
G01*
X59649600Y20447303D02*
X59649600Y21772303D01*
G75*
G02*
X59724600Y21847303I75000J0D01*
G01*
X59874600Y21847303D01*
G75*
G02*
X59949600Y21772303I0J-75000D01*
G01*
X59949600Y20447303D01*
G75*
G02*
X59874600Y20372303I-75000J0D01*
G01*
X59724600Y20372303D01*
G75*
G02*
X59649600Y20447303I0J75000D01*
G01*
G37*
G36*
G01*
X59149600Y20447303D02*
X59149600Y21772303D01*
G75*
G02*
X59224600Y21847303I75000J0D01*
G01*
X59374600Y21847303D01*
G75*
G02*
X59449600Y21772303I0J-75000D01*
G01*
X59449600Y20447303D01*
G75*
G02*
X59374600Y20372303I-75000J0D01*
G01*
X59224600Y20372303D01*
G75*
G02*
X59149600Y20447303I0J75000D01*
G01*
G37*
G36*
G01*
X58649600Y20447303D02*
X58649600Y21772303D01*
G75*
G02*
X58724600Y21847303I75000J0D01*
G01*
X58874600Y21847303D01*
G75*
G02*
X58949600Y21772303I0J-75000D01*
G01*
X58949600Y20447303D01*
G75*
G02*
X58874600Y20372303I-75000J0D01*
G01*
X58724600Y20372303D01*
G75*
G02*
X58649600Y20447303I0J75000D01*
G01*
G37*
G36*
G01*
X58149600Y20447303D02*
X58149600Y21772303D01*
G75*
G02*
X58224600Y21847303I75000J0D01*
G01*
X58374600Y21847303D01*
G75*
G02*
X58449600Y21772303I0J-75000D01*
G01*
X58449600Y20447303D01*
G75*
G02*
X58374600Y20372303I-75000J0D01*
G01*
X58224600Y20372303D01*
G75*
G02*
X58149600Y20447303I0J75000D01*
G01*
G37*
G36*
G01*
X57649600Y20447303D02*
X57649600Y21772303D01*
G75*
G02*
X57724600Y21847303I75000J0D01*
G01*
X57874600Y21847303D01*
G75*
G02*
X57949600Y21772303I0J-75000D01*
G01*
X57949600Y20447303D01*
G75*
G02*
X57874600Y20372303I-75000J0D01*
G01*
X57724600Y20372303D01*
G75*
G02*
X57649600Y20447303I0J75000D01*
G01*
G37*
G36*
G01*
X57149600Y20447303D02*
X57149600Y21772303D01*
G75*
G02*
X57224600Y21847303I75000J0D01*
G01*
X57374600Y21847303D01*
G75*
G02*
X57449600Y21772303I0J-75000D01*
G01*
X57449600Y20447303D01*
G75*
G02*
X57374600Y20372303I-75000J0D01*
G01*
X57224600Y20372303D01*
G75*
G02*
X57149600Y20447303I0J75000D01*
G01*
G37*
G36*
G01*
X56649600Y20447303D02*
X56649600Y21772303D01*
G75*
G02*
X56724600Y21847303I75000J0D01*
G01*
X56874600Y21847303D01*
G75*
G02*
X56949600Y21772303I0J-75000D01*
G01*
X56949600Y20447303D01*
G75*
G02*
X56874600Y20372303I-75000J0D01*
G01*
X56724600Y20372303D01*
G75*
G02*
X56649600Y20447303I0J75000D01*
G01*
G37*
G36*
G01*
X56149600Y20447303D02*
X56149600Y21772303D01*
G75*
G02*
X56224600Y21847303I75000J0D01*
G01*
X56374600Y21847303D01*
G75*
G02*
X56449600Y21772303I0J-75000D01*
G01*
X56449600Y20447303D01*
G75*
G02*
X56374600Y20372303I-75000J0D01*
G01*
X56224600Y20372303D01*
G75*
G02*
X56149600Y20447303I0J75000D01*
G01*
G37*
G36*
G01*
X55649600Y20447303D02*
X55649600Y21772303D01*
G75*
G02*
X55724600Y21847303I75000J0D01*
G01*
X55874600Y21847303D01*
G75*
G02*
X55949600Y21772303I0J-75000D01*
G01*
X55949600Y20447303D01*
G75*
G02*
X55874600Y20372303I-75000J0D01*
G01*
X55724600Y20372303D01*
G75*
G02*
X55649600Y20447303I0J75000D01*
G01*
G37*
G36*
G01*
X55149600Y20447303D02*
X55149600Y21772303D01*
G75*
G02*
X55224600Y21847303I75000J0D01*
G01*
X55374600Y21847303D01*
G75*
G02*
X55449600Y21772303I0J-75000D01*
G01*
X55449600Y20447303D01*
G75*
G02*
X55374600Y20372303I-75000J0D01*
G01*
X55224600Y20372303D01*
G75*
G02*
X55149600Y20447303I0J75000D01*
G01*
G37*
G36*
G01*
X54649600Y20447303D02*
X54649600Y21772303D01*
G75*
G02*
X54724600Y21847303I75000J0D01*
G01*
X54874600Y21847303D01*
G75*
G02*
X54949600Y21772303I0J-75000D01*
G01*
X54949600Y20447303D01*
G75*
G02*
X54874600Y20372303I-75000J0D01*
G01*
X54724600Y20372303D01*
G75*
G02*
X54649600Y20447303I0J75000D01*
G01*
G37*
G36*
G01*
X54149600Y20447303D02*
X54149600Y21772303D01*
G75*
G02*
X54224600Y21847303I75000J0D01*
G01*
X54374600Y21847303D01*
G75*
G02*
X54449600Y21772303I0J-75000D01*
G01*
X54449600Y20447303D01*
G75*
G02*
X54374600Y20372303I-75000J0D01*
G01*
X54224600Y20372303D01*
G75*
G02*
X54149600Y20447303I0J75000D01*
G01*
G37*
G36*
G01*
X53649600Y20447303D02*
X53649600Y21772303D01*
G75*
G02*
X53724600Y21847303I75000J0D01*
G01*
X53874600Y21847303D01*
G75*
G02*
X53949600Y21772303I0J-75000D01*
G01*
X53949600Y20447303D01*
G75*
G02*
X53874600Y20372303I-75000J0D01*
G01*
X53724600Y20372303D01*
G75*
G02*
X53649600Y20447303I0J75000D01*
G01*
G37*
G36*
G01*
X53149600Y20447303D02*
X53149600Y21772303D01*
G75*
G02*
X53224600Y21847303I75000J0D01*
G01*
X53374600Y21847303D01*
G75*
G02*
X53449600Y21772303I0J-75000D01*
G01*
X53449600Y20447303D01*
G75*
G02*
X53374600Y20372303I-75000J0D01*
G01*
X53224600Y20372303D01*
G75*
G02*
X53149600Y20447303I0J75000D01*
G01*
G37*
G36*
G01*
X52649600Y20447303D02*
X52649600Y21772303D01*
G75*
G02*
X52724600Y21847303I75000J0D01*
G01*
X52874600Y21847303D01*
G75*
G02*
X52949600Y21772303I0J-75000D01*
G01*
X52949600Y20447303D01*
G75*
G02*
X52874600Y20372303I-75000J0D01*
G01*
X52724600Y20372303D01*
G75*
G02*
X52649600Y20447303I0J75000D01*
G01*
G37*
G36*
G01*
X52149600Y20447303D02*
X52149600Y21772303D01*
G75*
G02*
X52224600Y21847303I75000J0D01*
G01*
X52374600Y21847303D01*
G75*
G02*
X52449600Y21772303I0J-75000D01*
G01*
X52449600Y20447303D01*
G75*
G02*
X52374600Y20372303I-75000J0D01*
G01*
X52224600Y20372303D01*
G75*
G02*
X52149600Y20447303I0J75000D01*
G01*
G37*
G36*
G01*
X51649600Y20447303D02*
X51649600Y21772303D01*
G75*
G02*
X51724600Y21847303I75000J0D01*
G01*
X51874600Y21847303D01*
G75*
G02*
X51949600Y21772303I0J-75000D01*
G01*
X51949600Y20447303D01*
G75*
G02*
X51874600Y20372303I-75000J0D01*
G01*
X51724600Y20372303D01*
G75*
G02*
X51649600Y20447303I0J75000D01*
G01*
G37*
G36*
G01*
X51149600Y20447303D02*
X51149600Y21772303D01*
G75*
G02*
X51224600Y21847303I75000J0D01*
G01*
X51374600Y21847303D01*
G75*
G02*
X51449600Y21772303I0J-75000D01*
G01*
X51449600Y20447303D01*
G75*
G02*
X51374600Y20372303I-75000J0D01*
G01*
X51224600Y20372303D01*
G75*
G02*
X51149600Y20447303I0J75000D01*
G01*
G37*
G36*
G01*
X50649600Y20447303D02*
X50649600Y21772303D01*
G75*
G02*
X50724600Y21847303I75000J0D01*
G01*
X50874600Y21847303D01*
G75*
G02*
X50949600Y21772303I0J-75000D01*
G01*
X50949600Y20447303D01*
G75*
G02*
X50874600Y20372303I-75000J0D01*
G01*
X50724600Y20372303D01*
G75*
G02*
X50649600Y20447303I0J75000D01*
G01*
G37*
G36*
G01*
X50149600Y20447303D02*
X50149600Y21772303D01*
G75*
G02*
X50224600Y21847303I75000J0D01*
G01*
X50374600Y21847303D01*
G75*
G02*
X50449600Y21772303I0J-75000D01*
G01*
X50449600Y20447303D01*
G75*
G02*
X50374600Y20372303I-75000J0D01*
G01*
X50224600Y20372303D01*
G75*
G02*
X50149600Y20447303I0J75000D01*
G01*
G37*
G36*
G01*
X49649600Y20447303D02*
X49649600Y21772303D01*
G75*
G02*
X49724600Y21847303I75000J0D01*
G01*
X49874600Y21847303D01*
G75*
G02*
X49949600Y21772303I0J-75000D01*
G01*
X49949600Y20447303D01*
G75*
G02*
X49874600Y20372303I-75000J0D01*
G01*
X49724600Y20372303D01*
G75*
G02*
X49649600Y20447303I0J75000D01*
G01*
G37*
G36*
G01*
X49149600Y20447303D02*
X49149600Y21772303D01*
G75*
G02*
X49224600Y21847303I75000J0D01*
G01*
X49374600Y21847303D01*
G75*
G02*
X49449600Y21772303I0J-75000D01*
G01*
X49449600Y20447303D01*
G75*
G02*
X49374600Y20372303I-75000J0D01*
G01*
X49224600Y20372303D01*
G75*
G02*
X49149600Y20447303I0J75000D01*
G01*
G37*
G36*
G01*
X76688801Y17236897D02*
X77238801Y17236897D01*
G75*
G02*
X77438801Y17036897I0J-200000D01*
G01*
X77438801Y16636897D01*
G75*
G02*
X77238801Y16436897I-200000J0D01*
G01*
X76688801Y16436897D01*
G75*
G02*
X76488801Y16636897I0J200000D01*
G01*
X76488801Y17036897D01*
G75*
G02*
X76688801Y17236897I200000J0D01*
G01*
G37*
G36*
G01*
X76688801Y15586897D02*
X77238801Y15586897D01*
G75*
G02*
X77438801Y15386897I0J-200000D01*
G01*
X77438801Y14986897D01*
G75*
G02*
X77238801Y14786897I-200000J0D01*
G01*
X76688801Y14786897D01*
G75*
G02*
X76488801Y14986897I0J200000D01*
G01*
X76488801Y15386897D01*
G75*
G02*
X76688801Y15586897I200000J0D01*
G01*
G37*
G36*
G01*
X24745004Y5484003D02*
X24745004Y5984003D01*
G75*
G02*
X24970004Y6209003I225000J0D01*
G01*
X25420004Y6209003D01*
G75*
G02*
X25645004Y5984003I0J-225000D01*
G01*
X25645004Y5484003D01*
G75*
G02*
X25420004Y5259003I-225000J0D01*
G01*
X24970004Y5259003D01*
G75*
G02*
X24745004Y5484003I0J225000D01*
G01*
G37*
G36*
G01*
X26295004Y5484003D02*
X26295004Y5984003D01*
G75*
G02*
X26520004Y6209003I225000J0D01*
G01*
X26970004Y6209003D01*
G75*
G02*
X27195004Y5984003I0J-225000D01*
G01*
X27195004Y5484003D01*
G75*
G02*
X26970004Y5259003I-225000J0D01*
G01*
X26520004Y5259003D01*
G75*
G02*
X26295004Y5484003I0J225000D01*
G01*
G37*
D18*
X11155600Y30063200D03*
D19*
X8615600Y30063200D03*
X11155600Y32603200D03*
X8615600Y32603200D03*
X11155600Y35143200D03*
X8615600Y35143200D03*
D20*
X67703001Y8300803D03*
G36*
X71653001Y5934303D02*
G01*
X68528001Y5934303D01*
X68528001Y6350803D01*
X67053001Y6350803D01*
X67053001Y7250803D01*
X68528001Y7250803D01*
X68528001Y7667303D01*
X71653001Y7667303D01*
X71653001Y5934303D01*
G37*
X67703001Y5300803D03*
G36*
G01*
X21291000Y36393800D02*
X21291000Y35843800D01*
G75*
G02*
X21091000Y35643800I-200000J0D01*
G01*
X20691000Y35643800D01*
G75*
G02*
X20491000Y35843800I0J200000D01*
G01*
X20491000Y36393800D01*
G75*
G02*
X20691000Y36593800I200000J0D01*
G01*
X21091000Y36593800D01*
G75*
G02*
X21291000Y36393800I0J-200000D01*
G01*
G37*
G36*
G01*
X19641000Y36393800D02*
X19641000Y35843800D01*
G75*
G02*
X19441000Y35643800I-200000J0D01*
G01*
X19041000Y35643800D01*
G75*
G02*
X18841000Y35843800I0J200000D01*
G01*
X18841000Y36393800D01*
G75*
G02*
X19041000Y36593800I200000J0D01*
G01*
X19441000Y36593800D01*
G75*
G02*
X19641000Y36393800I0J-200000D01*
G01*
G37*
G36*
G01*
X1569000Y28826750D02*
X1569000Y29339250D01*
G75*
G02*
X1787750Y29558000I218750J0D01*
G01*
X2225250Y29558000D01*
G75*
G02*
X2444000Y29339250I0J-218750D01*
G01*
X2444000Y28826750D01*
G75*
G02*
X2225250Y28608000I-218750J0D01*
G01*
X1787750Y28608000D01*
G75*
G02*
X1569000Y28826750I0J218750D01*
G01*
G37*
G36*
G01*
X3144000Y28826750D02*
X3144000Y29339250D01*
G75*
G02*
X3362750Y29558000I218750J0D01*
G01*
X3800250Y29558000D01*
G75*
G02*
X4019000Y29339250I0J-218750D01*
G01*
X4019000Y28826750D01*
G75*
G02*
X3800250Y28608000I-218750J0D01*
G01*
X3362750Y28608000D01*
G75*
G02*
X3144000Y28826750I0J218750D01*
G01*
G37*
G36*
G01*
X4019000Y30882000D02*
X4019000Y30332000D01*
G75*
G02*
X3819000Y30132000I-200000J0D01*
G01*
X3419000Y30132000D01*
G75*
G02*
X3219000Y30332000I0J200000D01*
G01*
X3219000Y30882000D01*
G75*
G02*
X3419000Y31082000I200000J0D01*
G01*
X3819000Y31082000D01*
G75*
G02*
X4019000Y30882000I0J-200000D01*
G01*
G37*
G36*
G01*
X2369000Y30882000D02*
X2369000Y30332000D01*
G75*
G02*
X2169000Y30132000I-200000J0D01*
G01*
X1769000Y30132000D01*
G75*
G02*
X1569000Y30332000I0J200000D01*
G01*
X1569000Y30882000D01*
G75*
G02*
X1769000Y31082000I200000J0D01*
G01*
X2169000Y31082000D01*
G75*
G02*
X2369000Y30882000I0J-200000D01*
G01*
G37*
G36*
G01*
X17799600Y5484003D02*
X17799600Y5984003D01*
G75*
G02*
X18024600Y6209003I225000J0D01*
G01*
X18474600Y6209003D01*
G75*
G02*
X18699600Y5984003I0J-225000D01*
G01*
X18699600Y5484003D01*
G75*
G02*
X18474600Y5259003I-225000J0D01*
G01*
X18024600Y5259003D01*
G75*
G02*
X17799600Y5484003I0J225000D01*
G01*
G37*
G36*
G01*
X19349600Y5484003D02*
X19349600Y5984003D01*
G75*
G02*
X19574600Y6209003I225000J0D01*
G01*
X20024600Y6209003D01*
G75*
G02*
X20249600Y5984003I0J-225000D01*
G01*
X20249600Y5484003D01*
G75*
G02*
X20024600Y5259003I-225000J0D01*
G01*
X19574600Y5259003D01*
G75*
G02*
X19349600Y5484003I0J225000D01*
G01*
G37*
G36*
G01*
X1569000Y33380000D02*
X1569000Y33930000D01*
G75*
G02*
X1769000Y34130000I200000J0D01*
G01*
X2169000Y34130000D01*
G75*
G02*
X2369000Y33930000I0J-200000D01*
G01*
X2369000Y33380000D01*
G75*
G02*
X2169000Y33180000I-200000J0D01*
G01*
X1769000Y33180000D01*
G75*
G02*
X1569000Y33380000I0J200000D01*
G01*
G37*
G36*
G01*
X3219000Y33380000D02*
X3219000Y33930000D01*
G75*
G02*
X3419000Y34130000I200000J0D01*
G01*
X3819000Y34130000D01*
G75*
G02*
X4019000Y33930000I0J-200000D01*
G01*
X4019000Y33380000D01*
G75*
G02*
X3819000Y33180000I-200000J0D01*
G01*
X3419000Y33180000D01*
G75*
G02*
X3219000Y33380000I0J200000D01*
G01*
G37*
G36*
G01*
X28172204Y20674503D02*
X28172204Y21174503D01*
G75*
G02*
X28397204Y21399503I225000J0D01*
G01*
X28847204Y21399503D01*
G75*
G02*
X29072204Y21174503I0J-225000D01*
G01*
X29072204Y20674503D01*
G75*
G02*
X28847204Y20449503I-225000J0D01*
G01*
X28397204Y20449503D01*
G75*
G02*
X28172204Y20674503I0J225000D01*
G01*
G37*
G36*
G01*
X29722204Y20674503D02*
X29722204Y21174503D01*
G75*
G02*
X29947204Y21399503I225000J0D01*
G01*
X30397204Y21399503D01*
G75*
G02*
X30622204Y21174503I0J-225000D01*
G01*
X30622204Y20674503D01*
G75*
G02*
X30397204Y20449503I-225000J0D01*
G01*
X29947204Y20449503D01*
G75*
G02*
X29722204Y20674503I0J225000D01*
G01*
G37*
%LPD*%
M02*
