G04 #@! TF.GenerationSoftware,KiCad,Pcbnew,8.0.5+1*
G04 #@! TF.CreationDate,2024-12-31T01:26:13+00:00*
G04 #@! TF.ProjectId,RIDE,52494445-2e6b-4696-9361-645f70636258,rev?*
G04 #@! TF.SameCoordinates,Original*
G04 #@! TF.FileFunction,Paste,Top*
G04 #@! TF.FilePolarity,Positive*
%FSLAX46Y46*%
G04 Gerber Fmt 4.6, Leading zero omitted, Abs format (unit mm)*
G04 Created by KiCad (PCBNEW 8.0.5+1) date 2024-12-31 01:26:13*
%MOMM*%
%LPD*%
G01*
G04 APERTURE LIST*
%ADD10R,0.458000X1.510000*%
%ADD11R,1.503000X1.300000*%
%ADD12R,1.300000X0.900000*%
G04 APERTURE END LIST*
G36*
G01*
X45206200Y5338400D02*
X45206200Y5888400D01*
G75*
G02*
X45406200Y6088400I200000J0D01*
G01*
X45806200Y6088400D01*
G75*
G02*
X46006200Y5888400I0J-200000D01*
G01*
X46006200Y5338400D01*
G75*
G02*
X45806200Y5138400I-200000J0D01*
G01*
X45406200Y5138400D01*
G75*
G02*
X45206200Y5338400I0J200000D01*
G01*
G37*
G36*
G01*
X46856200Y5338400D02*
X46856200Y5888400D01*
G75*
G02*
X47056200Y6088400I200000J0D01*
G01*
X47456200Y6088400D01*
G75*
G02*
X47656200Y5888400I0J-200000D01*
G01*
X47656200Y5338400D01*
G75*
G02*
X47456200Y5138400I-200000J0D01*
G01*
X47056200Y5138400D01*
G75*
G02*
X46856200Y5338400I0J200000D01*
G01*
G37*
G36*
G01*
X73427801Y17562197D02*
X73627801Y17562197D01*
G75*
G02*
X73727801Y17462197I0J-100000D01*
G01*
X73727801Y16187197D01*
G75*
G02*
X73627801Y16087197I-100000J0D01*
G01*
X73427801Y16087197D01*
G75*
G02*
X73327801Y16187197I0J100000D01*
G01*
X73327801Y17462197D01*
G75*
G02*
X73427801Y17562197I100000J0D01*
G01*
G37*
G36*
G01*
X72777801Y17562197D02*
X72977801Y17562197D01*
G75*
G02*
X73077801Y17462197I0J-100000D01*
G01*
X73077801Y16187197D01*
G75*
G02*
X72977801Y16087197I-100000J0D01*
G01*
X72777801Y16087197D01*
G75*
G02*
X72677801Y16187197I0J100000D01*
G01*
X72677801Y17462197D01*
G75*
G02*
X72777801Y17562197I100000J0D01*
G01*
G37*
G36*
G01*
X72127801Y17562197D02*
X72327801Y17562197D01*
G75*
G02*
X72427801Y17462197I0J-100000D01*
G01*
X72427801Y16187197D01*
G75*
G02*
X72327801Y16087197I-100000J0D01*
G01*
X72127801Y16087197D01*
G75*
G02*
X72027801Y16187197I0J100000D01*
G01*
X72027801Y17462197D01*
G75*
G02*
X72127801Y17562197I100000J0D01*
G01*
G37*
G36*
G01*
X71477801Y17562197D02*
X71677801Y17562197D01*
G75*
G02*
X71777801Y17462197I0J-100000D01*
G01*
X71777801Y16187197D01*
G75*
G02*
X71677801Y16087197I-100000J0D01*
G01*
X71477801Y16087197D01*
G75*
G02*
X71377801Y16187197I0J100000D01*
G01*
X71377801Y17462197D01*
G75*
G02*
X71477801Y17562197I100000J0D01*
G01*
G37*
G36*
G01*
X70827801Y17562197D02*
X71027801Y17562197D01*
G75*
G02*
X71127801Y17462197I0J-100000D01*
G01*
X71127801Y16187197D01*
G75*
G02*
X71027801Y16087197I-100000J0D01*
G01*
X70827801Y16087197D01*
G75*
G02*
X70727801Y16187197I0J100000D01*
G01*
X70727801Y17462197D01*
G75*
G02*
X70827801Y17562197I100000J0D01*
G01*
G37*
G36*
G01*
X70177801Y17562197D02*
X70377801Y17562197D01*
G75*
G02*
X70477801Y17462197I0J-100000D01*
G01*
X70477801Y16187197D01*
G75*
G02*
X70377801Y16087197I-100000J0D01*
G01*
X70177801Y16087197D01*
G75*
G02*
X70077801Y16187197I0J100000D01*
G01*
X70077801Y17462197D01*
G75*
G02*
X70177801Y17562197I100000J0D01*
G01*
G37*
G36*
G01*
X69527801Y17562197D02*
X69727801Y17562197D01*
G75*
G02*
X69827801Y17462197I0J-100000D01*
G01*
X69827801Y16187197D01*
G75*
G02*
X69727801Y16087197I-100000J0D01*
G01*
X69527801Y16087197D01*
G75*
G02*
X69427801Y16187197I0J100000D01*
G01*
X69427801Y17462197D01*
G75*
G02*
X69527801Y17562197I100000J0D01*
G01*
G37*
G36*
G01*
X68877801Y17562197D02*
X69077801Y17562197D01*
G75*
G02*
X69177801Y17462197I0J-100000D01*
G01*
X69177801Y16187197D01*
G75*
G02*
X69077801Y16087197I-100000J0D01*
G01*
X68877801Y16087197D01*
G75*
G02*
X68777801Y16187197I0J100000D01*
G01*
X68777801Y17462197D01*
G75*
G02*
X68877801Y17562197I100000J0D01*
G01*
G37*
G36*
G01*
X68227801Y17562197D02*
X68427801Y17562197D01*
G75*
G02*
X68527801Y17462197I0J-100000D01*
G01*
X68527801Y16187197D01*
G75*
G02*
X68427801Y16087197I-100000J0D01*
G01*
X68227801Y16087197D01*
G75*
G02*
X68127801Y16187197I0J100000D01*
G01*
X68127801Y17462197D01*
G75*
G02*
X68227801Y17562197I100000J0D01*
G01*
G37*
G36*
G01*
X67577801Y17562197D02*
X67777801Y17562197D01*
G75*
G02*
X67877801Y17462197I0J-100000D01*
G01*
X67877801Y16187197D01*
G75*
G02*
X67777801Y16087197I-100000J0D01*
G01*
X67577801Y16087197D01*
G75*
G02*
X67477801Y16187197I0J100000D01*
G01*
X67477801Y17462197D01*
G75*
G02*
X67577801Y17562197I100000J0D01*
G01*
G37*
G36*
G01*
X67577801Y11837197D02*
X67777801Y11837197D01*
G75*
G02*
X67877801Y11737197I0J-100000D01*
G01*
X67877801Y10462197D01*
G75*
G02*
X67777801Y10362197I-100000J0D01*
G01*
X67577801Y10362197D01*
G75*
G02*
X67477801Y10462197I0J100000D01*
G01*
X67477801Y11737197D01*
G75*
G02*
X67577801Y11837197I100000J0D01*
G01*
G37*
G36*
G01*
X68227801Y11837197D02*
X68427801Y11837197D01*
G75*
G02*
X68527801Y11737197I0J-100000D01*
G01*
X68527801Y10462197D01*
G75*
G02*
X68427801Y10362197I-100000J0D01*
G01*
X68227801Y10362197D01*
G75*
G02*
X68127801Y10462197I0J100000D01*
G01*
X68127801Y11737197D01*
G75*
G02*
X68227801Y11837197I100000J0D01*
G01*
G37*
G36*
G01*
X68877801Y11837197D02*
X69077801Y11837197D01*
G75*
G02*
X69177801Y11737197I0J-100000D01*
G01*
X69177801Y10462197D01*
G75*
G02*
X69077801Y10362197I-100000J0D01*
G01*
X68877801Y10362197D01*
G75*
G02*
X68777801Y10462197I0J100000D01*
G01*
X68777801Y11737197D01*
G75*
G02*
X68877801Y11837197I100000J0D01*
G01*
G37*
G36*
G01*
X69527801Y11837197D02*
X69727801Y11837197D01*
G75*
G02*
X69827801Y11737197I0J-100000D01*
G01*
X69827801Y10462197D01*
G75*
G02*
X69727801Y10362197I-100000J0D01*
G01*
X69527801Y10362197D01*
G75*
G02*
X69427801Y10462197I0J100000D01*
G01*
X69427801Y11737197D01*
G75*
G02*
X69527801Y11837197I100000J0D01*
G01*
G37*
G36*
G01*
X70177801Y11837197D02*
X70377801Y11837197D01*
G75*
G02*
X70477801Y11737197I0J-100000D01*
G01*
X70477801Y10462197D01*
G75*
G02*
X70377801Y10362197I-100000J0D01*
G01*
X70177801Y10362197D01*
G75*
G02*
X70077801Y10462197I0J100000D01*
G01*
X70077801Y11737197D01*
G75*
G02*
X70177801Y11837197I100000J0D01*
G01*
G37*
G36*
G01*
X70827801Y11837197D02*
X71027801Y11837197D01*
G75*
G02*
X71127801Y11737197I0J-100000D01*
G01*
X71127801Y10462197D01*
G75*
G02*
X71027801Y10362197I-100000J0D01*
G01*
X70827801Y10362197D01*
G75*
G02*
X70727801Y10462197I0J100000D01*
G01*
X70727801Y11737197D01*
G75*
G02*
X70827801Y11837197I100000J0D01*
G01*
G37*
G36*
G01*
X71477801Y11837197D02*
X71677801Y11837197D01*
G75*
G02*
X71777801Y11737197I0J-100000D01*
G01*
X71777801Y10462197D01*
G75*
G02*
X71677801Y10362197I-100000J0D01*
G01*
X71477801Y10362197D01*
G75*
G02*
X71377801Y10462197I0J100000D01*
G01*
X71377801Y11737197D01*
G75*
G02*
X71477801Y11837197I100000J0D01*
G01*
G37*
G36*
G01*
X72127801Y11837197D02*
X72327801Y11837197D01*
G75*
G02*
X72427801Y11737197I0J-100000D01*
G01*
X72427801Y10462197D01*
G75*
G02*
X72327801Y10362197I-100000J0D01*
G01*
X72127801Y10362197D01*
G75*
G02*
X72027801Y10462197I0J100000D01*
G01*
X72027801Y11737197D01*
G75*
G02*
X72127801Y11837197I100000J0D01*
G01*
G37*
G36*
G01*
X72777801Y11837197D02*
X72977801Y11837197D01*
G75*
G02*
X73077801Y11737197I0J-100000D01*
G01*
X73077801Y10462197D01*
G75*
G02*
X72977801Y10362197I-100000J0D01*
G01*
X72777801Y10362197D01*
G75*
G02*
X72677801Y10462197I0J100000D01*
G01*
X72677801Y11737197D01*
G75*
G02*
X72777801Y11837197I100000J0D01*
G01*
G37*
G36*
G01*
X73427801Y11837197D02*
X73627801Y11837197D01*
G75*
G02*
X73727801Y11737197I0J-100000D01*
G01*
X73727801Y10462197D01*
G75*
G02*
X73627801Y10362197I-100000J0D01*
G01*
X73427801Y10362197D01*
G75*
G02*
X73327801Y10462197I0J100000D01*
G01*
X73327801Y11737197D01*
G75*
G02*
X73427801Y11837197I100000J0D01*
G01*
G37*
G36*
G01*
X2191801Y6196503D02*
X2041801Y6196503D01*
G75*
G02*
X1966801Y6271503I0J75000D01*
G01*
X1966801Y7671503D01*
G75*
G02*
X2041801Y7746503I75000J0D01*
G01*
X2191801Y7746503D01*
G75*
G02*
X2266801Y7671503I0J-75000D01*
G01*
X2266801Y6271503D01*
G75*
G02*
X2191801Y6196503I-75000J0D01*
G01*
G37*
G36*
G01*
X2691801Y6196503D02*
X2541801Y6196503D01*
G75*
G02*
X2466801Y6271503I0J75000D01*
G01*
X2466801Y7671503D01*
G75*
G02*
X2541801Y7746503I75000J0D01*
G01*
X2691801Y7746503D01*
G75*
G02*
X2766801Y7671503I0J-75000D01*
G01*
X2766801Y6271503D01*
G75*
G02*
X2691801Y6196503I-75000J0D01*
G01*
G37*
G36*
G01*
X3191801Y6196503D02*
X3041801Y6196503D01*
G75*
G02*
X2966801Y6271503I0J75000D01*
G01*
X2966801Y7671503D01*
G75*
G02*
X3041801Y7746503I75000J0D01*
G01*
X3191801Y7746503D01*
G75*
G02*
X3266801Y7671503I0J-75000D01*
G01*
X3266801Y6271503D01*
G75*
G02*
X3191801Y6196503I-75000J0D01*
G01*
G37*
G36*
G01*
X3691801Y6196503D02*
X3541801Y6196503D01*
G75*
G02*
X3466801Y6271503I0J75000D01*
G01*
X3466801Y7671503D01*
G75*
G02*
X3541801Y7746503I75000J0D01*
G01*
X3691801Y7746503D01*
G75*
G02*
X3766801Y7671503I0J-75000D01*
G01*
X3766801Y6271503D01*
G75*
G02*
X3691801Y6196503I-75000J0D01*
G01*
G37*
G36*
G01*
X4191801Y6196503D02*
X4041801Y6196503D01*
G75*
G02*
X3966801Y6271503I0J75000D01*
G01*
X3966801Y7671503D01*
G75*
G02*
X4041801Y7746503I75000J0D01*
G01*
X4191801Y7746503D01*
G75*
G02*
X4266801Y7671503I0J-75000D01*
G01*
X4266801Y6271503D01*
G75*
G02*
X4191801Y6196503I-75000J0D01*
G01*
G37*
G36*
G01*
X4691801Y6196503D02*
X4541801Y6196503D01*
G75*
G02*
X4466801Y6271503I0J75000D01*
G01*
X4466801Y7671503D01*
G75*
G02*
X4541801Y7746503I75000J0D01*
G01*
X4691801Y7746503D01*
G75*
G02*
X4766801Y7671503I0J-75000D01*
G01*
X4766801Y6271503D01*
G75*
G02*
X4691801Y6196503I-75000J0D01*
G01*
G37*
G36*
G01*
X5191801Y6196503D02*
X5041801Y6196503D01*
G75*
G02*
X4966801Y6271503I0J75000D01*
G01*
X4966801Y7671503D01*
G75*
G02*
X5041801Y7746503I75000J0D01*
G01*
X5191801Y7746503D01*
G75*
G02*
X5266801Y7671503I0J-75000D01*
G01*
X5266801Y6271503D01*
G75*
G02*
X5191801Y6196503I-75000J0D01*
G01*
G37*
G36*
G01*
X5691801Y6196503D02*
X5541801Y6196503D01*
G75*
G02*
X5466801Y6271503I0J75000D01*
G01*
X5466801Y7671503D01*
G75*
G02*
X5541801Y7746503I75000J0D01*
G01*
X5691801Y7746503D01*
G75*
G02*
X5766801Y7671503I0J-75000D01*
G01*
X5766801Y6271503D01*
G75*
G02*
X5691801Y6196503I-75000J0D01*
G01*
G37*
G36*
G01*
X6191801Y6196503D02*
X6041801Y6196503D01*
G75*
G02*
X5966801Y6271503I0J75000D01*
G01*
X5966801Y7671503D01*
G75*
G02*
X6041801Y7746503I75000J0D01*
G01*
X6191801Y7746503D01*
G75*
G02*
X6266801Y7671503I0J-75000D01*
G01*
X6266801Y6271503D01*
G75*
G02*
X6191801Y6196503I-75000J0D01*
G01*
G37*
G36*
G01*
X6691801Y6196503D02*
X6541801Y6196503D01*
G75*
G02*
X6466801Y6271503I0J75000D01*
G01*
X6466801Y7671503D01*
G75*
G02*
X6541801Y7746503I75000J0D01*
G01*
X6691801Y7746503D01*
G75*
G02*
X6766801Y7671503I0J-75000D01*
G01*
X6766801Y6271503D01*
G75*
G02*
X6691801Y6196503I-75000J0D01*
G01*
G37*
G36*
G01*
X7191801Y6196503D02*
X7041801Y6196503D01*
G75*
G02*
X6966801Y6271503I0J75000D01*
G01*
X6966801Y7671503D01*
G75*
G02*
X7041801Y7746503I75000J0D01*
G01*
X7191801Y7746503D01*
G75*
G02*
X7266801Y7671503I0J-75000D01*
G01*
X7266801Y6271503D01*
G75*
G02*
X7191801Y6196503I-75000J0D01*
G01*
G37*
G36*
G01*
X7691801Y6196503D02*
X7541801Y6196503D01*
G75*
G02*
X7466801Y6271503I0J75000D01*
G01*
X7466801Y7671503D01*
G75*
G02*
X7541801Y7746503I75000J0D01*
G01*
X7691801Y7746503D01*
G75*
G02*
X7766801Y7671503I0J-75000D01*
G01*
X7766801Y6271503D01*
G75*
G02*
X7691801Y6196503I-75000J0D01*
G01*
G37*
G36*
G01*
X8191801Y6196503D02*
X8041801Y6196503D01*
G75*
G02*
X7966801Y6271503I0J75000D01*
G01*
X7966801Y7671503D01*
G75*
G02*
X8041801Y7746503I75000J0D01*
G01*
X8191801Y7746503D01*
G75*
G02*
X8266801Y7671503I0J-75000D01*
G01*
X8266801Y6271503D01*
G75*
G02*
X8191801Y6196503I-75000J0D01*
G01*
G37*
G36*
G01*
X8691801Y6196503D02*
X8541801Y6196503D01*
G75*
G02*
X8466801Y6271503I0J75000D01*
G01*
X8466801Y7671503D01*
G75*
G02*
X8541801Y7746503I75000J0D01*
G01*
X8691801Y7746503D01*
G75*
G02*
X8766801Y7671503I0J-75000D01*
G01*
X8766801Y6271503D01*
G75*
G02*
X8691801Y6196503I-75000J0D01*
G01*
G37*
G36*
G01*
X9191801Y6196503D02*
X9041801Y6196503D01*
G75*
G02*
X8966801Y6271503I0J75000D01*
G01*
X8966801Y7671503D01*
G75*
G02*
X9041801Y7746503I75000J0D01*
G01*
X9191801Y7746503D01*
G75*
G02*
X9266801Y7671503I0J-75000D01*
G01*
X9266801Y6271503D01*
G75*
G02*
X9191801Y6196503I-75000J0D01*
G01*
G37*
G36*
G01*
X9691801Y6196503D02*
X9541801Y6196503D01*
G75*
G02*
X9466801Y6271503I0J75000D01*
G01*
X9466801Y7671503D01*
G75*
G02*
X9541801Y7746503I75000J0D01*
G01*
X9691801Y7746503D01*
G75*
G02*
X9766801Y7671503I0J-75000D01*
G01*
X9766801Y6271503D01*
G75*
G02*
X9691801Y6196503I-75000J0D01*
G01*
G37*
G36*
G01*
X9691801Y19046503D02*
X9541801Y19046503D01*
G75*
G02*
X9466801Y19121503I0J75000D01*
G01*
X9466801Y20521503D01*
G75*
G02*
X9541801Y20596503I75000J0D01*
G01*
X9691801Y20596503D01*
G75*
G02*
X9766801Y20521503I0J-75000D01*
G01*
X9766801Y19121503D01*
G75*
G02*
X9691801Y19046503I-75000J0D01*
G01*
G37*
G36*
G01*
X9191801Y19046503D02*
X9041801Y19046503D01*
G75*
G02*
X8966801Y19121503I0J75000D01*
G01*
X8966801Y20521503D01*
G75*
G02*
X9041801Y20596503I75000J0D01*
G01*
X9191801Y20596503D01*
G75*
G02*
X9266801Y20521503I0J-75000D01*
G01*
X9266801Y19121503D01*
G75*
G02*
X9191801Y19046503I-75000J0D01*
G01*
G37*
G36*
G01*
X8691801Y19046503D02*
X8541801Y19046503D01*
G75*
G02*
X8466801Y19121503I0J75000D01*
G01*
X8466801Y20521503D01*
G75*
G02*
X8541801Y20596503I75000J0D01*
G01*
X8691801Y20596503D01*
G75*
G02*
X8766801Y20521503I0J-75000D01*
G01*
X8766801Y19121503D01*
G75*
G02*
X8691801Y19046503I-75000J0D01*
G01*
G37*
G36*
G01*
X8191801Y19046503D02*
X8041801Y19046503D01*
G75*
G02*
X7966801Y19121503I0J75000D01*
G01*
X7966801Y20521503D01*
G75*
G02*
X8041801Y20596503I75000J0D01*
G01*
X8191801Y20596503D01*
G75*
G02*
X8266801Y20521503I0J-75000D01*
G01*
X8266801Y19121503D01*
G75*
G02*
X8191801Y19046503I-75000J0D01*
G01*
G37*
G36*
G01*
X7691801Y19046503D02*
X7541801Y19046503D01*
G75*
G02*
X7466801Y19121503I0J75000D01*
G01*
X7466801Y20521503D01*
G75*
G02*
X7541801Y20596503I75000J0D01*
G01*
X7691801Y20596503D01*
G75*
G02*
X7766801Y20521503I0J-75000D01*
G01*
X7766801Y19121503D01*
G75*
G02*
X7691801Y19046503I-75000J0D01*
G01*
G37*
G36*
G01*
X7191801Y19046503D02*
X7041801Y19046503D01*
G75*
G02*
X6966801Y19121503I0J75000D01*
G01*
X6966801Y20521503D01*
G75*
G02*
X7041801Y20596503I75000J0D01*
G01*
X7191801Y20596503D01*
G75*
G02*
X7266801Y20521503I0J-75000D01*
G01*
X7266801Y19121503D01*
G75*
G02*
X7191801Y19046503I-75000J0D01*
G01*
G37*
G36*
G01*
X6691801Y19046503D02*
X6541801Y19046503D01*
G75*
G02*
X6466801Y19121503I0J75000D01*
G01*
X6466801Y20521503D01*
G75*
G02*
X6541801Y20596503I75000J0D01*
G01*
X6691801Y20596503D01*
G75*
G02*
X6766801Y20521503I0J-75000D01*
G01*
X6766801Y19121503D01*
G75*
G02*
X6691801Y19046503I-75000J0D01*
G01*
G37*
G36*
G01*
X6191801Y19046503D02*
X6041801Y19046503D01*
G75*
G02*
X5966801Y19121503I0J75000D01*
G01*
X5966801Y20521503D01*
G75*
G02*
X6041801Y20596503I75000J0D01*
G01*
X6191801Y20596503D01*
G75*
G02*
X6266801Y20521503I0J-75000D01*
G01*
X6266801Y19121503D01*
G75*
G02*
X6191801Y19046503I-75000J0D01*
G01*
G37*
G36*
G01*
X5691801Y19046503D02*
X5541801Y19046503D01*
G75*
G02*
X5466801Y19121503I0J75000D01*
G01*
X5466801Y20521503D01*
G75*
G02*
X5541801Y20596503I75000J0D01*
G01*
X5691801Y20596503D01*
G75*
G02*
X5766801Y20521503I0J-75000D01*
G01*
X5766801Y19121503D01*
G75*
G02*
X5691801Y19046503I-75000J0D01*
G01*
G37*
G36*
G01*
X5191801Y19046503D02*
X5041801Y19046503D01*
G75*
G02*
X4966801Y19121503I0J75000D01*
G01*
X4966801Y20521503D01*
G75*
G02*
X5041801Y20596503I75000J0D01*
G01*
X5191801Y20596503D01*
G75*
G02*
X5266801Y20521503I0J-75000D01*
G01*
X5266801Y19121503D01*
G75*
G02*
X5191801Y19046503I-75000J0D01*
G01*
G37*
G36*
G01*
X4691801Y19046503D02*
X4541801Y19046503D01*
G75*
G02*
X4466801Y19121503I0J75000D01*
G01*
X4466801Y20521503D01*
G75*
G02*
X4541801Y20596503I75000J0D01*
G01*
X4691801Y20596503D01*
G75*
G02*
X4766801Y20521503I0J-75000D01*
G01*
X4766801Y19121503D01*
G75*
G02*
X4691801Y19046503I-75000J0D01*
G01*
G37*
G36*
G01*
X4191801Y19046503D02*
X4041801Y19046503D01*
G75*
G02*
X3966801Y19121503I0J75000D01*
G01*
X3966801Y20521503D01*
G75*
G02*
X4041801Y20596503I75000J0D01*
G01*
X4191801Y20596503D01*
G75*
G02*
X4266801Y20521503I0J-75000D01*
G01*
X4266801Y19121503D01*
G75*
G02*
X4191801Y19046503I-75000J0D01*
G01*
G37*
G36*
G01*
X3691801Y19046503D02*
X3541801Y19046503D01*
G75*
G02*
X3466801Y19121503I0J75000D01*
G01*
X3466801Y20521503D01*
G75*
G02*
X3541801Y20596503I75000J0D01*
G01*
X3691801Y20596503D01*
G75*
G02*
X3766801Y20521503I0J-75000D01*
G01*
X3766801Y19121503D01*
G75*
G02*
X3691801Y19046503I-75000J0D01*
G01*
G37*
G36*
G01*
X3191801Y19046503D02*
X3041801Y19046503D01*
G75*
G02*
X2966801Y19121503I0J75000D01*
G01*
X2966801Y20521503D01*
G75*
G02*
X3041801Y20596503I75000J0D01*
G01*
X3191801Y20596503D01*
G75*
G02*
X3266801Y20521503I0J-75000D01*
G01*
X3266801Y19121503D01*
G75*
G02*
X3191801Y19046503I-75000J0D01*
G01*
G37*
G36*
G01*
X2691801Y19046503D02*
X2541801Y19046503D01*
G75*
G02*
X2466801Y19121503I0J75000D01*
G01*
X2466801Y20521503D01*
G75*
G02*
X2541801Y20596503I75000J0D01*
G01*
X2691801Y20596503D01*
G75*
G02*
X2766801Y20521503I0J-75000D01*
G01*
X2766801Y19121503D01*
G75*
G02*
X2691801Y19046503I-75000J0D01*
G01*
G37*
G36*
G01*
X2191801Y19046503D02*
X2041801Y19046503D01*
G75*
G02*
X1966801Y19121503I0J75000D01*
G01*
X1966801Y20521503D01*
G75*
G02*
X2041801Y20596503I75000J0D01*
G01*
X2191801Y20596503D01*
G75*
G02*
X2266801Y20521503I0J-75000D01*
G01*
X2266801Y19121503D01*
G75*
G02*
X2191801Y19046503I-75000J0D01*
G01*
G37*
G36*
G01*
X16504200Y3991800D02*
X16504200Y4491800D01*
G75*
G02*
X16729200Y4716800I225000J0D01*
G01*
X17179200Y4716800D01*
G75*
G02*
X17404200Y4491800I0J-225000D01*
G01*
X17404200Y3991800D01*
G75*
G02*
X17179200Y3766800I-225000J0D01*
G01*
X16729200Y3766800D01*
G75*
G02*
X16504200Y3991800I0J225000D01*
G01*
G37*
G36*
G01*
X18054200Y3991800D02*
X18054200Y4491800D01*
G75*
G02*
X18279200Y4716800I225000J0D01*
G01*
X18729200Y4716800D01*
G75*
G02*
X18954200Y4491800I0J-225000D01*
G01*
X18954200Y3991800D01*
G75*
G02*
X18729200Y3766800I-225000J0D01*
G01*
X18279200Y3766800D01*
G75*
G02*
X18054200Y3991800I0J225000D01*
G01*
G37*
D10*
X18808004Y7646503D03*
X19608004Y7646503D03*
X20408004Y7646503D03*
X21208004Y7646503D03*
X22008004Y7646503D03*
X22808004Y7646503D03*
X23608004Y7646503D03*
X24408004Y7646503D03*
X25208004Y7646503D03*
X26008004Y7646503D03*
X26808004Y7646503D03*
X27608004Y7646503D03*
X28408004Y7646503D03*
X29208004Y7646503D03*
X30008004Y7646503D03*
X30808004Y7646503D03*
X31608004Y7646503D03*
X32408004Y7646503D03*
X33208004Y7646503D03*
X34008004Y7646503D03*
X34808004Y7646503D03*
X35608004Y7646503D03*
X36408004Y7646503D03*
X37208004Y7646503D03*
X38008004Y7646503D03*
X38808004Y7646503D03*
X39608004Y7646503D03*
X39608004Y19146503D03*
X38808004Y19146503D03*
X38008004Y19146503D03*
X37208004Y19146503D03*
X36408004Y19146503D03*
X35608004Y19146503D03*
X34808004Y19146503D03*
X34008004Y19146503D03*
X33208004Y19146503D03*
X32408004Y19146503D03*
X31608004Y19146503D03*
X30808004Y19146503D03*
X30008004Y19146503D03*
X29208004Y19146503D03*
X28408004Y19146503D03*
X27608004Y19146503D03*
X26808004Y19146503D03*
X26008004Y19146503D03*
X25208004Y19146503D03*
X24408004Y19146503D03*
X23608004Y19146503D03*
X22808004Y19146503D03*
X22008004Y19146503D03*
X21208004Y19146503D03*
X20408004Y19146503D03*
X19608004Y19146503D03*
X18808004Y19146503D03*
D11*
X41848700Y7781000D03*
X41848700Y5681000D03*
X43901700Y5681000D03*
X43901700Y7781000D03*
G36*
G01*
X28771801Y5484003D02*
X28771801Y5984003D01*
G75*
G02*
X28996801Y6209003I225000J0D01*
G01*
X29446801Y6209003D01*
G75*
G02*
X29671801Y5984003I0J-225000D01*
G01*
X29671801Y5484003D01*
G75*
G02*
X29446801Y5259003I-225000J0D01*
G01*
X28996801Y5259003D01*
G75*
G02*
X28771801Y5484003I0J225000D01*
G01*
G37*
G36*
G01*
X30321801Y5484003D02*
X30321801Y5984003D01*
G75*
G02*
X30546801Y6209003I225000J0D01*
G01*
X30996801Y6209003D01*
G75*
G02*
X31221801Y5984003I0J-225000D01*
G01*
X31221801Y5484003D01*
G75*
G02*
X30996801Y5259003I-225000J0D01*
G01*
X30546801Y5259003D01*
G75*
G02*
X30321801Y5484003I0J225000D01*
G01*
G37*
G36*
G01*
X22392801Y29026604D02*
X22392801Y28826604D01*
G75*
G02*
X22292801Y28726604I-100000J0D01*
G01*
X21017801Y28726604D01*
G75*
G02*
X20917801Y28826604I0J100000D01*
G01*
X20917801Y29026604D01*
G75*
G02*
X21017801Y29126604I100000J0D01*
G01*
X22292801Y29126604D01*
G75*
G02*
X22392801Y29026604I0J-100000D01*
G01*
G37*
G36*
G01*
X22392801Y29676604D02*
X22392801Y29476604D01*
G75*
G02*
X22292801Y29376604I-100000J0D01*
G01*
X21017801Y29376604D01*
G75*
G02*
X20917801Y29476604I0J100000D01*
G01*
X20917801Y29676604D01*
G75*
G02*
X21017801Y29776604I100000J0D01*
G01*
X22292801Y29776604D01*
G75*
G02*
X22392801Y29676604I0J-100000D01*
G01*
G37*
G36*
G01*
X22392801Y30326604D02*
X22392801Y30126604D01*
G75*
G02*
X22292801Y30026604I-100000J0D01*
G01*
X21017801Y30026604D01*
G75*
G02*
X20917801Y30126604I0J100000D01*
G01*
X20917801Y30326604D01*
G75*
G02*
X21017801Y30426604I100000J0D01*
G01*
X22292801Y30426604D01*
G75*
G02*
X22392801Y30326604I0J-100000D01*
G01*
G37*
G36*
G01*
X22392801Y30976604D02*
X22392801Y30776604D01*
G75*
G02*
X22292801Y30676604I-100000J0D01*
G01*
X21017801Y30676604D01*
G75*
G02*
X20917801Y30776604I0J100000D01*
G01*
X20917801Y30976604D01*
G75*
G02*
X21017801Y31076604I100000J0D01*
G01*
X22292801Y31076604D01*
G75*
G02*
X22392801Y30976604I0J-100000D01*
G01*
G37*
G36*
G01*
X22392801Y31626604D02*
X22392801Y31426604D01*
G75*
G02*
X22292801Y31326604I-100000J0D01*
G01*
X21017801Y31326604D01*
G75*
G02*
X20917801Y31426604I0J100000D01*
G01*
X20917801Y31626604D01*
G75*
G02*
X21017801Y31726604I100000J0D01*
G01*
X22292801Y31726604D01*
G75*
G02*
X22392801Y31626604I0J-100000D01*
G01*
G37*
G36*
G01*
X22392801Y32276604D02*
X22392801Y32076604D01*
G75*
G02*
X22292801Y31976604I-100000J0D01*
G01*
X21017801Y31976604D01*
G75*
G02*
X20917801Y32076604I0J100000D01*
G01*
X20917801Y32276604D01*
G75*
G02*
X21017801Y32376604I100000J0D01*
G01*
X22292801Y32376604D01*
G75*
G02*
X22392801Y32276604I0J-100000D01*
G01*
G37*
G36*
G01*
X22392801Y32926604D02*
X22392801Y32726604D01*
G75*
G02*
X22292801Y32626604I-100000J0D01*
G01*
X21017801Y32626604D01*
G75*
G02*
X20917801Y32726604I0J100000D01*
G01*
X20917801Y32926604D01*
G75*
G02*
X21017801Y33026604I100000J0D01*
G01*
X22292801Y33026604D01*
G75*
G02*
X22392801Y32926604I0J-100000D01*
G01*
G37*
G36*
G01*
X22392801Y33576604D02*
X22392801Y33376604D01*
G75*
G02*
X22292801Y33276604I-100000J0D01*
G01*
X21017801Y33276604D01*
G75*
G02*
X20917801Y33376604I0J100000D01*
G01*
X20917801Y33576604D01*
G75*
G02*
X21017801Y33676604I100000J0D01*
G01*
X22292801Y33676604D01*
G75*
G02*
X22392801Y33576604I0J-100000D01*
G01*
G37*
G36*
G01*
X22392801Y34226604D02*
X22392801Y34026604D01*
G75*
G02*
X22292801Y33926604I-100000J0D01*
G01*
X21017801Y33926604D01*
G75*
G02*
X20917801Y34026604I0J100000D01*
G01*
X20917801Y34226604D01*
G75*
G02*
X21017801Y34326604I100000J0D01*
G01*
X22292801Y34326604D01*
G75*
G02*
X22392801Y34226604I0J-100000D01*
G01*
G37*
G36*
G01*
X22392801Y34876604D02*
X22392801Y34676604D01*
G75*
G02*
X22292801Y34576604I-100000J0D01*
G01*
X21017801Y34576604D01*
G75*
G02*
X20917801Y34676604I0J100000D01*
G01*
X20917801Y34876604D01*
G75*
G02*
X21017801Y34976604I100000J0D01*
G01*
X22292801Y34976604D01*
G75*
G02*
X22392801Y34876604I0J-100000D01*
G01*
G37*
G36*
G01*
X16667801Y34876604D02*
X16667801Y34676604D01*
G75*
G02*
X16567801Y34576604I-100000J0D01*
G01*
X15292801Y34576604D01*
G75*
G02*
X15192801Y34676604I0J100000D01*
G01*
X15192801Y34876604D01*
G75*
G02*
X15292801Y34976604I100000J0D01*
G01*
X16567801Y34976604D01*
G75*
G02*
X16667801Y34876604I0J-100000D01*
G01*
G37*
G36*
G01*
X16667801Y34226604D02*
X16667801Y34026604D01*
G75*
G02*
X16567801Y33926604I-100000J0D01*
G01*
X15292801Y33926604D01*
G75*
G02*
X15192801Y34026604I0J100000D01*
G01*
X15192801Y34226604D01*
G75*
G02*
X15292801Y34326604I100000J0D01*
G01*
X16567801Y34326604D01*
G75*
G02*
X16667801Y34226604I0J-100000D01*
G01*
G37*
G36*
G01*
X16667801Y33576604D02*
X16667801Y33376604D01*
G75*
G02*
X16567801Y33276604I-100000J0D01*
G01*
X15292801Y33276604D01*
G75*
G02*
X15192801Y33376604I0J100000D01*
G01*
X15192801Y33576604D01*
G75*
G02*
X15292801Y33676604I100000J0D01*
G01*
X16567801Y33676604D01*
G75*
G02*
X16667801Y33576604I0J-100000D01*
G01*
G37*
G36*
G01*
X16667801Y32926604D02*
X16667801Y32726604D01*
G75*
G02*
X16567801Y32626604I-100000J0D01*
G01*
X15292801Y32626604D01*
G75*
G02*
X15192801Y32726604I0J100000D01*
G01*
X15192801Y32926604D01*
G75*
G02*
X15292801Y33026604I100000J0D01*
G01*
X16567801Y33026604D01*
G75*
G02*
X16667801Y32926604I0J-100000D01*
G01*
G37*
G36*
G01*
X16667801Y32276604D02*
X16667801Y32076604D01*
G75*
G02*
X16567801Y31976604I-100000J0D01*
G01*
X15292801Y31976604D01*
G75*
G02*
X15192801Y32076604I0J100000D01*
G01*
X15192801Y32276604D01*
G75*
G02*
X15292801Y32376604I100000J0D01*
G01*
X16567801Y32376604D01*
G75*
G02*
X16667801Y32276604I0J-100000D01*
G01*
G37*
G36*
G01*
X16667801Y31626604D02*
X16667801Y31426604D01*
G75*
G02*
X16567801Y31326604I-100000J0D01*
G01*
X15292801Y31326604D01*
G75*
G02*
X15192801Y31426604I0J100000D01*
G01*
X15192801Y31626604D01*
G75*
G02*
X15292801Y31726604I100000J0D01*
G01*
X16567801Y31726604D01*
G75*
G02*
X16667801Y31626604I0J-100000D01*
G01*
G37*
G36*
G01*
X16667801Y30976604D02*
X16667801Y30776604D01*
G75*
G02*
X16567801Y30676604I-100000J0D01*
G01*
X15292801Y30676604D01*
G75*
G02*
X15192801Y30776604I0J100000D01*
G01*
X15192801Y30976604D01*
G75*
G02*
X15292801Y31076604I100000J0D01*
G01*
X16567801Y31076604D01*
G75*
G02*
X16667801Y30976604I0J-100000D01*
G01*
G37*
G36*
G01*
X16667801Y30326604D02*
X16667801Y30126604D01*
G75*
G02*
X16567801Y30026604I-100000J0D01*
G01*
X15292801Y30026604D01*
G75*
G02*
X15192801Y30126604I0J100000D01*
G01*
X15192801Y30326604D01*
G75*
G02*
X15292801Y30426604I100000J0D01*
G01*
X16567801Y30426604D01*
G75*
G02*
X16667801Y30326604I0J-100000D01*
G01*
G37*
G36*
G01*
X16667801Y29676604D02*
X16667801Y29476604D01*
G75*
G02*
X16567801Y29376604I-100000J0D01*
G01*
X15292801Y29376604D01*
G75*
G02*
X15192801Y29476604I0J100000D01*
G01*
X15192801Y29676604D01*
G75*
G02*
X15292801Y29776604I100000J0D01*
G01*
X16567801Y29776604D01*
G75*
G02*
X16667801Y29676604I0J-100000D01*
G01*
G37*
G36*
G01*
X16667801Y29026604D02*
X16667801Y28826604D01*
G75*
G02*
X16567801Y28726604I-100000J0D01*
G01*
X15292801Y28726604D01*
G75*
G02*
X15192801Y28826604I0J100000D01*
G01*
X15192801Y29026604D01*
G75*
G02*
X15292801Y29126604I100000J0D01*
G01*
X16567801Y29126604D01*
G75*
G02*
X16667801Y29026604I0J-100000D01*
G01*
G37*
G36*
G01*
X13962805Y28493000D02*
X13462805Y28493000D01*
G75*
G02*
X13237805Y28718000I0J225000D01*
G01*
X13237805Y29168000D01*
G75*
G02*
X13462805Y29393000I225000J0D01*
G01*
X13962805Y29393000D01*
G75*
G02*
X14187805Y29168000I0J-225000D01*
G01*
X14187805Y28718000D01*
G75*
G02*
X13962805Y28493000I-225000J0D01*
G01*
G37*
G36*
G01*
X13962805Y30043000D02*
X13462805Y30043000D01*
G75*
G02*
X13237805Y30268000I0J225000D01*
G01*
X13237805Y30718000D01*
G75*
G02*
X13462805Y30943000I225000J0D01*
G01*
X13962805Y30943000D01*
G75*
G02*
X14187805Y30718000I0J-225000D01*
G01*
X14187805Y30268000D01*
G75*
G02*
X13962805Y30043000I-225000J0D01*
G01*
G37*
G36*
G01*
X73907200Y4620003D02*
X73057200Y4620003D01*
G75*
G02*
X72807200Y4870003I0J250000D01*
G01*
X72807200Y5770003D01*
G75*
G02*
X73057200Y6020003I250000J0D01*
G01*
X73907200Y6020003D01*
G75*
G02*
X74157200Y5770003I0J-250000D01*
G01*
X74157200Y4870003D01*
G75*
G02*
X73907200Y4620003I-250000J0D01*
G01*
G37*
G36*
G01*
X73907200Y7320003D02*
X73057200Y7320003D01*
G75*
G02*
X72807200Y7570003I0J250000D01*
G01*
X72807200Y8470003D01*
G75*
G02*
X73057200Y8720003I250000J0D01*
G01*
X73907200Y8720003D01*
G75*
G02*
X74157200Y8470003I0J-250000D01*
G01*
X74157200Y7570003D01*
G75*
G02*
X73907200Y7320003I-250000J0D01*
G01*
G37*
G36*
G01*
X75318001Y10657103D02*
X74818001Y10657103D01*
G75*
G02*
X74593001Y10882103I0J225000D01*
G01*
X74593001Y11332103D01*
G75*
G02*
X74818001Y11557103I225000J0D01*
G01*
X75318001Y11557103D01*
G75*
G02*
X75543001Y11332103I0J-225000D01*
G01*
X75543001Y10882103D01*
G75*
G02*
X75318001Y10657103I-225000J0D01*
G01*
G37*
G36*
G01*
X75318001Y12207103D02*
X74818001Y12207103D01*
G75*
G02*
X74593001Y12432103I0J225000D01*
G01*
X74593001Y12882103D01*
G75*
G02*
X74818001Y13107103I225000J0D01*
G01*
X75318001Y13107103D01*
G75*
G02*
X75543001Y12882103I0J-225000D01*
G01*
X75543001Y12432103D01*
G75*
G02*
X75318001Y12207103I-225000J0D01*
G01*
G37*
G36*
G01*
X40045604Y5984003D02*
X40045604Y5484003D01*
G75*
G02*
X39820604Y5259003I-225000J0D01*
G01*
X39370604Y5259003D01*
G75*
G02*
X39145604Y5484003I0J225000D01*
G01*
X39145604Y5984003D01*
G75*
G02*
X39370604Y6209003I225000J0D01*
G01*
X39820604Y6209003D01*
G75*
G02*
X40045604Y5984003I0J-225000D01*
G01*
G37*
G36*
G01*
X38495604Y5984003D02*
X38495604Y5484003D01*
G75*
G02*
X38270604Y5259003I-225000J0D01*
G01*
X37820604Y5259003D01*
G75*
G02*
X37595604Y5484003I0J225000D01*
G01*
X37595604Y5984003D01*
G75*
G02*
X37820604Y6209003I225000J0D01*
G01*
X38270604Y6209003D01*
G75*
G02*
X38495604Y5984003I0J-225000D01*
G01*
G37*
G36*
G01*
X13462805Y34245000D02*
X13962805Y34245000D01*
G75*
G02*
X14187805Y34020000I0J-225000D01*
G01*
X14187805Y33570000D01*
G75*
G02*
X13962805Y33345000I-225000J0D01*
G01*
X13462805Y33345000D01*
G75*
G02*
X13237805Y33570000I0J225000D01*
G01*
X13237805Y34020000D01*
G75*
G02*
X13462805Y34245000I225000J0D01*
G01*
G37*
G36*
G01*
X13462805Y32695000D02*
X13962805Y32695000D01*
G75*
G02*
X14187805Y32470000I0J-225000D01*
G01*
X14187805Y32020000D01*
G75*
G02*
X13962805Y31795000I-225000J0D01*
G01*
X13462805Y31795000D01*
G75*
G02*
X13237805Y32020000I0J225000D01*
G01*
X13237805Y32470000D01*
G75*
G02*
X13462805Y32695000I225000J0D01*
G01*
G37*
G36*
G01*
X65906200Y4630200D02*
X65056200Y4630200D01*
G75*
G02*
X64806200Y4880200I0J250000D01*
G01*
X64806200Y5780200D01*
G75*
G02*
X65056200Y6030200I250000J0D01*
G01*
X65906200Y6030200D01*
G75*
G02*
X66156200Y5780200I0J-250000D01*
G01*
X66156200Y4880200D01*
G75*
G02*
X65906200Y4630200I-250000J0D01*
G01*
G37*
G36*
G01*
X65906200Y7330200D02*
X65056200Y7330200D01*
G75*
G02*
X64806200Y7580200I0J250000D01*
G01*
X64806200Y8480200D01*
G75*
G02*
X65056200Y8730200I250000J0D01*
G01*
X65906200Y8730200D01*
G75*
G02*
X66156200Y8480200I0J-250000D01*
G01*
X66156200Y7580200D01*
G75*
G02*
X65906200Y7330200I-250000J0D01*
G01*
G37*
G36*
G01*
X11217615Y13606503D02*
X11017615Y13606503D01*
G75*
G02*
X10917615Y13706503I0J100000D01*
G01*
X10917615Y14981503D01*
G75*
G02*
X11017615Y15081503I100000J0D01*
G01*
X11217615Y15081503D01*
G75*
G02*
X11317615Y14981503I0J-100000D01*
G01*
X11317615Y13706503D01*
G75*
G02*
X11217615Y13606503I-100000J0D01*
G01*
G37*
G36*
G01*
X11867615Y13606503D02*
X11667615Y13606503D01*
G75*
G02*
X11567615Y13706503I0J100000D01*
G01*
X11567615Y14981503D01*
G75*
G02*
X11667615Y15081503I100000J0D01*
G01*
X11867615Y15081503D01*
G75*
G02*
X11967615Y14981503I0J-100000D01*
G01*
X11967615Y13706503D01*
G75*
G02*
X11867615Y13606503I-100000J0D01*
G01*
G37*
G36*
G01*
X12517615Y13606503D02*
X12317615Y13606503D01*
G75*
G02*
X12217615Y13706503I0J100000D01*
G01*
X12217615Y14981503D01*
G75*
G02*
X12317615Y15081503I100000J0D01*
G01*
X12517615Y15081503D01*
G75*
G02*
X12617615Y14981503I0J-100000D01*
G01*
X12617615Y13706503D01*
G75*
G02*
X12517615Y13606503I-100000J0D01*
G01*
G37*
G36*
G01*
X13167615Y13606503D02*
X12967615Y13606503D01*
G75*
G02*
X12867615Y13706503I0J100000D01*
G01*
X12867615Y14981503D01*
G75*
G02*
X12967615Y15081503I100000J0D01*
G01*
X13167615Y15081503D01*
G75*
G02*
X13267615Y14981503I0J-100000D01*
G01*
X13267615Y13706503D01*
G75*
G02*
X13167615Y13606503I-100000J0D01*
G01*
G37*
G36*
G01*
X13817615Y13606503D02*
X13617615Y13606503D01*
G75*
G02*
X13517615Y13706503I0J100000D01*
G01*
X13517615Y14981503D01*
G75*
G02*
X13617615Y15081503I100000J0D01*
G01*
X13817615Y15081503D01*
G75*
G02*
X13917615Y14981503I0J-100000D01*
G01*
X13917615Y13706503D01*
G75*
G02*
X13817615Y13606503I-100000J0D01*
G01*
G37*
G36*
G01*
X14467615Y13606503D02*
X14267615Y13606503D01*
G75*
G02*
X14167615Y13706503I0J100000D01*
G01*
X14167615Y14981503D01*
G75*
G02*
X14267615Y15081503I100000J0D01*
G01*
X14467615Y15081503D01*
G75*
G02*
X14567615Y14981503I0J-100000D01*
G01*
X14567615Y13706503D01*
G75*
G02*
X14467615Y13606503I-100000J0D01*
G01*
G37*
G36*
G01*
X15117615Y13606503D02*
X14917615Y13606503D01*
G75*
G02*
X14817615Y13706503I0J100000D01*
G01*
X14817615Y14981503D01*
G75*
G02*
X14917615Y15081503I100000J0D01*
G01*
X15117615Y15081503D01*
G75*
G02*
X15217615Y14981503I0J-100000D01*
G01*
X15217615Y13706503D01*
G75*
G02*
X15117615Y13606503I-100000J0D01*
G01*
G37*
G36*
G01*
X15767615Y13606503D02*
X15567615Y13606503D01*
G75*
G02*
X15467615Y13706503I0J100000D01*
G01*
X15467615Y14981503D01*
G75*
G02*
X15567615Y15081503I100000J0D01*
G01*
X15767615Y15081503D01*
G75*
G02*
X15867615Y14981503I0J-100000D01*
G01*
X15867615Y13706503D01*
G75*
G02*
X15767615Y13606503I-100000J0D01*
G01*
G37*
G36*
G01*
X16417615Y13606503D02*
X16217615Y13606503D01*
G75*
G02*
X16117615Y13706503I0J100000D01*
G01*
X16117615Y14981503D01*
G75*
G02*
X16217615Y15081503I100000J0D01*
G01*
X16417615Y15081503D01*
G75*
G02*
X16517615Y14981503I0J-100000D01*
G01*
X16517615Y13706503D01*
G75*
G02*
X16417615Y13606503I-100000J0D01*
G01*
G37*
G36*
G01*
X17067615Y13606503D02*
X16867615Y13606503D01*
G75*
G02*
X16767615Y13706503I0J100000D01*
G01*
X16767615Y14981503D01*
G75*
G02*
X16867615Y15081503I100000J0D01*
G01*
X17067615Y15081503D01*
G75*
G02*
X17167615Y14981503I0J-100000D01*
G01*
X17167615Y13706503D01*
G75*
G02*
X17067615Y13606503I-100000J0D01*
G01*
G37*
G36*
G01*
X17067615Y19331503D02*
X16867615Y19331503D01*
G75*
G02*
X16767615Y19431503I0J100000D01*
G01*
X16767615Y20706503D01*
G75*
G02*
X16867615Y20806503I100000J0D01*
G01*
X17067615Y20806503D01*
G75*
G02*
X17167615Y20706503I0J-100000D01*
G01*
X17167615Y19431503D01*
G75*
G02*
X17067615Y19331503I-100000J0D01*
G01*
G37*
G36*
G01*
X16417615Y19331503D02*
X16217615Y19331503D01*
G75*
G02*
X16117615Y19431503I0J100000D01*
G01*
X16117615Y20706503D01*
G75*
G02*
X16217615Y20806503I100000J0D01*
G01*
X16417615Y20806503D01*
G75*
G02*
X16517615Y20706503I0J-100000D01*
G01*
X16517615Y19431503D01*
G75*
G02*
X16417615Y19331503I-100000J0D01*
G01*
G37*
G36*
G01*
X15767615Y19331503D02*
X15567615Y19331503D01*
G75*
G02*
X15467615Y19431503I0J100000D01*
G01*
X15467615Y20706503D01*
G75*
G02*
X15567615Y20806503I100000J0D01*
G01*
X15767615Y20806503D01*
G75*
G02*
X15867615Y20706503I0J-100000D01*
G01*
X15867615Y19431503D01*
G75*
G02*
X15767615Y19331503I-100000J0D01*
G01*
G37*
G36*
G01*
X15117615Y19331503D02*
X14917615Y19331503D01*
G75*
G02*
X14817615Y19431503I0J100000D01*
G01*
X14817615Y20706503D01*
G75*
G02*
X14917615Y20806503I100000J0D01*
G01*
X15117615Y20806503D01*
G75*
G02*
X15217615Y20706503I0J-100000D01*
G01*
X15217615Y19431503D01*
G75*
G02*
X15117615Y19331503I-100000J0D01*
G01*
G37*
G36*
G01*
X14467615Y19331503D02*
X14267615Y19331503D01*
G75*
G02*
X14167615Y19431503I0J100000D01*
G01*
X14167615Y20706503D01*
G75*
G02*
X14267615Y20806503I100000J0D01*
G01*
X14467615Y20806503D01*
G75*
G02*
X14567615Y20706503I0J-100000D01*
G01*
X14567615Y19431503D01*
G75*
G02*
X14467615Y19331503I-100000J0D01*
G01*
G37*
G36*
G01*
X13817615Y19331503D02*
X13617615Y19331503D01*
G75*
G02*
X13517615Y19431503I0J100000D01*
G01*
X13517615Y20706503D01*
G75*
G02*
X13617615Y20806503I100000J0D01*
G01*
X13817615Y20806503D01*
G75*
G02*
X13917615Y20706503I0J-100000D01*
G01*
X13917615Y19431503D01*
G75*
G02*
X13817615Y19331503I-100000J0D01*
G01*
G37*
G36*
G01*
X13167615Y19331503D02*
X12967615Y19331503D01*
G75*
G02*
X12867615Y19431503I0J100000D01*
G01*
X12867615Y20706503D01*
G75*
G02*
X12967615Y20806503I100000J0D01*
G01*
X13167615Y20806503D01*
G75*
G02*
X13267615Y20706503I0J-100000D01*
G01*
X13267615Y19431503D01*
G75*
G02*
X13167615Y19331503I-100000J0D01*
G01*
G37*
G36*
G01*
X12517615Y19331503D02*
X12317615Y19331503D01*
G75*
G02*
X12217615Y19431503I0J100000D01*
G01*
X12217615Y20706503D01*
G75*
G02*
X12317615Y20806503I100000J0D01*
G01*
X12517615Y20806503D01*
G75*
G02*
X12617615Y20706503I0J-100000D01*
G01*
X12617615Y19431503D01*
G75*
G02*
X12517615Y19331503I-100000J0D01*
G01*
G37*
G36*
G01*
X11867615Y19331503D02*
X11667615Y19331503D01*
G75*
G02*
X11567615Y19431503I0J100000D01*
G01*
X11567615Y20706503D01*
G75*
G02*
X11667615Y20806503I100000J0D01*
G01*
X11867615Y20806503D01*
G75*
G02*
X11967615Y20706503I0J-100000D01*
G01*
X11967615Y19431503D01*
G75*
G02*
X11867615Y19331503I-100000J0D01*
G01*
G37*
G36*
G01*
X11217615Y19331503D02*
X11017615Y19331503D01*
G75*
G02*
X10917615Y19431503I0J100000D01*
G01*
X10917615Y20706503D01*
G75*
G02*
X11017615Y20806503I100000J0D01*
G01*
X11217615Y20806503D01*
G75*
G02*
X11317615Y20706503I0J-100000D01*
G01*
X11317615Y19431503D01*
G75*
G02*
X11217615Y19331503I-100000J0D01*
G01*
G37*
G36*
G01*
X33065000Y4433503D02*
X33065000Y4983503D01*
G75*
G02*
X33265000Y5183503I200000J0D01*
G01*
X33665000Y5183503D01*
G75*
G02*
X33865000Y4983503I0J-200000D01*
G01*
X33865000Y4433503D01*
G75*
G02*
X33665000Y4233503I-200000J0D01*
G01*
X33265000Y4233503D01*
G75*
G02*
X33065000Y4433503I0J200000D01*
G01*
G37*
G36*
G01*
X34715000Y4433503D02*
X34715000Y4983503D01*
G75*
G02*
X34915000Y5183503I200000J0D01*
G01*
X35315000Y5183503D01*
G75*
G02*
X35515000Y4983503I0J-200000D01*
G01*
X35515000Y4433503D01*
G75*
G02*
X35315000Y4233503I-200000J0D01*
G01*
X34915000Y4233503D01*
G75*
G02*
X34715000Y4433503I0J200000D01*
G01*
G37*
G36*
G01*
X15666000Y35843800D02*
X15666000Y36393800D01*
G75*
G02*
X15866000Y36593800I200000J0D01*
G01*
X16266000Y36593800D01*
G75*
G02*
X16466000Y36393800I0J-200000D01*
G01*
X16466000Y35843800D01*
G75*
G02*
X16266000Y35643800I-200000J0D01*
G01*
X15866000Y35643800D01*
G75*
G02*
X15666000Y35843800I0J200000D01*
G01*
G37*
G36*
G01*
X17316000Y35843800D02*
X17316000Y36393800D01*
G75*
G02*
X17516000Y36593800I200000J0D01*
G01*
X17916000Y36593800D01*
G75*
G02*
X18116000Y36393800I0J-200000D01*
G01*
X18116000Y35843800D01*
G75*
G02*
X17916000Y35643800I-200000J0D01*
G01*
X17516000Y35643800D01*
G75*
G02*
X17316000Y35843800I0J200000D01*
G01*
G37*
G36*
G01*
X74793001Y17236897D02*
X75343001Y17236897D01*
G75*
G02*
X75543001Y17036897I0J-200000D01*
G01*
X75543001Y16636897D01*
G75*
G02*
X75343001Y16436897I-200000J0D01*
G01*
X74793001Y16436897D01*
G75*
G02*
X74593001Y16636897I0J200000D01*
G01*
X74593001Y17036897D01*
G75*
G02*
X74793001Y17236897I200000J0D01*
G01*
G37*
G36*
G01*
X74793001Y15586897D02*
X75343001Y15586897D01*
G75*
G02*
X75543001Y15386897I0J-200000D01*
G01*
X75543001Y14986897D01*
G75*
G02*
X75343001Y14786897I-200000J0D01*
G01*
X74793001Y14786897D01*
G75*
G02*
X74593001Y14986897I0J200000D01*
G01*
X74593001Y15386897D01*
G75*
G02*
X74793001Y15586897I200000J0D01*
G01*
G37*
G36*
G01*
X66757000Y17724800D02*
X66757000Y17174800D01*
G75*
G02*
X66557000Y16974800I-200000J0D01*
G01*
X66157000Y16974800D01*
G75*
G02*
X65957000Y17174800I0J200000D01*
G01*
X65957000Y17724800D01*
G75*
G02*
X66157000Y17924800I200000J0D01*
G01*
X66557000Y17924800D01*
G75*
G02*
X66757000Y17724800I0J-200000D01*
G01*
G37*
G36*
G01*
X65107000Y17724800D02*
X65107000Y17174800D01*
G75*
G02*
X64907000Y16974800I-200000J0D01*
G01*
X64507000Y16974800D01*
G75*
G02*
X64307000Y17174800I0J200000D01*
G01*
X64307000Y17724800D01*
G75*
G02*
X64507000Y17924800I200000J0D01*
G01*
X64907000Y17924800D01*
G75*
G02*
X65107000Y17724800I0J-200000D01*
G01*
G37*
G36*
G01*
X20873000Y5484003D02*
X20873000Y5984003D01*
G75*
G02*
X21098000Y6209003I225000J0D01*
G01*
X21548000Y6209003D01*
G75*
G02*
X21773000Y5984003I0J-225000D01*
G01*
X21773000Y5484003D01*
G75*
G02*
X21548000Y5259003I-225000J0D01*
G01*
X21098000Y5259003D01*
G75*
G02*
X20873000Y5484003I0J225000D01*
G01*
G37*
G36*
G01*
X22423000Y5484003D02*
X22423000Y5984003D01*
G75*
G02*
X22648000Y6209003I225000J0D01*
G01*
X23098000Y6209003D01*
G75*
G02*
X23323000Y5984003I0J-225000D01*
G01*
X23323000Y5484003D01*
G75*
G02*
X23098000Y5259003I-225000J0D01*
G01*
X22648000Y5259003D01*
G75*
G02*
X22423000Y5484003I0J225000D01*
G01*
G37*
G36*
G01*
X65485600Y16160200D02*
X66035600Y16160200D01*
G75*
G02*
X66235600Y15960200I0J-200000D01*
G01*
X66235600Y15560200D01*
G75*
G02*
X66035600Y15360200I-200000J0D01*
G01*
X65485600Y15360200D01*
G75*
G02*
X65285600Y15560200I0J200000D01*
G01*
X65285600Y15960200D01*
G75*
G02*
X65485600Y16160200I200000J0D01*
G01*
G37*
G36*
G01*
X65485600Y14510200D02*
X66035600Y14510200D01*
G75*
G02*
X66235600Y14310200I0J-200000D01*
G01*
X66235600Y13910200D01*
G75*
G02*
X66035600Y13710200I-200000J0D01*
G01*
X65485600Y13710200D01*
G75*
G02*
X65285600Y13910200I0J200000D01*
G01*
X65285600Y14310200D01*
G75*
G02*
X65485600Y14510200I200000J0D01*
G01*
G37*
G36*
G01*
X76688801Y13140004D02*
X77238801Y13140004D01*
G75*
G02*
X77438801Y12940004I0J-200000D01*
G01*
X77438801Y12540004D01*
G75*
G02*
X77238801Y12340004I-200000J0D01*
G01*
X76688801Y12340004D01*
G75*
G02*
X76488801Y12540004I0J200000D01*
G01*
X76488801Y12940004D01*
G75*
G02*
X76688801Y13140004I200000J0D01*
G01*
G37*
G36*
G01*
X76688801Y11490004D02*
X77238801Y11490004D01*
G75*
G02*
X77438801Y11290004I0J-200000D01*
G01*
X77438801Y10890004D01*
G75*
G02*
X77238801Y10690004I-200000J0D01*
G01*
X76688801Y10690004D01*
G75*
G02*
X76488801Y10890004I0J200000D01*
G01*
X76488801Y11290004D01*
G75*
G02*
X76688801Y11490004I200000J0D01*
G01*
G37*
G36*
G01*
X1569000Y31856000D02*
X1569000Y32406000D01*
G75*
G02*
X1769000Y32606000I200000J0D01*
G01*
X2169000Y32606000D01*
G75*
G02*
X2369000Y32406000I0J-200000D01*
G01*
X2369000Y31856000D01*
G75*
G02*
X2169000Y31656000I-200000J0D01*
G01*
X1769000Y31656000D01*
G75*
G02*
X1569000Y31856000I0J200000D01*
G01*
G37*
G36*
G01*
X3219000Y31856000D02*
X3219000Y32406000D01*
G75*
G02*
X3419000Y32606000I200000J0D01*
G01*
X3819000Y32606000D01*
G75*
G02*
X4019000Y32406000I0J-200000D01*
G01*
X4019000Y31856000D01*
G75*
G02*
X3819000Y31656000I-200000J0D01*
G01*
X3419000Y31656000D01*
G75*
G02*
X3219000Y31856000I0J200000D01*
G01*
G37*
G36*
G01*
X16867615Y12907103D02*
X17067615Y12907103D01*
G75*
G02*
X17167615Y12807103I0J-100000D01*
G01*
X17167615Y11532103D01*
G75*
G02*
X17067615Y11432103I-100000J0D01*
G01*
X16867615Y11432103D01*
G75*
G02*
X16767615Y11532103I0J100000D01*
G01*
X16767615Y12807103D01*
G75*
G02*
X16867615Y12907103I100000J0D01*
G01*
G37*
G36*
G01*
X16217615Y12907103D02*
X16417615Y12907103D01*
G75*
G02*
X16517615Y12807103I0J-100000D01*
G01*
X16517615Y11532103D01*
G75*
G02*
X16417615Y11432103I-100000J0D01*
G01*
X16217615Y11432103D01*
G75*
G02*
X16117615Y11532103I0J100000D01*
G01*
X16117615Y12807103D01*
G75*
G02*
X16217615Y12907103I100000J0D01*
G01*
G37*
G36*
G01*
X15567615Y12907103D02*
X15767615Y12907103D01*
G75*
G02*
X15867615Y12807103I0J-100000D01*
G01*
X15867615Y11532103D01*
G75*
G02*
X15767615Y11432103I-100000J0D01*
G01*
X15567615Y11432103D01*
G75*
G02*
X15467615Y11532103I0J100000D01*
G01*
X15467615Y12807103D01*
G75*
G02*
X15567615Y12907103I100000J0D01*
G01*
G37*
G36*
G01*
X14917615Y12907103D02*
X15117615Y12907103D01*
G75*
G02*
X15217615Y12807103I0J-100000D01*
G01*
X15217615Y11532103D01*
G75*
G02*
X15117615Y11432103I-100000J0D01*
G01*
X14917615Y11432103D01*
G75*
G02*
X14817615Y11532103I0J100000D01*
G01*
X14817615Y12807103D01*
G75*
G02*
X14917615Y12907103I100000J0D01*
G01*
G37*
G36*
G01*
X14267615Y12907103D02*
X14467615Y12907103D01*
G75*
G02*
X14567615Y12807103I0J-100000D01*
G01*
X14567615Y11532103D01*
G75*
G02*
X14467615Y11432103I-100000J0D01*
G01*
X14267615Y11432103D01*
G75*
G02*
X14167615Y11532103I0J100000D01*
G01*
X14167615Y12807103D01*
G75*
G02*
X14267615Y12907103I100000J0D01*
G01*
G37*
G36*
G01*
X13617615Y12907103D02*
X13817615Y12907103D01*
G75*
G02*
X13917615Y12807103I0J-100000D01*
G01*
X13917615Y11532103D01*
G75*
G02*
X13817615Y11432103I-100000J0D01*
G01*
X13617615Y11432103D01*
G75*
G02*
X13517615Y11532103I0J100000D01*
G01*
X13517615Y12807103D01*
G75*
G02*
X13617615Y12907103I100000J0D01*
G01*
G37*
G36*
G01*
X12967615Y12907103D02*
X13167615Y12907103D01*
G75*
G02*
X13267615Y12807103I0J-100000D01*
G01*
X13267615Y11532103D01*
G75*
G02*
X13167615Y11432103I-100000J0D01*
G01*
X12967615Y11432103D01*
G75*
G02*
X12867615Y11532103I0J100000D01*
G01*
X12867615Y12807103D01*
G75*
G02*
X12967615Y12907103I100000J0D01*
G01*
G37*
G36*
G01*
X12317615Y12907103D02*
X12517615Y12907103D01*
G75*
G02*
X12617615Y12807103I0J-100000D01*
G01*
X12617615Y11532103D01*
G75*
G02*
X12517615Y11432103I-100000J0D01*
G01*
X12317615Y11432103D01*
G75*
G02*
X12217615Y11532103I0J100000D01*
G01*
X12217615Y12807103D01*
G75*
G02*
X12317615Y12907103I100000J0D01*
G01*
G37*
G36*
G01*
X11667615Y12907103D02*
X11867615Y12907103D01*
G75*
G02*
X11967615Y12807103I0J-100000D01*
G01*
X11967615Y11532103D01*
G75*
G02*
X11867615Y11432103I-100000J0D01*
G01*
X11667615Y11432103D01*
G75*
G02*
X11567615Y11532103I0J100000D01*
G01*
X11567615Y12807103D01*
G75*
G02*
X11667615Y12907103I100000J0D01*
G01*
G37*
G36*
G01*
X11017615Y12907103D02*
X11217615Y12907103D01*
G75*
G02*
X11317615Y12807103I0J-100000D01*
G01*
X11317615Y11532103D01*
G75*
G02*
X11217615Y11432103I-100000J0D01*
G01*
X11017615Y11432103D01*
G75*
G02*
X10917615Y11532103I0J100000D01*
G01*
X10917615Y12807103D01*
G75*
G02*
X11017615Y12907103I100000J0D01*
G01*
G37*
G36*
G01*
X11017615Y7182103D02*
X11217615Y7182103D01*
G75*
G02*
X11317615Y7082103I0J-100000D01*
G01*
X11317615Y5807103D01*
G75*
G02*
X11217615Y5707103I-100000J0D01*
G01*
X11017615Y5707103D01*
G75*
G02*
X10917615Y5807103I0J100000D01*
G01*
X10917615Y7082103D01*
G75*
G02*
X11017615Y7182103I100000J0D01*
G01*
G37*
G36*
G01*
X11667615Y7182103D02*
X11867615Y7182103D01*
G75*
G02*
X11967615Y7082103I0J-100000D01*
G01*
X11967615Y5807103D01*
G75*
G02*
X11867615Y5707103I-100000J0D01*
G01*
X11667615Y5707103D01*
G75*
G02*
X11567615Y5807103I0J100000D01*
G01*
X11567615Y7082103D01*
G75*
G02*
X11667615Y7182103I100000J0D01*
G01*
G37*
G36*
G01*
X12317615Y7182103D02*
X12517615Y7182103D01*
G75*
G02*
X12617615Y7082103I0J-100000D01*
G01*
X12617615Y5807103D01*
G75*
G02*
X12517615Y5707103I-100000J0D01*
G01*
X12317615Y5707103D01*
G75*
G02*
X12217615Y5807103I0J100000D01*
G01*
X12217615Y7082103D01*
G75*
G02*
X12317615Y7182103I100000J0D01*
G01*
G37*
G36*
G01*
X12967615Y7182103D02*
X13167615Y7182103D01*
G75*
G02*
X13267615Y7082103I0J-100000D01*
G01*
X13267615Y5807103D01*
G75*
G02*
X13167615Y5707103I-100000J0D01*
G01*
X12967615Y5707103D01*
G75*
G02*
X12867615Y5807103I0J100000D01*
G01*
X12867615Y7082103D01*
G75*
G02*
X12967615Y7182103I100000J0D01*
G01*
G37*
G36*
G01*
X13617615Y7182103D02*
X13817615Y7182103D01*
G75*
G02*
X13917615Y7082103I0J-100000D01*
G01*
X13917615Y5807103D01*
G75*
G02*
X13817615Y5707103I-100000J0D01*
G01*
X13617615Y5707103D01*
G75*
G02*
X13517615Y5807103I0J100000D01*
G01*
X13517615Y7082103D01*
G75*
G02*
X13617615Y7182103I100000J0D01*
G01*
G37*
G36*
G01*
X14267615Y7182103D02*
X14467615Y7182103D01*
G75*
G02*
X14567615Y7082103I0J-100000D01*
G01*
X14567615Y5807103D01*
G75*
G02*
X14467615Y5707103I-100000J0D01*
G01*
X14267615Y5707103D01*
G75*
G02*
X14167615Y5807103I0J100000D01*
G01*
X14167615Y7082103D01*
G75*
G02*
X14267615Y7182103I100000J0D01*
G01*
G37*
G36*
G01*
X14917615Y7182103D02*
X15117615Y7182103D01*
G75*
G02*
X15217615Y7082103I0J-100000D01*
G01*
X15217615Y5807103D01*
G75*
G02*
X15117615Y5707103I-100000J0D01*
G01*
X14917615Y5707103D01*
G75*
G02*
X14817615Y5807103I0J100000D01*
G01*
X14817615Y7082103D01*
G75*
G02*
X14917615Y7182103I100000J0D01*
G01*
G37*
G36*
G01*
X15567615Y7182103D02*
X15767615Y7182103D01*
G75*
G02*
X15867615Y7082103I0J-100000D01*
G01*
X15867615Y5807103D01*
G75*
G02*
X15767615Y5707103I-100000J0D01*
G01*
X15567615Y5707103D01*
G75*
G02*
X15467615Y5807103I0J100000D01*
G01*
X15467615Y7082103D01*
G75*
G02*
X15567615Y7182103I100000J0D01*
G01*
G37*
G36*
G01*
X16217615Y7182103D02*
X16417615Y7182103D01*
G75*
G02*
X16517615Y7082103I0J-100000D01*
G01*
X16517615Y5807103D01*
G75*
G02*
X16417615Y5707103I-100000J0D01*
G01*
X16217615Y5707103D01*
G75*
G02*
X16117615Y5807103I0J100000D01*
G01*
X16117615Y7082103D01*
G75*
G02*
X16217615Y7182103I100000J0D01*
G01*
G37*
G36*
G01*
X16867615Y7182103D02*
X17067615Y7182103D01*
G75*
G02*
X17167615Y7082103I0J-100000D01*
G01*
X17167615Y5807103D01*
G75*
G02*
X17067615Y5707103I-100000J0D01*
G01*
X16867615Y5707103D01*
G75*
G02*
X16767615Y5807103I0J100000D01*
G01*
X16767615Y7082103D01*
G75*
G02*
X16867615Y7182103I100000J0D01*
G01*
G37*
G36*
G01*
X1569000Y34868200D02*
X1569000Y35418200D01*
G75*
G02*
X1769000Y35618200I200000J0D01*
G01*
X2169000Y35618200D01*
G75*
G02*
X2369000Y35418200I0J-200000D01*
G01*
X2369000Y34868200D01*
G75*
G02*
X2169000Y34668200I-200000J0D01*
G01*
X1769000Y34668200D01*
G75*
G02*
X1569000Y34868200I0J200000D01*
G01*
G37*
G36*
G01*
X3219000Y34868200D02*
X3219000Y35418200D01*
G75*
G02*
X3419000Y35618200I200000J0D01*
G01*
X3819000Y35618200D01*
G75*
G02*
X4019000Y35418200I0J-200000D01*
G01*
X4019000Y34868200D01*
G75*
G02*
X3819000Y34668200I-200000J0D01*
G01*
X3419000Y34668200D01*
G75*
G02*
X3219000Y34868200I0J200000D01*
G01*
G37*
G36*
G01*
X11572204Y22088903D02*
X11572204Y21588903D01*
G75*
G02*
X11347204Y21363903I-225000J0D01*
G01*
X10897204Y21363903D01*
G75*
G02*
X10672204Y21588903I0J225000D01*
G01*
X10672204Y22088903D01*
G75*
G02*
X10897204Y22313903I225000J0D01*
G01*
X11347204Y22313903D01*
G75*
G02*
X11572204Y22088903I0J-225000D01*
G01*
G37*
G36*
G01*
X10022204Y22088903D02*
X10022204Y21588903D01*
G75*
G02*
X9797204Y21363903I-225000J0D01*
G01*
X9347204Y21363903D01*
G75*
G02*
X9122204Y21588903I0J225000D01*
G01*
X9122204Y22088903D01*
G75*
G02*
X9347204Y22313903I225000J0D01*
G01*
X9797204Y22313903D01*
G75*
G02*
X10022204Y22088903I0J-225000D01*
G01*
G37*
G36*
G01*
X23092204Y20649103D02*
X23092204Y21149103D01*
G75*
G02*
X23317204Y21374103I225000J0D01*
G01*
X23767204Y21374103D01*
G75*
G02*
X23992204Y21149103I0J-225000D01*
G01*
X23992204Y20649103D01*
G75*
G02*
X23767204Y20424103I-225000J0D01*
G01*
X23317204Y20424103D01*
G75*
G02*
X23092204Y20649103I0J225000D01*
G01*
G37*
G36*
G01*
X24642204Y20649103D02*
X24642204Y21149103D01*
G75*
G02*
X24867204Y21374103I225000J0D01*
G01*
X25317204Y21374103D01*
G75*
G02*
X25542204Y21149103I0J-225000D01*
G01*
X25542204Y20649103D01*
G75*
G02*
X25317204Y20424103I-225000J0D01*
G01*
X24867204Y20424103D01*
G75*
G02*
X24642204Y20649103I0J225000D01*
G01*
G37*
G36*
G01*
X61716200Y3738200D02*
X61716200Y4288200D01*
G75*
G02*
X61916200Y4488200I200000J0D01*
G01*
X62316200Y4488200D01*
G75*
G02*
X62516200Y4288200I0J-200000D01*
G01*
X62516200Y3738200D01*
G75*
G02*
X62316200Y3538200I-200000J0D01*
G01*
X61916200Y3538200D01*
G75*
G02*
X61716200Y3738200I0J200000D01*
G01*
G37*
G36*
G01*
X63366200Y3738200D02*
X63366200Y4288200D01*
G75*
G02*
X63566200Y4488200I200000J0D01*
G01*
X63966200Y4488200D01*
G75*
G02*
X64166200Y4288200I0J-200000D01*
G01*
X64166200Y3738200D01*
G75*
G02*
X63966200Y3538200I-200000J0D01*
G01*
X63566200Y3538200D01*
G75*
G02*
X63366200Y3738200I0J200000D01*
G01*
G37*
G36*
G01*
X46899600Y19372303D02*
X46899600Y19522303D01*
G75*
G02*
X46974600Y19597303I75000J0D01*
G01*
X48299600Y19597303D01*
G75*
G02*
X48374600Y19522303I0J-75000D01*
G01*
X48374600Y19372303D01*
G75*
G02*
X48299600Y19297303I-75000J0D01*
G01*
X46974600Y19297303D01*
G75*
G02*
X46899600Y19372303I0J75000D01*
G01*
G37*
G36*
G01*
X46899600Y18872303D02*
X46899600Y19022303D01*
G75*
G02*
X46974600Y19097303I75000J0D01*
G01*
X48299600Y19097303D01*
G75*
G02*
X48374600Y19022303I0J-75000D01*
G01*
X48374600Y18872303D01*
G75*
G02*
X48299600Y18797303I-75000J0D01*
G01*
X46974600Y18797303D01*
G75*
G02*
X46899600Y18872303I0J75000D01*
G01*
G37*
G36*
G01*
X46899600Y18372303D02*
X46899600Y18522303D01*
G75*
G02*
X46974600Y18597303I75000J0D01*
G01*
X48299600Y18597303D01*
G75*
G02*
X48374600Y18522303I0J-75000D01*
G01*
X48374600Y18372303D01*
G75*
G02*
X48299600Y18297303I-75000J0D01*
G01*
X46974600Y18297303D01*
G75*
G02*
X46899600Y18372303I0J75000D01*
G01*
G37*
G36*
G01*
X46899600Y17872303D02*
X46899600Y18022303D01*
G75*
G02*
X46974600Y18097303I75000J0D01*
G01*
X48299600Y18097303D01*
G75*
G02*
X48374600Y18022303I0J-75000D01*
G01*
X48374600Y17872303D01*
G75*
G02*
X48299600Y17797303I-75000J0D01*
G01*
X46974600Y17797303D01*
G75*
G02*
X46899600Y17872303I0J75000D01*
G01*
G37*
G36*
G01*
X46899600Y17372303D02*
X46899600Y17522303D01*
G75*
G02*
X46974600Y17597303I75000J0D01*
G01*
X48299600Y17597303D01*
G75*
G02*
X48374600Y17522303I0J-75000D01*
G01*
X48374600Y17372303D01*
G75*
G02*
X48299600Y17297303I-75000J0D01*
G01*
X46974600Y17297303D01*
G75*
G02*
X46899600Y17372303I0J75000D01*
G01*
G37*
G36*
G01*
X46899600Y16872303D02*
X46899600Y17022303D01*
G75*
G02*
X46974600Y17097303I75000J0D01*
G01*
X48299600Y17097303D01*
G75*
G02*
X48374600Y17022303I0J-75000D01*
G01*
X48374600Y16872303D01*
G75*
G02*
X48299600Y16797303I-75000J0D01*
G01*
X46974600Y16797303D01*
G75*
G02*
X46899600Y16872303I0J75000D01*
G01*
G37*
G36*
G01*
X46899600Y16372303D02*
X46899600Y16522303D01*
G75*
G02*
X46974600Y16597303I75000J0D01*
G01*
X48299600Y16597303D01*
G75*
G02*
X48374600Y16522303I0J-75000D01*
G01*
X48374600Y16372303D01*
G75*
G02*
X48299600Y16297303I-75000J0D01*
G01*
X46974600Y16297303D01*
G75*
G02*
X46899600Y16372303I0J75000D01*
G01*
G37*
G36*
G01*
X46899600Y15872303D02*
X46899600Y16022303D01*
G75*
G02*
X46974600Y16097303I75000J0D01*
G01*
X48299600Y16097303D01*
G75*
G02*
X48374600Y16022303I0J-75000D01*
G01*
X48374600Y15872303D01*
G75*
G02*
X48299600Y15797303I-75000J0D01*
G01*
X46974600Y15797303D01*
G75*
G02*
X46899600Y15872303I0J75000D01*
G01*
G37*
G36*
G01*
X46899600Y15372303D02*
X46899600Y15522303D01*
G75*
G02*
X46974600Y15597303I75000J0D01*
G01*
X48299600Y15597303D01*
G75*
G02*
X48374600Y15522303I0J-75000D01*
G01*
X48374600Y15372303D01*
G75*
G02*
X48299600Y15297303I-75000J0D01*
G01*
X46974600Y15297303D01*
G75*
G02*
X46899600Y15372303I0J75000D01*
G01*
G37*
G36*
G01*
X46899600Y14872303D02*
X46899600Y15022303D01*
G75*
G02*
X46974600Y15097303I75000J0D01*
G01*
X48299600Y15097303D01*
G75*
G02*
X48374600Y15022303I0J-75000D01*
G01*
X48374600Y14872303D01*
G75*
G02*
X48299600Y14797303I-75000J0D01*
G01*
X46974600Y14797303D01*
G75*
G02*
X46899600Y14872303I0J75000D01*
G01*
G37*
G36*
G01*
X46899600Y14372303D02*
X46899600Y14522303D01*
G75*
G02*
X46974600Y14597303I75000J0D01*
G01*
X48299600Y14597303D01*
G75*
G02*
X48374600Y14522303I0J-75000D01*
G01*
X48374600Y14372303D01*
G75*
G02*
X48299600Y14297303I-75000J0D01*
G01*
X46974600Y14297303D01*
G75*
G02*
X46899600Y14372303I0J75000D01*
G01*
G37*
G36*
G01*
X46899600Y13872303D02*
X46899600Y14022303D01*
G75*
G02*
X46974600Y14097303I75000J0D01*
G01*
X48299600Y14097303D01*
G75*
G02*
X48374600Y14022303I0J-75000D01*
G01*
X48374600Y13872303D01*
G75*
G02*
X48299600Y13797303I-75000J0D01*
G01*
X46974600Y13797303D01*
G75*
G02*
X46899600Y13872303I0J75000D01*
G01*
G37*
G36*
G01*
X46899600Y13372303D02*
X46899600Y13522303D01*
G75*
G02*
X46974600Y13597303I75000J0D01*
G01*
X48299600Y13597303D01*
G75*
G02*
X48374600Y13522303I0J-75000D01*
G01*
X48374600Y13372303D01*
G75*
G02*
X48299600Y13297303I-75000J0D01*
G01*
X46974600Y13297303D01*
G75*
G02*
X46899600Y13372303I0J75000D01*
G01*
G37*
G36*
G01*
X46899600Y12872303D02*
X46899600Y13022303D01*
G75*
G02*
X46974600Y13097303I75000J0D01*
G01*
X48299600Y13097303D01*
G75*
G02*
X48374600Y13022303I0J-75000D01*
G01*
X48374600Y12872303D01*
G75*
G02*
X48299600Y12797303I-75000J0D01*
G01*
X46974600Y12797303D01*
G75*
G02*
X46899600Y12872303I0J75000D01*
G01*
G37*
G36*
G01*
X46899600Y12372303D02*
X46899600Y12522303D01*
G75*
G02*
X46974600Y12597303I75000J0D01*
G01*
X48299600Y12597303D01*
G75*
G02*
X48374600Y12522303I0J-75000D01*
G01*
X48374600Y12372303D01*
G75*
G02*
X48299600Y12297303I-75000J0D01*
G01*
X46974600Y12297303D01*
G75*
G02*
X46899600Y12372303I0J75000D01*
G01*
G37*
G36*
G01*
X46899600Y11872303D02*
X46899600Y12022303D01*
G75*
G02*
X46974600Y12097303I75000J0D01*
G01*
X48299600Y12097303D01*
G75*
G02*
X48374600Y12022303I0J-75000D01*
G01*
X48374600Y11872303D01*
G75*
G02*
X48299600Y11797303I-75000J0D01*
G01*
X46974600Y11797303D01*
G75*
G02*
X46899600Y11872303I0J75000D01*
G01*
G37*
G36*
G01*
X46899600Y11372303D02*
X46899600Y11522303D01*
G75*
G02*
X46974600Y11597303I75000J0D01*
G01*
X48299600Y11597303D01*
G75*
G02*
X48374600Y11522303I0J-75000D01*
G01*
X48374600Y11372303D01*
G75*
G02*
X48299600Y11297303I-75000J0D01*
G01*
X46974600Y11297303D01*
G75*
G02*
X46899600Y11372303I0J75000D01*
G01*
G37*
G36*
G01*
X46899600Y10872303D02*
X46899600Y11022303D01*
G75*
G02*
X46974600Y11097303I75000J0D01*
G01*
X48299600Y11097303D01*
G75*
G02*
X48374600Y11022303I0J-75000D01*
G01*
X48374600Y10872303D01*
G75*
G02*
X48299600Y10797303I-75000J0D01*
G01*
X46974600Y10797303D01*
G75*
G02*
X46899600Y10872303I0J75000D01*
G01*
G37*
G36*
G01*
X46899600Y10372303D02*
X46899600Y10522303D01*
G75*
G02*
X46974600Y10597303I75000J0D01*
G01*
X48299600Y10597303D01*
G75*
G02*
X48374600Y10522303I0J-75000D01*
G01*
X48374600Y10372303D01*
G75*
G02*
X48299600Y10297303I-75000J0D01*
G01*
X46974600Y10297303D01*
G75*
G02*
X46899600Y10372303I0J75000D01*
G01*
G37*
G36*
G01*
X46899600Y9872303D02*
X46899600Y10022303D01*
G75*
G02*
X46974600Y10097303I75000J0D01*
G01*
X48299600Y10097303D01*
G75*
G02*
X48374600Y10022303I0J-75000D01*
G01*
X48374600Y9872303D01*
G75*
G02*
X48299600Y9797303I-75000J0D01*
G01*
X46974600Y9797303D01*
G75*
G02*
X46899600Y9872303I0J75000D01*
G01*
G37*
G36*
G01*
X46899600Y9372303D02*
X46899600Y9522303D01*
G75*
G02*
X46974600Y9597303I75000J0D01*
G01*
X48299600Y9597303D01*
G75*
G02*
X48374600Y9522303I0J-75000D01*
G01*
X48374600Y9372303D01*
G75*
G02*
X48299600Y9297303I-75000J0D01*
G01*
X46974600Y9297303D01*
G75*
G02*
X46899600Y9372303I0J75000D01*
G01*
G37*
G36*
G01*
X46899600Y8872303D02*
X46899600Y9022303D01*
G75*
G02*
X46974600Y9097303I75000J0D01*
G01*
X48299600Y9097303D01*
G75*
G02*
X48374600Y9022303I0J-75000D01*
G01*
X48374600Y8872303D01*
G75*
G02*
X48299600Y8797303I-75000J0D01*
G01*
X46974600Y8797303D01*
G75*
G02*
X46899600Y8872303I0J75000D01*
G01*
G37*
G36*
G01*
X46899600Y8372303D02*
X46899600Y8522303D01*
G75*
G02*
X46974600Y8597303I75000J0D01*
G01*
X48299600Y8597303D01*
G75*
G02*
X48374600Y8522303I0J-75000D01*
G01*
X48374600Y8372303D01*
G75*
G02*
X48299600Y8297303I-75000J0D01*
G01*
X46974600Y8297303D01*
G75*
G02*
X46899600Y8372303I0J75000D01*
G01*
G37*
G36*
G01*
X46899600Y7872303D02*
X46899600Y8022303D01*
G75*
G02*
X46974600Y8097303I75000J0D01*
G01*
X48299600Y8097303D01*
G75*
G02*
X48374600Y8022303I0J-75000D01*
G01*
X48374600Y7872303D01*
G75*
G02*
X48299600Y7797303I-75000J0D01*
G01*
X46974600Y7797303D01*
G75*
G02*
X46899600Y7872303I0J75000D01*
G01*
G37*
G36*
G01*
X46899600Y7372303D02*
X46899600Y7522303D01*
G75*
G02*
X46974600Y7597303I75000J0D01*
G01*
X48299600Y7597303D01*
G75*
G02*
X48374600Y7522303I0J-75000D01*
G01*
X48374600Y7372303D01*
G75*
G02*
X48299600Y7297303I-75000J0D01*
G01*
X46974600Y7297303D01*
G75*
G02*
X46899600Y7372303I0J75000D01*
G01*
G37*
G36*
G01*
X49149600Y5122303D02*
X49149600Y6447303D01*
G75*
G02*
X49224600Y6522303I75000J0D01*
G01*
X49374600Y6522303D01*
G75*
G02*
X49449600Y6447303I0J-75000D01*
G01*
X49449600Y5122303D01*
G75*
G02*
X49374600Y5047303I-75000J0D01*
G01*
X49224600Y5047303D01*
G75*
G02*
X49149600Y5122303I0J75000D01*
G01*
G37*
G36*
G01*
X49649600Y5122303D02*
X49649600Y6447303D01*
G75*
G02*
X49724600Y6522303I75000J0D01*
G01*
X49874600Y6522303D01*
G75*
G02*
X49949600Y6447303I0J-75000D01*
G01*
X49949600Y5122303D01*
G75*
G02*
X49874600Y5047303I-75000J0D01*
G01*
X49724600Y5047303D01*
G75*
G02*
X49649600Y5122303I0J75000D01*
G01*
G37*
G36*
G01*
X50149600Y5122303D02*
X50149600Y6447303D01*
G75*
G02*
X50224600Y6522303I75000J0D01*
G01*
X50374600Y6522303D01*
G75*
G02*
X50449600Y6447303I0J-75000D01*
G01*
X50449600Y5122303D01*
G75*
G02*
X50374600Y5047303I-75000J0D01*
G01*
X50224600Y5047303D01*
G75*
G02*
X50149600Y5122303I0J75000D01*
G01*
G37*
G36*
G01*
X50649600Y5122303D02*
X50649600Y6447303D01*
G75*
G02*
X50724600Y6522303I75000J0D01*
G01*
X50874600Y6522303D01*
G75*
G02*
X50949600Y6447303I0J-75000D01*
G01*
X50949600Y5122303D01*
G75*
G02*
X50874600Y5047303I-75000J0D01*
G01*
X50724600Y5047303D01*
G75*
G02*
X50649600Y5122303I0J75000D01*
G01*
G37*
G36*
G01*
X51149600Y5122303D02*
X51149600Y6447303D01*
G75*
G02*
X51224600Y6522303I75000J0D01*
G01*
X51374600Y6522303D01*
G75*
G02*
X51449600Y6447303I0J-75000D01*
G01*
X51449600Y5122303D01*
G75*
G02*
X51374600Y5047303I-75000J0D01*
G01*
X51224600Y5047303D01*
G75*
G02*
X51149600Y5122303I0J75000D01*
G01*
G37*
G36*
G01*
X51649600Y5122303D02*
X51649600Y6447303D01*
G75*
G02*
X51724600Y6522303I75000J0D01*
G01*
X51874600Y6522303D01*
G75*
G02*
X51949600Y6447303I0J-75000D01*
G01*
X51949600Y5122303D01*
G75*
G02*
X51874600Y5047303I-75000J0D01*
G01*
X51724600Y5047303D01*
G75*
G02*
X51649600Y5122303I0J75000D01*
G01*
G37*
G36*
G01*
X52149600Y5122303D02*
X52149600Y6447303D01*
G75*
G02*
X52224600Y6522303I75000J0D01*
G01*
X52374600Y6522303D01*
G75*
G02*
X52449600Y6447303I0J-75000D01*
G01*
X52449600Y5122303D01*
G75*
G02*
X52374600Y5047303I-75000J0D01*
G01*
X52224600Y5047303D01*
G75*
G02*
X52149600Y5122303I0J75000D01*
G01*
G37*
G36*
G01*
X52649600Y5122303D02*
X52649600Y6447303D01*
G75*
G02*
X52724600Y6522303I75000J0D01*
G01*
X52874600Y6522303D01*
G75*
G02*
X52949600Y6447303I0J-75000D01*
G01*
X52949600Y5122303D01*
G75*
G02*
X52874600Y5047303I-75000J0D01*
G01*
X52724600Y5047303D01*
G75*
G02*
X52649600Y5122303I0J75000D01*
G01*
G37*
G36*
G01*
X53149600Y5122303D02*
X53149600Y6447303D01*
G75*
G02*
X53224600Y6522303I75000J0D01*
G01*
X53374600Y6522303D01*
G75*
G02*
X53449600Y6447303I0J-75000D01*
G01*
X53449600Y5122303D01*
G75*
G02*
X53374600Y5047303I-75000J0D01*
G01*
X53224600Y5047303D01*
G75*
G02*
X53149600Y5122303I0J75000D01*
G01*
G37*
G36*
G01*
X53649600Y5122303D02*
X53649600Y6447303D01*
G75*
G02*
X53724600Y6522303I75000J0D01*
G01*
X53874600Y6522303D01*
G75*
G02*
X53949600Y6447303I0J-75000D01*
G01*
X53949600Y5122303D01*
G75*
G02*
X53874600Y5047303I-75000J0D01*
G01*
X53724600Y5047303D01*
G75*
G02*
X53649600Y5122303I0J75000D01*
G01*
G37*
G36*
G01*
X54149600Y5122303D02*
X54149600Y6447303D01*
G75*
G02*
X54224600Y6522303I75000J0D01*
G01*
X54374600Y6522303D01*
G75*
G02*
X54449600Y6447303I0J-75000D01*
G01*
X54449600Y5122303D01*
G75*
G02*
X54374600Y5047303I-75000J0D01*
G01*
X54224600Y5047303D01*
G75*
G02*
X54149600Y5122303I0J75000D01*
G01*
G37*
G36*
G01*
X54649600Y5122303D02*
X54649600Y6447303D01*
G75*
G02*
X54724600Y6522303I75000J0D01*
G01*
X54874600Y6522303D01*
G75*
G02*
X54949600Y6447303I0J-75000D01*
G01*
X54949600Y5122303D01*
G75*
G02*
X54874600Y5047303I-75000J0D01*
G01*
X54724600Y5047303D01*
G75*
G02*
X54649600Y5122303I0J75000D01*
G01*
G37*
G36*
G01*
X55149600Y5122303D02*
X55149600Y6447303D01*
G75*
G02*
X55224600Y6522303I75000J0D01*
G01*
X55374600Y6522303D01*
G75*
G02*
X55449600Y6447303I0J-75000D01*
G01*
X55449600Y5122303D01*
G75*
G02*
X55374600Y5047303I-75000J0D01*
G01*
X55224600Y5047303D01*
G75*
G02*
X55149600Y5122303I0J75000D01*
G01*
G37*
G36*
G01*
X55649600Y5122303D02*
X55649600Y6447303D01*
G75*
G02*
X55724600Y6522303I75000J0D01*
G01*
X55874600Y6522303D01*
G75*
G02*
X55949600Y6447303I0J-75000D01*
G01*
X55949600Y5122303D01*
G75*
G02*
X55874600Y5047303I-75000J0D01*
G01*
X55724600Y5047303D01*
G75*
G02*
X55649600Y5122303I0J75000D01*
G01*
G37*
G36*
G01*
X56149600Y5122303D02*
X56149600Y6447303D01*
G75*
G02*
X56224600Y6522303I75000J0D01*
G01*
X56374600Y6522303D01*
G75*
G02*
X56449600Y6447303I0J-75000D01*
G01*
X56449600Y5122303D01*
G75*
G02*
X56374600Y5047303I-75000J0D01*
G01*
X56224600Y5047303D01*
G75*
G02*
X56149600Y5122303I0J75000D01*
G01*
G37*
G36*
G01*
X56649600Y5122303D02*
X56649600Y6447303D01*
G75*
G02*
X56724600Y6522303I75000J0D01*
G01*
X56874600Y6522303D01*
G75*
G02*
X56949600Y6447303I0J-75000D01*
G01*
X56949600Y5122303D01*
G75*
G02*
X56874600Y5047303I-75000J0D01*
G01*
X56724600Y5047303D01*
G75*
G02*
X56649600Y5122303I0J75000D01*
G01*
G37*
G36*
G01*
X57149600Y5122303D02*
X57149600Y6447303D01*
G75*
G02*
X57224600Y6522303I75000J0D01*
G01*
X57374600Y6522303D01*
G75*
G02*
X57449600Y6447303I0J-75000D01*
G01*
X57449600Y5122303D01*
G75*
G02*
X57374600Y5047303I-75000J0D01*
G01*
X57224600Y5047303D01*
G75*
G02*
X57149600Y5122303I0J75000D01*
G01*
G37*
G36*
G01*
X57649600Y5122303D02*
X57649600Y6447303D01*
G75*
G02*
X57724600Y6522303I75000J0D01*
G01*
X57874600Y6522303D01*
G75*
G02*
X57949600Y6447303I0J-75000D01*
G01*
X57949600Y5122303D01*
G75*
G02*
X57874600Y5047303I-75000J0D01*
G01*
X57724600Y5047303D01*
G75*
G02*
X57649600Y5122303I0J75000D01*
G01*
G37*
G36*
G01*
X58149600Y5122303D02*
X58149600Y6447303D01*
G75*
G02*
X58224600Y6522303I75000J0D01*
G01*
X58374600Y6522303D01*
G75*
G02*
X58449600Y6447303I0J-75000D01*
G01*
X58449600Y5122303D01*
G75*
G02*
X58374600Y5047303I-75000J0D01*
G01*
X58224600Y5047303D01*
G75*
G02*
X58149600Y5122303I0J75000D01*
G01*
G37*
G36*
G01*
X58649600Y5122303D02*
X58649600Y6447303D01*
G75*
G02*
X58724600Y6522303I75000J0D01*
G01*
X58874600Y6522303D01*
G75*
G02*
X58949600Y6447303I0J-75000D01*
G01*
X58949600Y5122303D01*
G75*
G02*
X58874600Y5047303I-75000J0D01*
G01*
X58724600Y5047303D01*
G75*
G02*
X58649600Y5122303I0J75000D01*
G01*
G37*
G36*
G01*
X59149600Y5122303D02*
X59149600Y6447303D01*
G75*
G02*
X59224600Y6522303I75000J0D01*
G01*
X59374600Y6522303D01*
G75*
G02*
X59449600Y6447303I0J-75000D01*
G01*
X59449600Y5122303D01*
G75*
G02*
X59374600Y5047303I-75000J0D01*
G01*
X59224600Y5047303D01*
G75*
G02*
X59149600Y5122303I0J75000D01*
G01*
G37*
G36*
G01*
X59649600Y5122303D02*
X59649600Y6447303D01*
G75*
G02*
X59724600Y6522303I75000J0D01*
G01*
X59874600Y6522303D01*
G75*
G02*
X59949600Y6447303I0J-75000D01*
G01*
X59949600Y5122303D01*
G75*
G02*
X59874600Y5047303I-75000J0D01*
G01*
X59724600Y5047303D01*
G75*
G02*
X59649600Y5122303I0J75000D01*
G01*
G37*
G36*
G01*
X60149600Y5122303D02*
X60149600Y6447303D01*
G75*
G02*
X60224600Y6522303I75000J0D01*
G01*
X60374600Y6522303D01*
G75*
G02*
X60449600Y6447303I0J-75000D01*
G01*
X60449600Y5122303D01*
G75*
G02*
X60374600Y5047303I-75000J0D01*
G01*
X60224600Y5047303D01*
G75*
G02*
X60149600Y5122303I0J75000D01*
G01*
G37*
G36*
G01*
X60649600Y5122303D02*
X60649600Y6447303D01*
G75*
G02*
X60724600Y6522303I75000J0D01*
G01*
X60874600Y6522303D01*
G75*
G02*
X60949600Y6447303I0J-75000D01*
G01*
X60949600Y5122303D01*
G75*
G02*
X60874600Y5047303I-75000J0D01*
G01*
X60724600Y5047303D01*
G75*
G02*
X60649600Y5122303I0J75000D01*
G01*
G37*
G36*
G01*
X61149600Y5122303D02*
X61149600Y6447303D01*
G75*
G02*
X61224600Y6522303I75000J0D01*
G01*
X61374600Y6522303D01*
G75*
G02*
X61449600Y6447303I0J-75000D01*
G01*
X61449600Y5122303D01*
G75*
G02*
X61374600Y5047303I-75000J0D01*
G01*
X61224600Y5047303D01*
G75*
G02*
X61149600Y5122303I0J75000D01*
G01*
G37*
G36*
G01*
X62224600Y7372303D02*
X62224600Y7522303D01*
G75*
G02*
X62299600Y7597303I75000J0D01*
G01*
X63624600Y7597303D01*
G75*
G02*
X63699600Y7522303I0J-75000D01*
G01*
X63699600Y7372303D01*
G75*
G02*
X63624600Y7297303I-75000J0D01*
G01*
X62299600Y7297303D01*
G75*
G02*
X62224600Y7372303I0J75000D01*
G01*
G37*
G36*
G01*
X62224600Y7872303D02*
X62224600Y8022303D01*
G75*
G02*
X62299600Y8097303I75000J0D01*
G01*
X63624600Y8097303D01*
G75*
G02*
X63699600Y8022303I0J-75000D01*
G01*
X63699600Y7872303D01*
G75*
G02*
X63624600Y7797303I-75000J0D01*
G01*
X62299600Y7797303D01*
G75*
G02*
X62224600Y7872303I0J75000D01*
G01*
G37*
G36*
G01*
X62224600Y8372303D02*
X62224600Y8522303D01*
G75*
G02*
X62299600Y8597303I75000J0D01*
G01*
X63624600Y8597303D01*
G75*
G02*
X63699600Y8522303I0J-75000D01*
G01*
X63699600Y8372303D01*
G75*
G02*
X63624600Y8297303I-75000J0D01*
G01*
X62299600Y8297303D01*
G75*
G02*
X62224600Y8372303I0J75000D01*
G01*
G37*
G36*
G01*
X62224600Y8872303D02*
X62224600Y9022303D01*
G75*
G02*
X62299600Y9097303I75000J0D01*
G01*
X63624600Y9097303D01*
G75*
G02*
X63699600Y9022303I0J-75000D01*
G01*
X63699600Y8872303D01*
G75*
G02*
X63624600Y8797303I-75000J0D01*
G01*
X62299600Y8797303D01*
G75*
G02*
X62224600Y8872303I0J75000D01*
G01*
G37*
G36*
G01*
X62224600Y9372303D02*
X62224600Y9522303D01*
G75*
G02*
X62299600Y9597303I75000J0D01*
G01*
X63624600Y9597303D01*
G75*
G02*
X63699600Y9522303I0J-75000D01*
G01*
X63699600Y9372303D01*
G75*
G02*
X63624600Y9297303I-75000J0D01*
G01*
X62299600Y9297303D01*
G75*
G02*
X62224600Y9372303I0J75000D01*
G01*
G37*
G36*
G01*
X62224600Y9872303D02*
X62224600Y10022303D01*
G75*
G02*
X62299600Y10097303I75000J0D01*
G01*
X63624600Y10097303D01*
G75*
G02*
X63699600Y10022303I0J-75000D01*
G01*
X63699600Y9872303D01*
G75*
G02*
X63624600Y9797303I-75000J0D01*
G01*
X62299600Y9797303D01*
G75*
G02*
X62224600Y9872303I0J75000D01*
G01*
G37*
G36*
G01*
X62224600Y10372303D02*
X62224600Y10522303D01*
G75*
G02*
X62299600Y10597303I75000J0D01*
G01*
X63624600Y10597303D01*
G75*
G02*
X63699600Y10522303I0J-75000D01*
G01*
X63699600Y10372303D01*
G75*
G02*
X63624600Y10297303I-75000J0D01*
G01*
X62299600Y10297303D01*
G75*
G02*
X62224600Y10372303I0J75000D01*
G01*
G37*
G36*
G01*
X62224600Y10872303D02*
X62224600Y11022303D01*
G75*
G02*
X62299600Y11097303I75000J0D01*
G01*
X63624600Y11097303D01*
G75*
G02*
X63699600Y11022303I0J-75000D01*
G01*
X63699600Y10872303D01*
G75*
G02*
X63624600Y10797303I-75000J0D01*
G01*
X62299600Y10797303D01*
G75*
G02*
X62224600Y10872303I0J75000D01*
G01*
G37*
G36*
G01*
X62224600Y11372303D02*
X62224600Y11522303D01*
G75*
G02*
X62299600Y11597303I75000J0D01*
G01*
X63624600Y11597303D01*
G75*
G02*
X63699600Y11522303I0J-75000D01*
G01*
X63699600Y11372303D01*
G75*
G02*
X63624600Y11297303I-75000J0D01*
G01*
X62299600Y11297303D01*
G75*
G02*
X62224600Y11372303I0J75000D01*
G01*
G37*
G36*
G01*
X62224600Y11872303D02*
X62224600Y12022303D01*
G75*
G02*
X62299600Y12097303I75000J0D01*
G01*
X63624600Y12097303D01*
G75*
G02*
X63699600Y12022303I0J-75000D01*
G01*
X63699600Y11872303D01*
G75*
G02*
X63624600Y11797303I-75000J0D01*
G01*
X62299600Y11797303D01*
G75*
G02*
X62224600Y11872303I0J75000D01*
G01*
G37*
G36*
G01*
X62224600Y12372303D02*
X62224600Y12522303D01*
G75*
G02*
X62299600Y12597303I75000J0D01*
G01*
X63624600Y12597303D01*
G75*
G02*
X63699600Y12522303I0J-75000D01*
G01*
X63699600Y12372303D01*
G75*
G02*
X63624600Y12297303I-75000J0D01*
G01*
X62299600Y12297303D01*
G75*
G02*
X62224600Y12372303I0J75000D01*
G01*
G37*
G36*
G01*
X62224600Y12872303D02*
X62224600Y13022303D01*
G75*
G02*
X62299600Y13097303I75000J0D01*
G01*
X63624600Y13097303D01*
G75*
G02*
X63699600Y13022303I0J-75000D01*
G01*
X63699600Y12872303D01*
G75*
G02*
X63624600Y12797303I-75000J0D01*
G01*
X62299600Y12797303D01*
G75*
G02*
X62224600Y12872303I0J75000D01*
G01*
G37*
G36*
G01*
X62224600Y13372303D02*
X62224600Y13522303D01*
G75*
G02*
X62299600Y13597303I75000J0D01*
G01*
X63624600Y13597303D01*
G75*
G02*
X63699600Y13522303I0J-75000D01*
G01*
X63699600Y13372303D01*
G75*
G02*
X63624600Y13297303I-75000J0D01*
G01*
X62299600Y13297303D01*
G75*
G02*
X62224600Y13372303I0J75000D01*
G01*
G37*
G36*
G01*
X62224600Y13872303D02*
X62224600Y14022303D01*
G75*
G02*
X62299600Y14097303I75000J0D01*
G01*
X63624600Y14097303D01*
G75*
G02*
X63699600Y14022303I0J-75000D01*
G01*
X63699600Y13872303D01*
G75*
G02*
X63624600Y13797303I-75000J0D01*
G01*
X62299600Y13797303D01*
G75*
G02*
X62224600Y13872303I0J75000D01*
G01*
G37*
G36*
G01*
X62224600Y14372303D02*
X62224600Y14522303D01*
G75*
G02*
X62299600Y14597303I75000J0D01*
G01*
X63624600Y14597303D01*
G75*
G02*
X63699600Y14522303I0J-75000D01*
G01*
X63699600Y14372303D01*
G75*
G02*
X63624600Y14297303I-75000J0D01*
G01*
X62299600Y14297303D01*
G75*
G02*
X62224600Y14372303I0J75000D01*
G01*
G37*
G36*
G01*
X62224600Y14872303D02*
X62224600Y15022303D01*
G75*
G02*
X62299600Y15097303I75000J0D01*
G01*
X63624600Y15097303D01*
G75*
G02*
X63699600Y15022303I0J-75000D01*
G01*
X63699600Y14872303D01*
G75*
G02*
X63624600Y14797303I-75000J0D01*
G01*
X62299600Y14797303D01*
G75*
G02*
X62224600Y14872303I0J75000D01*
G01*
G37*
G36*
G01*
X62224600Y15372303D02*
X62224600Y15522303D01*
G75*
G02*
X62299600Y15597303I75000J0D01*
G01*
X63624600Y15597303D01*
G75*
G02*
X63699600Y15522303I0J-75000D01*
G01*
X63699600Y15372303D01*
G75*
G02*
X63624600Y15297303I-75000J0D01*
G01*
X62299600Y15297303D01*
G75*
G02*
X62224600Y15372303I0J75000D01*
G01*
G37*
G36*
G01*
X62224600Y15872303D02*
X62224600Y16022303D01*
G75*
G02*
X62299600Y16097303I75000J0D01*
G01*
X63624600Y16097303D01*
G75*
G02*
X63699600Y16022303I0J-75000D01*
G01*
X63699600Y15872303D01*
G75*
G02*
X63624600Y15797303I-75000J0D01*
G01*
X62299600Y15797303D01*
G75*
G02*
X62224600Y15872303I0J75000D01*
G01*
G37*
G36*
G01*
X62224600Y16372303D02*
X62224600Y16522303D01*
G75*
G02*
X62299600Y16597303I75000J0D01*
G01*
X63624600Y16597303D01*
G75*
G02*
X63699600Y16522303I0J-75000D01*
G01*
X63699600Y16372303D01*
G75*
G02*
X63624600Y16297303I-75000J0D01*
G01*
X62299600Y16297303D01*
G75*
G02*
X62224600Y16372303I0J75000D01*
G01*
G37*
G36*
G01*
X62224600Y16872303D02*
X62224600Y17022303D01*
G75*
G02*
X62299600Y17097303I75000J0D01*
G01*
X63624600Y17097303D01*
G75*
G02*
X63699600Y17022303I0J-75000D01*
G01*
X63699600Y16872303D01*
G75*
G02*
X63624600Y16797303I-75000J0D01*
G01*
X62299600Y16797303D01*
G75*
G02*
X62224600Y16872303I0J75000D01*
G01*
G37*
G36*
G01*
X62224600Y17372303D02*
X62224600Y17522303D01*
G75*
G02*
X62299600Y17597303I75000J0D01*
G01*
X63624600Y17597303D01*
G75*
G02*
X63699600Y17522303I0J-75000D01*
G01*
X63699600Y17372303D01*
G75*
G02*
X63624600Y17297303I-75000J0D01*
G01*
X62299600Y17297303D01*
G75*
G02*
X62224600Y17372303I0J75000D01*
G01*
G37*
G36*
G01*
X62224600Y17872303D02*
X62224600Y18022303D01*
G75*
G02*
X62299600Y18097303I75000J0D01*
G01*
X63624600Y18097303D01*
G75*
G02*
X63699600Y18022303I0J-75000D01*
G01*
X63699600Y17872303D01*
G75*
G02*
X63624600Y17797303I-75000J0D01*
G01*
X62299600Y17797303D01*
G75*
G02*
X62224600Y17872303I0J75000D01*
G01*
G37*
G36*
G01*
X62224600Y18372303D02*
X62224600Y18522303D01*
G75*
G02*
X62299600Y18597303I75000J0D01*
G01*
X63624600Y18597303D01*
G75*
G02*
X63699600Y18522303I0J-75000D01*
G01*
X63699600Y18372303D01*
G75*
G02*
X63624600Y18297303I-75000J0D01*
G01*
X62299600Y18297303D01*
G75*
G02*
X62224600Y18372303I0J75000D01*
G01*
G37*
G36*
G01*
X62224600Y18872303D02*
X62224600Y19022303D01*
G75*
G02*
X62299600Y19097303I75000J0D01*
G01*
X63624600Y19097303D01*
G75*
G02*
X63699600Y19022303I0J-75000D01*
G01*
X63699600Y18872303D01*
G75*
G02*
X63624600Y18797303I-75000J0D01*
G01*
X62299600Y18797303D01*
G75*
G02*
X62224600Y18872303I0J75000D01*
G01*
G37*
G36*
G01*
X62224600Y19372303D02*
X62224600Y19522303D01*
G75*
G02*
X62299600Y19597303I75000J0D01*
G01*
X63624600Y19597303D01*
G75*
G02*
X63699600Y19522303I0J-75000D01*
G01*
X63699600Y19372303D01*
G75*
G02*
X63624600Y19297303I-75000J0D01*
G01*
X62299600Y19297303D01*
G75*
G02*
X62224600Y19372303I0J75000D01*
G01*
G37*
G36*
G01*
X61149600Y20447303D02*
X61149600Y21772303D01*
G75*
G02*
X61224600Y21847303I75000J0D01*
G01*
X61374600Y21847303D01*
G75*
G02*
X61449600Y21772303I0J-75000D01*
G01*
X61449600Y20447303D01*
G75*
G02*
X61374600Y20372303I-75000J0D01*
G01*
X61224600Y20372303D01*
G75*
G02*
X61149600Y20447303I0J75000D01*
G01*
G37*
G36*
G01*
X60649600Y20447303D02*
X60649600Y21772303D01*
G75*
G02*
X60724600Y21847303I75000J0D01*
G01*
X60874600Y21847303D01*
G75*
G02*
X60949600Y21772303I0J-75000D01*
G01*
X60949600Y20447303D01*
G75*
G02*
X60874600Y20372303I-75000J0D01*
G01*
X60724600Y20372303D01*
G75*
G02*
X60649600Y20447303I0J75000D01*
G01*
G37*
G36*
G01*
X60149600Y20447303D02*
X60149600Y21772303D01*
G75*
G02*
X60224600Y21847303I75000J0D01*
G01*
X60374600Y21847303D01*
G75*
G02*
X60449600Y21772303I0J-75000D01*
G01*
X60449600Y20447303D01*
G75*
G02*
X60374600Y20372303I-75000J0D01*
G01*
X60224600Y20372303D01*
G75*
G02*
X60149600Y20447303I0J75000D01*
G01*
G37*
G36*
G01*
X59649600Y20447303D02*
X59649600Y21772303D01*
G75*
G02*
X59724600Y21847303I75000J0D01*
G01*
X59874600Y21847303D01*
G75*
G02*
X59949600Y21772303I0J-75000D01*
G01*
X59949600Y20447303D01*
G75*
G02*
X59874600Y20372303I-75000J0D01*
G01*
X59724600Y20372303D01*
G75*
G02*
X59649600Y20447303I0J75000D01*
G01*
G37*
G36*
G01*
X59149600Y20447303D02*
X59149600Y21772303D01*
G75*
G02*
X59224600Y21847303I75000J0D01*
G01*
X59374600Y21847303D01*
G75*
G02*
X59449600Y21772303I0J-75000D01*
G01*
X59449600Y20447303D01*
G75*
G02*
X59374600Y20372303I-75000J0D01*
G01*
X59224600Y20372303D01*
G75*
G02*
X59149600Y20447303I0J75000D01*
G01*
G37*
G36*
G01*
X58649600Y20447303D02*
X58649600Y21772303D01*
G75*
G02*
X58724600Y21847303I75000J0D01*
G01*
X58874600Y21847303D01*
G75*
G02*
X58949600Y21772303I0J-75000D01*
G01*
X58949600Y20447303D01*
G75*
G02*
X58874600Y20372303I-75000J0D01*
G01*
X58724600Y20372303D01*
G75*
G02*
X58649600Y20447303I0J75000D01*
G01*
G37*
G36*
G01*
X58149600Y20447303D02*
X58149600Y21772303D01*
G75*
G02*
X58224600Y21847303I75000J0D01*
G01*
X58374600Y21847303D01*
G75*
G02*
X58449600Y21772303I0J-75000D01*
G01*
X58449600Y20447303D01*
G75*
G02*
X58374600Y20372303I-75000J0D01*
G01*
X58224600Y20372303D01*
G75*
G02*
X58149600Y20447303I0J75000D01*
G01*
G37*
G36*
G01*
X57649600Y20447303D02*
X57649600Y21772303D01*
G75*
G02*
X57724600Y21847303I75000J0D01*
G01*
X57874600Y21847303D01*
G75*
G02*
X57949600Y21772303I0J-75000D01*
G01*
X57949600Y20447303D01*
G75*
G02*
X57874600Y20372303I-75000J0D01*
G01*
X57724600Y20372303D01*
G75*
G02*
X57649600Y20447303I0J75000D01*
G01*
G37*
G36*
G01*
X57149600Y20447303D02*
X57149600Y21772303D01*
G75*
G02*
X57224600Y21847303I75000J0D01*
G01*
X57374600Y21847303D01*
G75*
G02*
X57449600Y21772303I0J-75000D01*
G01*
X57449600Y20447303D01*
G75*
G02*
X57374600Y20372303I-75000J0D01*
G01*
X57224600Y20372303D01*
G75*
G02*
X57149600Y20447303I0J75000D01*
G01*
G37*
G36*
G01*
X56649600Y20447303D02*
X56649600Y21772303D01*
G75*
G02*
X56724600Y21847303I75000J0D01*
G01*
X56874600Y21847303D01*
G75*
G02*
X56949600Y21772303I0J-75000D01*
G01*
X56949600Y20447303D01*
G75*
G02*
X56874600Y20372303I-75000J0D01*
G01*
X56724600Y20372303D01*
G75*
G02*
X56649600Y20447303I0J75000D01*
G01*
G37*
G36*
G01*
X56149600Y20447303D02*
X56149600Y21772303D01*
G75*
G02*
X56224600Y21847303I75000J0D01*
G01*
X56374600Y21847303D01*
G75*
G02*
X56449600Y21772303I0J-75000D01*
G01*
X56449600Y20447303D01*
G75*
G02*
X56374600Y20372303I-75000J0D01*
G01*
X56224600Y20372303D01*
G75*
G02*
X56149600Y20447303I0J75000D01*
G01*
G37*
G36*
G01*
X55649600Y20447303D02*
X55649600Y21772303D01*
G75*
G02*
X55724600Y21847303I75000J0D01*
G01*
X55874600Y21847303D01*
G75*
G02*
X55949600Y21772303I0J-75000D01*
G01*
X55949600Y20447303D01*
G75*
G02*
X55874600Y20372303I-75000J0D01*
G01*
X55724600Y20372303D01*
G75*
G02*
X55649600Y20447303I0J75000D01*
G01*
G37*
G36*
G01*
X55149600Y20447303D02*
X55149600Y21772303D01*
G75*
G02*
X55224600Y21847303I75000J0D01*
G01*
X55374600Y21847303D01*
G75*
G02*
X55449600Y21772303I0J-75000D01*
G01*
X55449600Y20447303D01*
G75*
G02*
X55374600Y20372303I-75000J0D01*
G01*
X55224600Y20372303D01*
G75*
G02*
X55149600Y20447303I0J75000D01*
G01*
G37*
G36*
G01*
X54649600Y20447303D02*
X54649600Y21772303D01*
G75*
G02*
X54724600Y21847303I75000J0D01*
G01*
X54874600Y21847303D01*
G75*
G02*
X54949600Y21772303I0J-75000D01*
G01*
X54949600Y20447303D01*
G75*
G02*
X54874600Y20372303I-75000J0D01*
G01*
X54724600Y20372303D01*
G75*
G02*
X54649600Y20447303I0J75000D01*
G01*
G37*
G36*
G01*
X54149600Y20447303D02*
X54149600Y21772303D01*
G75*
G02*
X54224600Y21847303I75000J0D01*
G01*
X54374600Y21847303D01*
G75*
G02*
X54449600Y21772303I0J-75000D01*
G01*
X54449600Y20447303D01*
G75*
G02*
X54374600Y20372303I-75000J0D01*
G01*
X54224600Y20372303D01*
G75*
G02*
X54149600Y20447303I0J75000D01*
G01*
G37*
G36*
G01*
X53649600Y20447303D02*
X53649600Y21772303D01*
G75*
G02*
X53724600Y21847303I75000J0D01*
G01*
X53874600Y21847303D01*
G75*
G02*
X53949600Y21772303I0J-75000D01*
G01*
X53949600Y20447303D01*
G75*
G02*
X53874600Y20372303I-75000J0D01*
G01*
X53724600Y20372303D01*
G75*
G02*
X53649600Y20447303I0J75000D01*
G01*
G37*
G36*
G01*
X53149600Y20447303D02*
X53149600Y21772303D01*
G75*
G02*
X53224600Y21847303I75000J0D01*
G01*
X53374600Y21847303D01*
G75*
G02*
X53449600Y21772303I0J-75000D01*
G01*
X53449600Y20447303D01*
G75*
G02*
X53374600Y20372303I-75000J0D01*
G01*
X53224600Y20372303D01*
G75*
G02*
X53149600Y20447303I0J75000D01*
G01*
G37*
G36*
G01*
X52649600Y20447303D02*
X52649600Y21772303D01*
G75*
G02*
X52724600Y21847303I75000J0D01*
G01*
X52874600Y21847303D01*
G75*
G02*
X52949600Y21772303I0J-75000D01*
G01*
X52949600Y20447303D01*
G75*
G02*
X52874600Y20372303I-75000J0D01*
G01*
X52724600Y20372303D01*
G75*
G02*
X52649600Y20447303I0J75000D01*
G01*
G37*
G36*
G01*
X52149600Y20447303D02*
X52149600Y21772303D01*
G75*
G02*
X52224600Y21847303I75000J0D01*
G01*
X52374600Y21847303D01*
G75*
G02*
X52449600Y21772303I0J-75000D01*
G01*
X52449600Y20447303D01*
G75*
G02*
X52374600Y20372303I-75000J0D01*
G01*
X52224600Y20372303D01*
G75*
G02*
X52149600Y20447303I0J75000D01*
G01*
G37*
G36*
G01*
X51649600Y20447303D02*
X51649600Y21772303D01*
G75*
G02*
X51724600Y21847303I75000J0D01*
G01*
X51874600Y21847303D01*
G75*
G02*
X51949600Y21772303I0J-75000D01*
G01*
X51949600Y20447303D01*
G75*
G02*
X51874600Y20372303I-75000J0D01*
G01*
X51724600Y20372303D01*
G75*
G02*
X51649600Y20447303I0J75000D01*
G01*
G37*
G36*
G01*
X51149600Y20447303D02*
X51149600Y21772303D01*
G75*
G02*
X51224600Y21847303I75000J0D01*
G01*
X51374600Y21847303D01*
G75*
G02*
X51449600Y21772303I0J-75000D01*
G01*
X51449600Y20447303D01*
G75*
G02*
X51374600Y20372303I-75000J0D01*
G01*
X51224600Y20372303D01*
G75*
G02*
X51149600Y20447303I0J75000D01*
G01*
G37*
G36*
G01*
X50649600Y20447303D02*
X50649600Y21772303D01*
G75*
G02*
X50724600Y21847303I75000J0D01*
G01*
X50874600Y21847303D01*
G75*
G02*
X50949600Y21772303I0J-75000D01*
G01*
X50949600Y20447303D01*
G75*
G02*
X50874600Y20372303I-75000J0D01*
G01*
X50724600Y20372303D01*
G75*
G02*
X50649600Y20447303I0J75000D01*
G01*
G37*
G36*
G01*
X50149600Y20447303D02*
X50149600Y21772303D01*
G75*
G02*
X50224600Y21847303I75000J0D01*
G01*
X50374600Y21847303D01*
G75*
G02*
X50449600Y21772303I0J-75000D01*
G01*
X50449600Y20447303D01*
G75*
G02*
X50374600Y20372303I-75000J0D01*
G01*
X50224600Y20372303D01*
G75*
G02*
X50149600Y20447303I0J75000D01*
G01*
G37*
G36*
G01*
X49649600Y20447303D02*
X49649600Y21772303D01*
G75*
G02*
X49724600Y21847303I75000J0D01*
G01*
X49874600Y21847303D01*
G75*
G02*
X49949600Y21772303I0J-75000D01*
G01*
X49949600Y20447303D01*
G75*
G02*
X49874600Y20372303I-75000J0D01*
G01*
X49724600Y20372303D01*
G75*
G02*
X49649600Y20447303I0J75000D01*
G01*
G37*
G36*
G01*
X49149600Y20447303D02*
X49149600Y21772303D01*
G75*
G02*
X49224600Y21847303I75000J0D01*
G01*
X49374600Y21847303D01*
G75*
G02*
X49449600Y21772303I0J-75000D01*
G01*
X49449600Y20447303D01*
G75*
G02*
X49374600Y20372303I-75000J0D01*
G01*
X49224600Y20372303D01*
G75*
G02*
X49149600Y20447303I0J75000D01*
G01*
G37*
G36*
G01*
X76688801Y17236897D02*
X77238801Y17236897D01*
G75*
G02*
X77438801Y17036897I0J-200000D01*
G01*
X77438801Y16636897D01*
G75*
G02*
X77238801Y16436897I-200000J0D01*
G01*
X76688801Y16436897D01*
G75*
G02*
X76488801Y16636897I0J200000D01*
G01*
X76488801Y17036897D01*
G75*
G02*
X76688801Y17236897I200000J0D01*
G01*
G37*
G36*
G01*
X76688801Y15586897D02*
X77238801Y15586897D01*
G75*
G02*
X77438801Y15386897I0J-200000D01*
G01*
X77438801Y14986897D01*
G75*
G02*
X77238801Y14786897I-200000J0D01*
G01*
X76688801Y14786897D01*
G75*
G02*
X76488801Y14986897I0J200000D01*
G01*
X76488801Y15386897D01*
G75*
G02*
X76688801Y15586897I200000J0D01*
G01*
G37*
G36*
G01*
X24745004Y5484003D02*
X24745004Y5984003D01*
G75*
G02*
X24970004Y6209003I225000J0D01*
G01*
X25420004Y6209003D01*
G75*
G02*
X25645004Y5984003I0J-225000D01*
G01*
X25645004Y5484003D01*
G75*
G02*
X25420004Y5259003I-225000J0D01*
G01*
X24970004Y5259003D01*
G75*
G02*
X24745004Y5484003I0J225000D01*
G01*
G37*
G36*
G01*
X26295004Y5484003D02*
X26295004Y5984003D01*
G75*
G02*
X26520004Y6209003I225000J0D01*
G01*
X26970004Y6209003D01*
G75*
G02*
X27195004Y5984003I0J-225000D01*
G01*
X27195004Y5484003D01*
G75*
G02*
X26970004Y5259003I-225000J0D01*
G01*
X26520004Y5259003D01*
G75*
G02*
X26295004Y5484003I0J225000D01*
G01*
G37*
D12*
X67703001Y8300803D03*
G36*
X71653001Y5934303D02*
G01*
X68528001Y5934303D01*
X68528001Y6350803D01*
X67053001Y6350803D01*
X67053001Y7250803D01*
X68528001Y7250803D01*
X68528001Y7667303D01*
X71653001Y7667303D01*
X71653001Y5934303D01*
G37*
X67703001Y5300803D03*
G36*
G01*
X21291000Y36393800D02*
X21291000Y35843800D01*
G75*
G02*
X21091000Y35643800I-200000J0D01*
G01*
X20691000Y35643800D01*
G75*
G02*
X20491000Y35843800I0J200000D01*
G01*
X20491000Y36393800D01*
G75*
G02*
X20691000Y36593800I200000J0D01*
G01*
X21091000Y36593800D01*
G75*
G02*
X21291000Y36393800I0J-200000D01*
G01*
G37*
G36*
G01*
X19641000Y36393800D02*
X19641000Y35843800D01*
G75*
G02*
X19441000Y35643800I-200000J0D01*
G01*
X19041000Y35643800D01*
G75*
G02*
X18841000Y35843800I0J200000D01*
G01*
X18841000Y36393800D01*
G75*
G02*
X19041000Y36593800I200000J0D01*
G01*
X19441000Y36593800D01*
G75*
G02*
X19641000Y36393800I0J-200000D01*
G01*
G37*
G36*
G01*
X1569000Y28826750D02*
X1569000Y29339250D01*
G75*
G02*
X1787750Y29558000I218750J0D01*
G01*
X2225250Y29558000D01*
G75*
G02*
X2444000Y29339250I0J-218750D01*
G01*
X2444000Y28826750D01*
G75*
G02*
X2225250Y28608000I-218750J0D01*
G01*
X1787750Y28608000D01*
G75*
G02*
X1569000Y28826750I0J218750D01*
G01*
G37*
G36*
G01*
X3144000Y28826750D02*
X3144000Y29339250D01*
G75*
G02*
X3362750Y29558000I218750J0D01*
G01*
X3800250Y29558000D01*
G75*
G02*
X4019000Y29339250I0J-218750D01*
G01*
X4019000Y28826750D01*
G75*
G02*
X3800250Y28608000I-218750J0D01*
G01*
X3362750Y28608000D01*
G75*
G02*
X3144000Y28826750I0J218750D01*
G01*
G37*
G36*
G01*
X4019000Y30882000D02*
X4019000Y30332000D01*
G75*
G02*
X3819000Y30132000I-200000J0D01*
G01*
X3419000Y30132000D01*
G75*
G02*
X3219000Y30332000I0J200000D01*
G01*
X3219000Y30882000D01*
G75*
G02*
X3419000Y31082000I200000J0D01*
G01*
X3819000Y31082000D01*
G75*
G02*
X4019000Y30882000I0J-200000D01*
G01*
G37*
G36*
G01*
X2369000Y30882000D02*
X2369000Y30332000D01*
G75*
G02*
X2169000Y30132000I-200000J0D01*
G01*
X1769000Y30132000D01*
G75*
G02*
X1569000Y30332000I0J200000D01*
G01*
X1569000Y30882000D01*
G75*
G02*
X1769000Y31082000I200000J0D01*
G01*
X2169000Y31082000D01*
G75*
G02*
X2369000Y30882000I0J-200000D01*
G01*
G37*
G36*
G01*
X17799600Y5484003D02*
X17799600Y5984003D01*
G75*
G02*
X18024600Y6209003I225000J0D01*
G01*
X18474600Y6209003D01*
G75*
G02*
X18699600Y5984003I0J-225000D01*
G01*
X18699600Y5484003D01*
G75*
G02*
X18474600Y5259003I-225000J0D01*
G01*
X18024600Y5259003D01*
G75*
G02*
X17799600Y5484003I0J225000D01*
G01*
G37*
G36*
G01*
X19349600Y5484003D02*
X19349600Y5984003D01*
G75*
G02*
X19574600Y6209003I225000J0D01*
G01*
X20024600Y6209003D01*
G75*
G02*
X20249600Y5984003I0J-225000D01*
G01*
X20249600Y5484003D01*
G75*
G02*
X20024600Y5259003I-225000J0D01*
G01*
X19574600Y5259003D01*
G75*
G02*
X19349600Y5484003I0J225000D01*
G01*
G37*
G36*
G01*
X1569000Y33380000D02*
X1569000Y33930000D01*
G75*
G02*
X1769000Y34130000I200000J0D01*
G01*
X2169000Y34130000D01*
G75*
G02*
X2369000Y33930000I0J-200000D01*
G01*
X2369000Y33380000D01*
G75*
G02*
X2169000Y33180000I-200000J0D01*
G01*
X1769000Y33180000D01*
G75*
G02*
X1569000Y33380000I0J200000D01*
G01*
G37*
G36*
G01*
X3219000Y33380000D02*
X3219000Y33930000D01*
G75*
G02*
X3419000Y34130000I200000J0D01*
G01*
X3819000Y34130000D01*
G75*
G02*
X4019000Y33930000I0J-200000D01*
G01*
X4019000Y33380000D01*
G75*
G02*
X3819000Y33180000I-200000J0D01*
G01*
X3419000Y33180000D01*
G75*
G02*
X3219000Y33380000I0J200000D01*
G01*
G37*
G36*
G01*
X28172204Y20674503D02*
X28172204Y21174503D01*
G75*
G02*
X28397204Y21399503I225000J0D01*
G01*
X28847204Y21399503D01*
G75*
G02*
X29072204Y21174503I0J-225000D01*
G01*
X29072204Y20674503D01*
G75*
G02*
X28847204Y20449503I-225000J0D01*
G01*
X28397204Y20449503D01*
G75*
G02*
X28172204Y20674503I0J225000D01*
G01*
G37*
G36*
G01*
X29722204Y20674503D02*
X29722204Y21174503D01*
G75*
G02*
X29947204Y21399503I225000J0D01*
G01*
X30397204Y21399503D01*
G75*
G02*
X30622204Y21174503I0J-225000D01*
G01*
X30622204Y20674503D01*
G75*
G02*
X30397204Y20449503I-225000J0D01*
G01*
X29947204Y20449503D01*
G75*
G02*
X29722204Y20674503I0J225000D01*
G01*
G37*
M02*
