M48
; DRILL file {KiCad 9.0.1+1} date 2025-12-04T05:02:16+0000
; FORMAT={-:-/ absolute / metric / decimal}
; #@! TF.CreationDate,2025-12-04T05:02:16+00:00
; #@! TF.GenerationSoftware,Kicad,Pcbnew,9.0.1+1
; #@! TF.FileFunction,Plated,1,4,PTH
FMAT,2
METRIC
; #@! TA.AperFunction,Plated,PTH,ViaDrill
T1C0.254
; #@! TA.AperFunction,Plated,PTH,ComponentDrill
T2C1.000
; #@! TA.AperFunction,Plated,PTH,ComponentDrill
T3C1.440
%
G90
G05
T1
X0.94Y29.108
X1.968Y36.195
X2.286Y21.92
X3.099Y18.237
X3.099Y12.319
X3.12Y23.498
X3.52Y11.263
X3.531Y10.49
X3.556Y16.535
X4.112Y17.209
X4.394Y12.789
X4.617Y8.123
X4.623Y16.535
X5.13Y17.186
X5.588Y21.539
X5.62Y18.081
X5.639Y5.817
X6.02Y13.249
X6.121Y8.103
X6.612Y8.688
X6.619Y18.652
X6.629Y13.729
X7.117Y8.128
X7.122Y18.075
X7.615Y13.619
X7.62Y18.669
X8.117Y8.672
X8.611Y8.103
X8.814Y5.817
X9.119Y8.661
X9.525Y21.082
X9.627Y8.103
X9.748Y28.438
X10.577Y20.068
X11.118Y11.252
X11.532Y8.839
X11.557Y9.906
X11.59Y18.28
X12.128Y9.347
X12.141Y8.369
X12.763Y34.239
X13.713Y31.379
X13.713Y28.204
X13.713Y34.786
X14.678Y34.125
X15.392Y21.692
X16.148Y21.698
X16.354Y7.884
X16.91Y21.749
X17.348Y13.183
X17.475Y5.548
X17.548Y14.589
X17.678Y21.743
X18.44Y36.119
X18.488Y13.954
X19.145Y20.301
X19.812Y6.426
X20.478Y33.172
X21.308Y15.317
X21.311Y6.452
X21.638Y28.004
X21.655Y35.386
X21.869Y14.681
X22.352Y15.317
X22.806Y20.939
X22.808Y6.528
X25.208Y6.563
X25.832Y20.879
X27.2Y13.395
X27.607Y20.965
X27.608Y5.878
X29.208Y6.588
X31.061Y20.939
X31.239Y13.395
X31.671Y5.75
X31.877Y21.107
X33.223Y20.637
X33.651Y34.979
X34.769Y15.097
X37.208Y5.75
X39.624Y20.637
X40.407Y5.718
X40.716Y20.637
X41.859Y6.655
X43.18Y35.636
X44.103Y35.636
X45.076Y7.781
X45.898Y18.974
X46.527Y19.969
X47.256Y6.413
X48.687Y17.453
X48.789Y9.477
X49.292Y6.886
X49.297Y20.043
X49.5Y14.935
X50.311Y19.995
X51.029Y18.44
X51.791Y17.983
X52.142Y7.089
X52.7Y19.129
X53.31Y13.439
X53.899Y3.16
X54.326Y8.918
X54.783Y7.547
X55.291Y19.993
X55.291Y6.988
X55.479Y35.494
X55.799Y8.918
X56.307Y8.359
X57.323Y19.993
X57.323Y13.439
X57.356Y9.779
X57.455Y27.33
X57.617Y18.237
X58.014Y35.494
X58.288Y6.886
X58.557Y18.39
X58.623Y19.685
X59.23Y17.907
X59.36Y10.309
X59.792Y10.941
X59.8Y17.3
X60.249Y27.289
X60.282Y16.421
X61.489Y16.977
X61.506Y28.042
X61.519Y16.002
X61.519Y3.554
X61.743Y9.071
X61.77Y12.954
X61.844Y7.445
X61.895Y10.442
X62.84Y27.838
X63.144Y21.158
X63.932Y21.158
X64.08Y13.447
X64.08Y15.504
X64.13Y16.437
X64.313Y19.533
X64.897Y13.97
X65.43Y27.305
X66.7Y5.446
X66.723Y8.301
X67.564Y27.289
X67.678Y15.775
X67.688Y12.192
X68.428Y27.758
X68.986Y15.697
X69.109Y8.646
X69.631Y12.208
X70.227Y5.547
X70.278Y15.605
X70.279Y12.7
X70.914Y13.107
X70.928Y15.148
X71.395Y8.646
X71.578Y15.555
X72.878Y12.148
X73.508Y6.731
X73.526Y15.396
X74.165Y11.107
X74.244Y12.676
X75.053Y16.063
X75.053Y14.437
X75.5Y4.85
X76.098Y12.751
X76.327Y22.733
X77.952Y16.841
X79.373Y22.989
T2
X8.616Y35.143
X8.616Y32.603
X8.616Y30.063
X11.156Y35.143
X11.156Y32.603
X11.156Y30.063
X28.496Y33.284
X28.496Y30.744
X31.036Y33.284
X31.036Y30.744
X33.576Y33.284
X33.576Y30.744
X36.116Y33.284
X36.116Y30.744
X38.656Y33.284
X38.656Y30.744
X41.196Y33.284
X41.196Y30.744
X43.736Y33.284
X43.736Y30.744
X46.276Y33.284
X46.276Y30.744
X48.816Y33.284
X48.816Y30.744
X51.356Y33.284
X51.356Y30.744
X53.896Y33.284
X53.896Y30.744
X56.436Y33.284
X56.436Y30.744
X58.976Y33.284
X58.976Y30.744
X61.516Y33.284
X61.516Y30.744
X64.056Y33.284
X64.056Y30.744
X66.242Y20.117
X66.596Y33.284
X66.596Y30.744
X68.782Y20.117
X69.136Y33.284
X69.136Y30.744
X71.322Y20.117
X71.676Y33.284
X71.676Y30.744
X73.862Y20.117
X74.216Y33.284
X74.216Y30.744
X76.402Y20.117
X76.756Y33.284
X76.756Y30.744
X78.942Y20.117
X79.604Y16.485
X79.604Y13.945
X79.604Y11.405
X79.604Y8.865
X79.604Y6.325
T3
X1.848Y24.868
X1.848Y2.008
X4.388Y24.868
X4.388Y2.008
X6.928Y24.868
X6.928Y2.008
X9.468Y24.868
X9.468Y2.008
X12.008Y24.868
X12.008Y2.008
X14.548Y24.868
X14.548Y2.008
X17.088Y24.868
X17.088Y2.008
X19.628Y24.868
X19.628Y2.008
X22.168Y24.868
X22.168Y2.008
X24.708Y24.868
X24.708Y2.008
X27.248Y24.868
X27.248Y2.008
X29.788Y24.868
X29.788Y2.008
X32.328Y24.868
X32.328Y2.008
X34.868Y24.868
X34.868Y2.008
X37.408Y24.868
X37.408Y2.008
X39.948Y24.868
X39.948Y2.008
X42.488Y24.868
X42.488Y2.008
X45.028Y24.868
X45.028Y2.008
X47.568Y24.868
X47.568Y2.008
X50.108Y24.868
X50.108Y2.008
X52.648Y24.868
X52.648Y2.008
X55.188Y24.868
X55.188Y2.008
X57.728Y24.868
X57.728Y2.008
X60.268Y24.868
X60.268Y2.008
X62.808Y24.868
X62.808Y2.008
X65.348Y24.868
X65.348Y2.008
X67.888Y24.868
X67.888Y2.008
X70.428Y24.868
X70.428Y2.008
X72.968Y24.868
X72.968Y2.008
X75.508Y24.868
X75.508Y2.008
X78.048Y24.868
X78.048Y2.008
X80.588Y24.868
X80.588Y2.008
M30
